<?xml version="1.0" encoding="utf-8" standalone="no"?>
<!DOCTYPE svg PUBLIC "-//W3C//DTD SVG 1.1//EN"
  "http://www.w3.org/Graphics/SVG/1.1/DTD/svg11.dtd">
<svg xmlns:xlink="http://www.w3.org/1999/xlink" width="504pt" height="360pt" viewBox="0 0 504 360" xmlns="http://www.w3.org/2000/svg" version="1.1">
 <metadata>
  <rdf:RDF xmlns:dc="http://purl.org/dc/elements/1.1/" xmlns:cc="http://creativecommons.org/ns#" xmlns:rdf="http://www.w3.org/1999/02/22-rdf-syntax-ns#">
   <cc:Work>
    <dc:type rdf:resource="http://purl.org/dc/dcmitype/StillImage"/>
    <dc:date>2023-01-24T18:58:24.991889</dc:date>
    <dc:format>image/svg+xml</dc:format>
    <dc:creator>
     <cc:Agent>
      <dc:title>Matplotlib v3.5.3, https://matplotlib.org/</dc:title>
     </cc:Agent>
    </dc:creator>
   </cc:Work>
  </rdf:RDF>
 </metadata>
 <defs>
  <style type="text/css">*{stroke-linejoin: round; stroke-linecap: butt}</style>
 </defs>
 <g id="figure_1">
  <g id="patch_1">
   <path d="M 0 360 
L 504 360 
L 504 0 
L 0 0 
z
" style="fill: #ffffff"/>
  </g>
  <g id="axes_1">
   <g id="patch_2">
    <path d="M 73.492038 292.711095 
L 491.04 292.711095 
L 491.04 12.96 
L 73.492038 12.96 
z
" style="fill: #ffffff"/>
   </g>
   <g id="matplotlib.axis_1">
    <g id="xtick_1">
     <g id="line2d_1">
      <path d="M 88.637258 292.711095 
L 88.637258 12.96 
" clip-path="url(#pb766b66198)" style="fill: none; stroke: #cccccc; stroke-opacity: 0.2; stroke-linecap: round"/>
     </g>
     <g id="text_1">
      <!-- $\mathdefault{0}$ -->
      <g style="fill: #262626" transform="translate(83.900078 320.657291)scale(0.20736 -0.20736)">
       <defs>
        <path id="CMR17-30" d="M 2688 2025 
C 2688 2416 2682 3080 2413 3591 
C 2176 4039 1798 4198 1466 4198 
C 1158 4198 768 4058 525 3597 
C 269 3118 243 2524 243 2025 
C 243 1661 250 1106 448 619 
C 723 -39 1216 -128 1466 -128 
C 1760 -128 2208 -7 2470 600 
C 2662 1042 2688 1559 2688 2025 
z
M 1466 -26 
C 1056 -26 813 325 723 812 
C 653 1188 653 1738 653 2096 
C 653 2588 653 2997 736 3387 
C 858 3929 1216 4096 1466 4096 
C 1728 4096 2067 3923 2189 3400 
C 2272 3036 2278 2607 2278 2096 
C 2278 1680 2278 1169 2202 792 
C 2067 95 1690 -26 1466 -26 
z
" transform="scale(0.015625)"/>
       </defs>
       <use xlink:href="#CMR17-30" transform="scale(0.996264)"/>
      </g>
     </g>
    </g>
    <g id="xtick_2">
     <g id="line2d_2">
      <path d="M 165.321916 292.711095 
L 165.321916 12.96 
" clip-path="url(#pb766b66198)" style="fill: none; stroke: #cccccc; stroke-opacity: 0.2; stroke-linecap: round"/>
     </g>
     <g id="text_2">
      <!-- $\mathdefault{20}$ -->
      <g style="fill: #262626" transform="translate(155.847557 320.657291)scale(0.20736 -0.20736)">
       <defs>
        <path id="CMR17-32" d="M 2669 989 
L 2554 989 
C 2490 536 2438 459 2413 420 
C 2381 369 1920 369 1830 369 
L 602 369 
C 832 619 1280 1072 1824 1597 
C 2214 1967 2669 2402 2669 3035 
C 2669 3790 2067 4224 1395 4224 
C 691 4224 262 3604 262 3030 
C 262 2780 448 2748 525 2748 
C 589 2748 781 2787 781 3010 
C 781 3207 614 3264 525 3264 
C 486 3264 448 3258 422 3245 
C 544 3790 915 4058 1306 4058 
C 1862 4058 2227 3617 2227 3035 
C 2227 2479 1901 2000 1536 1584 
L 262 146 
L 262 0 
L 2515 0 
L 2669 989 
z
" transform="scale(0.015625)"/>
       </defs>
       <use xlink:href="#CMR17-32" transform="scale(0.996264)"/>
       <use xlink:href="#CMR17-30" transform="translate(45.690477 0)scale(0.996264)"/>
      </g>
     </g>
    </g>
    <g id="xtick_3">
     <g id="line2d_3">
      <path d="M 242.006573 292.711095 
L 242.006573 12.96 
" clip-path="url(#pb766b66198)" style="fill: none; stroke: #cccccc; stroke-opacity: 0.2; stroke-linecap: round"/>
     </g>
     <g id="text_3">
      <!-- $\mathdefault{40}$ -->
      <g style="fill: #262626" transform="translate(232.532215 320.657291)scale(0.20736 -0.20736)">
       <defs>
        <path id="CMR17-34" d="M 2150 4122 
C 2150 4256 2144 4256 2029 4256 
L 128 1254 
L 128 1088 
L 1779 1088 
L 1779 457 
C 1779 224 1766 160 1318 160 
L 1197 160 
L 1197 0 
C 1402 0 1747 0 1965 0 
C 2182 0 2528 0 2733 0 
L 2733 160 
L 2611 160 
C 2163 160 2150 224 2150 457 
L 2150 1088 
L 2803 1088 
L 2803 1254 
L 2150 1254 
L 2150 4122 
z
M 1798 3703 
L 1798 1254 
L 256 1254 
L 1798 3703 
z
" transform="scale(0.015625)"/>
       </defs>
       <use xlink:href="#CMR17-34" transform="scale(0.996264)"/>
       <use xlink:href="#CMR17-30" transform="translate(45.690477 0)scale(0.996264)"/>
      </g>
     </g>
    </g>
    <g id="xtick_4">
     <g id="line2d_4">
      <path d="M 318.691231 292.711095 
L 318.691231 12.96 
" clip-path="url(#pb766b66198)" style="fill: none; stroke: #cccccc; stroke-opacity: 0.2; stroke-linecap: round"/>
     </g>
     <g id="text_4">
      <!-- $\mathdefault{60}$ -->
      <g style="fill: #262626" transform="translate(309.216873 320.657291)scale(0.20736 -0.20736)">
       <defs>
        <path id="CMR17-36" d="M 678 2176 
C 678 3690 1395 4032 1811 4032 
C 1946 4032 2272 4009 2400 3776 
C 2298 3776 2106 3776 2106 3553 
C 2106 3381 2246 3323 2336 3323 
C 2394 3323 2566 3348 2566 3560 
C 2566 3954 2246 4179 1805 4179 
C 1043 4179 243 3390 243 1984 
C 243 253 966 -128 1478 -128 
C 2099 -128 2688 427 2688 1283 
C 2688 2081 2170 2662 1517 2662 
C 1126 2662 838 2407 678 1960 
L 678 2176 
z
M 1478 25 
C 691 25 691 1200 691 1436 
C 691 1896 909 2560 1504 2560 
C 1613 2560 1926 2560 2138 2120 
C 2253 1870 2253 1609 2253 1289 
C 2253 944 2253 690 2118 434 
C 1978 171 1773 25 1478 25 
z
" transform="scale(0.015625)"/>
       </defs>
       <use xlink:href="#CMR17-36" transform="scale(0.996264)"/>
       <use xlink:href="#CMR17-30" transform="translate(45.690477 0)scale(0.996264)"/>
      </g>
     </g>
    </g>
    <g id="xtick_5">
     <g id="line2d_5">
      <path d="M 395.375889 292.711095 
L 395.375889 12.96 
" clip-path="url(#pb766b66198)" style="fill: none; stroke: #cccccc; stroke-opacity: 0.2; stroke-linecap: round"/>
     </g>
     <g id="text_5">
      <!-- $\mathdefault{80}$ -->
      <g style="fill: #262626" transform="translate(385.90153 320.657291)scale(0.20736 -0.20736)">
       <defs>
        <path id="CMR17-38" d="M 1741 2264 
C 2144 2467 2554 2773 2554 3263 
C 2554 3841 1990 4179 1472 4179 
C 890 4179 378 3759 378 3180 
C 378 3021 416 2747 666 2505 
C 730 2442 998 2251 1171 2130 
C 883 1983 211 1634 211 934 
C 211 279 838 -128 1459 -128 
C 2144 -128 2720 362 2720 1010 
C 2720 1590 2330 1857 2074 2029 
L 1741 2264 
z
M 902 2822 
C 851 2854 595 3051 595 3351 
C 595 3739 998 4032 1459 4032 
C 1965 4032 2336 3676 2336 3262 
C 2336 2669 1670 2331 1638 2331 
C 1632 2331 1626 2331 1574 2370 
L 902 2822 
z
M 2080 1519 
C 2176 1449 2483 1240 2483 851 
C 2483 381 2010 25 1472 25 
C 890 25 448 438 448 940 
C 448 1443 838 1862 1280 2060 
L 2080 1519 
z
" transform="scale(0.015625)"/>
       </defs>
       <use xlink:href="#CMR17-38" transform="scale(0.996264)"/>
       <use xlink:href="#CMR17-30" transform="translate(45.690477 0)scale(0.996264)"/>
      </g>
     </g>
    </g>
    <g id="xtick_6">
     <g id="line2d_6">
      <path d="M 472.060547 292.711095 
L 472.060547 12.96 
" clip-path="url(#pb766b66198)" style="fill: none; stroke: #cccccc; stroke-opacity: 0.2; stroke-linecap: round"/>
     </g>
     <g id="text_6">
      <!-- $\mathdefault{100}$ -->
      <g style="fill: #262626" transform="translate(457.849009 320.657291)scale(0.20736 -0.20736)">
       <defs>
        <path id="CMR17-31" d="M 1702 4058 
C 1702 4192 1696 4192 1606 4192 
C 1357 3916 979 3827 621 3827 
C 602 3827 570 3827 563 3808 
C 557 3795 557 3782 557 3648 
C 755 3648 1088 3686 1344 3839 
L 1344 461 
C 1344 236 1331 160 781 160 
L 589 160 
L 589 0 
C 896 0 1216 0 1523 0 
C 1830 0 2150 0 2458 0 
L 2458 160 
L 2266 160 
C 1715 160 1702 230 1702 458 
L 1702 4058 
z
" transform="scale(0.015625)"/>
       </defs>
       <use xlink:href="#CMR17-31" transform="scale(0.996264)"/>
       <use xlink:href="#CMR17-30" transform="translate(45.690477 0)scale(0.996264)"/>
       <use xlink:href="#CMR17-30" transform="translate(91.380954 0)scale(0.996264)"/>
      </g>
     </g>
    </g>
    <g id="text_7">
     <!-- Number of Evaluations -->
     <g style="fill: #262626" transform="translate(189.277993 343.021743)scale(0.20736 -0.20736)">
      <defs>
       <path id="CMSS17-4e" d="M 1466 4180 
L 1350 4416 
L 563 4416 
L 563 0 
L 1062 0 
L 1062 3926 
L 1069 3932 
C 1114 3817 1139 3760 1402 3194 
L 2771 236 
L 2886 0 
L 3674 0 
L 3674 4416 
L 3174 4416 
L 3174 490 
L 3168 483 
C 3123 598 3098 655 2835 1221 
L 1466 4180 
z
" transform="scale(0.015625)"/>
       <path id="CMSS17-75" d="M 2618 2739 
L 2131 2739 
L 2131 972 
C 2131 498 1786 306 1421 306 
C 998 306 960 447 960 709 
L 960 2739 
L 474 2739 
L 474 678 
C 474 179 646 -64 1088 -64 
C 1306 -64 1798 -13 2144 306 
L 2144 0 
L 2618 0 
L 2618 2739 
z
" transform="scale(0.015625)"/>
       <path id="CMSS17-6d" d="M 4288 1877 
C 4288 2308 4179 2816 3462 2816 
C 2982 2816 2694 2516 2566 2331 
C 2451 2670 2182 2816 1798 2816 
C 1363 2816 1088 2568 941 2389 
L 941 2758 
L 474 2758 
L 474 0 
L 960 0 
L 960 1559 
C 960 1939 1101 2428 1555 2428 
C 2138 2428 2138 2016 2138 1829 
L 2138 0 
L 2624 0 
L 2624 1559 
C 2624 1939 2765 2428 3219 2428 
C 3802 2428 3802 2016 3802 1829 
L 3802 0 
L 4288 0 
L 4288 1877 
z
" transform="scale(0.015625)"/>
       <path id="CMSS17-62" d="M 954 4416 
L 480 4416 
L 480 -13 
L 966 -13 
L 966 274 
C 1210 38 1504 -64 1766 -64 
C 2381 -64 2880 549 2880 1352 
C 2880 2086 2496 2756 1926 2756 
C 1523 2756 1165 2591 954 2419 
L 954 4416 
z
M 966 2046 
C 1107 2222 1306 2368 1587 2368 
C 1965 2368 2394 2097 2394 1352 
C 2394 558 1882 325 1530 325 
C 1402 325 1267 356 1139 464 
C 966 615 966 709 966 797 
L 966 2046 
z
" transform="scale(0.015625)"/>
       <path id="CMSS17-65" d="M 2502 1377 
C 2502 1590 2490 2003 2285 2345 
C 2061 2713 1696 2816 1421 2816 
C 755 2816 192 2188 192 1375 
C 192 582 774 -64 1510 -64 
C 1798 -64 2150 19 2470 248 
C 2470 274 2458 414 2451 420 
C 2451 433 2432 630 2432 656 
C 2125 407 1773 325 1517 325 
C 1107 325 666 667 646 1377 
L 2502 1377 
z
M 698 1728 
C 781 2084 1062 2421 1421 2421 
C 1517 2421 1965 2421 2080 1728 
L 698 1728 
z
" transform="scale(0.015625)"/>
       <path id="CMSS17-72" d="M 954 1363 
C 954 1965 1395 2368 1958 2368 
L 1958 2789 
C 1549 2789 1165 2585 934 2253 
L 934 2758 
L 480 2758 
L 480 0 
L 954 0 
L 954 1363 
z
" transform="scale(0.015625)"/>
       <path id="CMSS17-6f" d="M 2829 1356 
C 2829 2176 2221 2816 1504 2816 
C 768 2816 173 2157 173 1356 
C 173 544 787 -64 1498 -64 
C 2227 -64 2829 563 2829 1356 
z
M 1504 337 
C 1050 337 659 709 659 1408 
C 659 2151 1114 2427 1498 2427 
C 1914 2427 2342 2126 2342 1408 
C 2342 683 1926 337 1504 337 
z
" transform="scale(0.015625)"/>
       <path id="CMSS17-66" d="M 1075 2368 
L 1722 2368 
L 1722 2737 
L 1062 2737 
L 1062 3559 
C 1062 4014 1408 4092 1606 4092 
C 1670 4092 1850 4092 2080 4009 
L 2080 4429 
C 1933 4461 1754 4480 1613 4480 
C 1018 4480 602 3993 602 3359 
L 602 2737 
L 160 2737 
L 160 2368 
L 602 2368 
L 602 0 
L 1075 0 
L 1075 2368 
z
" transform="scale(0.015625)"/>
       <path id="CMSS17-45" d="M 1958 433 
C 1446 433 1216 433 1101 433 
L 1101 2107 
L 3085 2107 
L 3085 2496 
L 1101 2496 
L 1101 4009 
L 1926 4009 
C 2003 4009 2080 4009 2157 4009 
L 3251 4009 
L 3251 4416 
L 563 4416 
L 563 0 
L 3334 0 
L 3334 433 
L 1958 433 
z
" transform="scale(0.015625)"/>
       <path id="CMSS17-76" d="M 2675 2752 
L 2176 2752 
L 1747 1556 
C 1613 1165 1421 627 1389 352 
L 1382 352 
C 1370 468 1318 634 1286 749 
C 1248 890 1197 1056 1158 1172 
L 595 2752 
L 83 2752 
L 1094 0 
L 1664 0 
L 2675 2752 
z
" transform="scale(0.015625)"/>
       <path id="CMSS17-61" d="M 2406 1791 
C 2406 2392 1978 2808 1402 2808 
C 1120 2808 813 2757 461 2553 
L 499 2135 
C 659 2248 934 2432 1395 2432 
C 1722 2432 1920 2180 1920 1782 
L 1920 1536 
C 896 1536 256 1238 256 726 
C 256 461 416 -64 947 -64 
C 1043 -64 1562 -64 1933 217 
L 1933 -19 
L 2406 -19 
L 2406 1791 
z
M 1920 816 
C 1920 701 1920 548 1728 434 
C 1562 325 1350 325 1261 325 
C 941 325 723 511 723 744 
C 723 1211 1722 1211 1920 1211 
L 1920 816 
z
" transform="scale(0.015625)"/>
       <path id="CMSS17-6c" d="M 947 4416 
L 474 4416 
L 474 0 
L 947 0 
L 947 4416 
z
" transform="scale(0.015625)"/>
       <path id="CMSS17-74" d="M 1069 2368 
L 1901 2368 
L 1901 2737 
L 1069 2737 
L 1069 3520 
L 614 3520 
L 614 2737 
L 109 2737 
L 109 2368 
L 602 2368 
L 602 749 
C 602 384 685 -64 1107 -64 
C 1427 -64 1722 25 2003 172 
L 1901 548 
C 1747 414 1562 337 1363 337 
C 1082 337 1069 696 1069 856 
L 1069 2368 
z
" transform="scale(0.015625)"/>
       <path id="CMSS17-69" d="M 979 4183 
L 442 4183 
L 442 3648 
L 979 3648 
L 979 4183 
z
M 947 2739 
L 474 2739 
L 474 0 
L 947 0 
L 947 2739 
z
" transform="scale(0.015625)"/>
       <path id="CMSS17-6e" d="M 2618 1877 
C 2618 2283 2522 2816 1798 2816 
C 1389 2816 1120 2606 941 2389 
L 941 2758 
L 474 2758 
L 474 0 
L 960 0 
L 960 1559 
C 960 1964 1114 2428 1549 2428 
C 2112 2428 2131 2048 2131 1829 
L 2131 0 
L 2618 0 
L 2618 1877 
z
" transform="scale(0.015625)"/>
       <path id="CMSS17-73" d="M 2061 2627 
C 1683 2807 1389 2807 1197 2807 
C 742 2807 198 2648 198 2003 
C 198 1359 902 1218 1094 1179 
C 1389 1122 1715 1058 1715 740 
C 1715 337 1254 337 1171 337 
C 915 337 563 407 243 638 
L 166 210 
C 531 0 883 -64 1178 -64 
C 1965 -64 2163 416 2163 781 
C 2163 1094 1984 1305 1862 1401 
C 1651 1568 1574 1587 1050 1696 
C 960 1709 646 1779 646 2066 
C 646 2432 1050 2432 1139 2432 
C 1555 2432 1811 2303 1984 2208 
L 2061 2627 
z
" transform="scale(0.015625)"/>
      </defs>
      <use xlink:href="#CMSS17-4e" transform="scale(0.996264)"/>
      <use xlink:href="#CMSS17-75" transform="translate(66.061519 0)scale(0.996264)"/>
      <use xlink:href="#CMSS17-6d" transform="translate(114.266462 0)scale(0.996264)"/>
      <use xlink:href="#CMSS17-62" transform="translate(188.495717 0)scale(0.996264)"/>
      <use xlink:href="#CMSS17-65" transform="translate(239.303099 0)scale(0.996264)"/>
      <use xlink:href="#CMSS17-72" transform="translate(280.941921 0)scale(0.996264)"/>
      <use xlink:href="#CMSS17-6f" transform="translate(344.080806 0)scale(0.996264)"/>
      <use xlink:href="#CMSS17-66" transform="translate(390.92443 0)scale(0.996264)"/>
      <use xlink:href="#CMSS17-45" transform="translate(450.780201 0)scale(0.996264)"/>
      <use xlink:href="#CMSS17-76" transform="translate(506.672214 0)scale(0.996264)"/>
      <use xlink:href="#CMSS17-61" transform="translate(549.672356 0)scale(0.996264)"/>
      <use xlink:href="#CMSS17-6c" transform="translate(594.594277 0)scale(0.996264)"/>
      <use xlink:href="#CMSS17-75" transform="translate(616.775 0)scale(0.996264)"/>
      <use xlink:href="#CMSS17-61" transform="translate(664.979943 0)scale(0.996264)"/>
      <use xlink:href="#CMSS17-74" transform="translate(709.901863 0)scale(0.996264)"/>
      <use xlink:href="#CMSS17-69" transform="translate(743.73343 0)scale(0.996264)"/>
      <use xlink:href="#CMSS17-6f" transform="translate(765.914153 0)scale(0.996264)"/>
      <use xlink:href="#CMSS17-6e" transform="translate(812.757777 0)scale(0.996264)"/>
      <use xlink:href="#CMSS17-73" transform="translate(860.96272 0)scale(0.996264)"/>
     </g>
    </g>
   </g>
   <g id="matplotlib.axis_2">
    <g id="ytick_1">
     <g id="line2d_7">
      <path d="M 73.492038 225.622965 
L 491.04 225.622965 
" clip-path="url(#pb766b66198)" style="fill: none; stroke: #cccccc; stroke-opacity: 0.2; stroke-linecap: round"/>
     </g>
     <g id="text_8">
      <!-- $\mathdefault{1.0}$ -->
      <g style="fill: #262626" transform="translate(35.324452 232.796063)scale(0.20736 -0.20736)">
       <defs>
        <path id="CMMI12-3a" d="M 1178 307 
C 1178 492 1024 619 870 619 
C 685 619 557 466 557 313 
C 557 128 710 0 864 0 
C 1050 0 1178 153 1178 307 
z
" transform="scale(0.015625)"/>
       </defs>
       <use xlink:href="#CMR17-31" transform="scale(0.996264)"/>
       <use xlink:href="#CMMI12-3a" transform="translate(45.690477 0)scale(0.996264)"/>
       <use xlink:href="#CMR17-30" transform="translate(72.787654 0)scale(0.996264)"/>
      </g>
     </g>
    </g>
    <g id="ytick_2">
     <g id="line2d_8">
      <path d="M 73.492038 150.211915 
L 491.04 150.211915 
" clip-path="url(#pb766b66198)" style="fill: none; stroke: #cccccc; stroke-opacity: 0.2; stroke-linecap: round"/>
     </g>
     <g id="text_9">
      <!-- $\mathdefault{1.5}$ -->
      <g style="fill: #262626" transform="translate(35.324452 157.385013)scale(0.20736 -0.20736)">
       <defs>
        <path id="CMR17-35" d="M 730 3692 
C 794 3666 1056 3584 1325 3584 
C 1920 3584 2246 3911 2432 4100 
C 2432 4157 2432 4192 2394 4192 
C 2387 4192 2374 4192 2323 4163 
C 2099 4058 1837 3973 1517 3973 
C 1325 3973 1037 3999 723 4139 
C 653 4171 640 4171 634 4171 
C 602 4171 595 4164 595 4037 
L 595 2203 
C 595 2089 595 2057 659 2057 
C 691 2057 704 2070 736 2114 
C 941 2401 1222 2522 1542 2522 
C 1766 2522 2246 2382 2246 1289 
C 2246 1085 2246 715 2054 421 
C 1894 159 1645 25 1370 25 
C 947 25 518 320 403 814 
C 429 807 480 795 506 795 
C 589 795 749 840 749 1038 
C 749 1210 627 1280 506 1280 
C 358 1280 262 1190 262 1011 
C 262 454 704 -128 1382 -128 
C 2042 -128 2669 440 2669 1264 
C 2669 2030 2170 2624 1549 2624 
C 1222 2624 947 2503 730 2274 
L 730 3692 
z
" transform="scale(0.015625)"/>
       </defs>
       <use xlink:href="#CMR17-31" transform="scale(0.996264)"/>
       <use xlink:href="#CMMI12-3a" transform="translate(45.690477 0)scale(0.996264)"/>
       <use xlink:href="#CMR17-35" transform="translate(72.787654 0)scale(0.996264)"/>
      </g>
     </g>
    </g>
    <g id="ytick_3">
     <g id="line2d_9">
      <path d="M 73.492038 74.800865 
L 491.04 74.800865 
" clip-path="url(#pb766b66198)" style="fill: none; stroke: #cccccc; stroke-opacity: 0.2; stroke-linecap: round"/>
     </g>
     <g id="text_10">
      <!-- $\mathdefault{2.0}$ -->
      <g style="fill: #262626" transform="translate(35.324452 81.973963)scale(0.20736 -0.20736)">
       <use xlink:href="#CMR17-32" transform="scale(0.996264)"/>
       <use xlink:href="#CMMI12-3a" transform="translate(45.690477 0)scale(0.996264)"/>
       <use xlink:href="#CMR17-30" transform="translate(72.787654 0)scale(0.996264)"/>
      </g>
     </g>
    </g>
    <g id="text_11">
     <!-- IQM Normalized Score -->
     <g style="fill: #262626" transform="translate(27.306196 244.765005)rotate(-90)scale(0.20736 -0.20736)">
      <defs>
       <path id="CMSS17-49" d="M 1094 4416 
L 557 4416 
L 557 0 
L 1094 0 
L 1094 4416 
z
" transform="scale(0.015625)"/>
       <path id="CMSS17-51" d="M 3200 202 
C 3981 833 4096 1689 4096 2174 
C 4096 3501 3219 4497 2214 4497 
C 1210 4497 333 3497 333 2178 
C 333 847 1222 -128 2214 -128 
C 2438 -128 2630 -77 2765 -26 
L 3302 -832 
L 3930 -832 
L 3200 202 
z
M 2528 324 
C 2438 293 2330 273 2214 273 
C 1523 273 858 993 858 2178 
C 858 3357 1517 4096 2214 4096 
C 2918 4096 3571 3350 3571 2178 
C 3571 1771 3507 1089 2950 566 
L 2490 1210 
L 1939 1210 
L 2528 324 
z
" transform="scale(0.015625)"/>
       <path id="CMSS17-4d" d="M 3194 2371 
L 2886 1473 
C 2835 1307 2662 791 2624 587 
L 2618 587 
C 2598 715 2560 849 2458 1174 
C 2400 1365 2336 1562 2272 1741 
L 1325 4416 
L 576 4416 
L 576 0 
L 1075 0 
L 1075 3900 
L 1082 3900 
C 1082 3894 1139 3613 1530 2499 
L 2374 96 
L 2848 96 
L 3610 2231 
C 3661 2378 3821 2843 3891 3066 
C 3955 3257 4115 3728 4154 3913 
L 4160 3913 
L 4160 0 
L 4666 0 
L 4666 4416 
L 3923 4416 
L 3194 2371 
z
" transform="scale(0.015625)"/>
       <path id="CMSS17-7a" d="M 2400 2502 
L 2400 2750 
L 250 2750 
L 250 2368 
L 1069 2368 
C 1146 2368 1222 2368 1299 2368 
L 1747 2368 
L 166 261 
L 166 0 
L 2419 0 
L 2419 395 
L 1549 395 
C 1472 395 1395 395 1318 395 
L 826 395 
L 2400 2502 
z
" transform="scale(0.015625)"/>
       <path id="CMSS17-64" d="M 2611 4416 
L 2138 4416 
L 2138 2438 
C 1939 2603 1613 2756 1254 2756 
C 672 2756 211 2131 211 1347 
C 211 562 666 -64 1235 -64 
C 1677 -64 1971 172 2125 306 
L 2125 -13 
L 2611 -13 
L 2611 4416 
z
M 2125 836 
C 2125 747 2125 653 1926 482 
C 1798 375 1645 325 1498 325 
C 1152 325 698 576 698 1340 
C 698 2134 1210 2368 1562 2368 
C 1798 2368 1990 2254 2125 2065 
L 2125 836 
z
" transform="scale(0.015625)"/>
       <path id="CMSS17-53" d="M 2797 4169 
C 2515 4334 2208 4480 1690 4480 
C 864 4480 333 3879 333 3266 
C 333 3025 403 2753 653 2475 
C 902 2196 1184 2121 1542 2033 
C 1690 1994 1939 1924 1984 1906 
C 2342 1767 2515 1444 2515 1140 
C 2515 742 2202 318 1645 318 
C 1453 318 890 318 358 819 
L 269 318 
C 794 -64 1363 -128 1651 -128 
C 2438 -128 3002 488 3002 1186 
C 3002 1440 2925 1763 2656 2061 
C 2394 2347 2163 2410 1638 2549 
C 1338 2626 1146 2677 986 2873 
C 877 3013 819 3146 819 3317 
C 819 3673 1126 4060 1690 4060 
C 1971 4060 2336 4002 2707 3660 
L 2797 4169 
z
" transform="scale(0.015625)"/>
       <path id="CMSS17-63" d="M 2464 2541 
C 2464 2585 2170 2714 2093 2739 
C 1882 2816 1613 2816 1542 2816 
C 710 2816 211 2093 211 1363 
C 211 595 768 -64 1517 -64 
C 1946 -64 2253 76 2502 242 
L 2464 664 
C 2189 453 1869 337 1523 337 
C 1024 337 698 774 698 1369 
C 698 1831 909 2414 1549 2414 
C 1901 2414 2099 2343 2394 2145 
L 2464 2541 
z
" transform="scale(0.015625)"/>
      </defs>
      <use xlink:href="#CMSS17-49" transform="scale(0.996264)"/>
      <use xlink:href="#CMSS17-51" transform="translate(25.783926 0)scale(0.996264)"/>
      <use xlink:href="#CMSS17-4d" transform="translate(94.808181 0)scale(0.996264)"/>
      <use xlink:href="#CMSS17-4e" transform="translate(207.713324 0)scale(0.996264)"/>
      <use xlink:href="#CMSS17-6f" transform="translate(273.774843 0)scale(0.996264)"/>
      <use xlink:href="#CMSS17-72" transform="translate(318.016012 0)scale(0.996264)"/>
      <use xlink:href="#CMSS17-6d" transform="translate(349.925785 0)scale(0.996264)"/>
      <use xlink:href="#CMSS17-61" transform="translate(424.155039 0)scale(0.996264)"/>
      <use xlink:href="#CMSS17-6c" transform="translate(469.07696 0)scale(0.996264)"/>
      <use xlink:href="#CMSS17-69" transform="translate(491.257683 0)scale(0.996264)"/>
      <use xlink:href="#CMSS17-7a" transform="translate(513.438406 0)scale(0.996264)"/>
      <use xlink:href="#CMSS17-65" transform="translate(554.116278 0)scale(0.996264)"/>
      <use xlink:href="#CMSS17-64" transform="translate(595.7551 0)scale(0.996264)"/>
      <use xlink:href="#CMSS17-53" transform="translate(675.189156 0)scale(0.996264)"/>
      <use xlink:href="#CMSS17-63" transform="translate(727.237672 0)scale(0.996264)"/>
      <use xlink:href="#CMSS17-6f" transform="translate(768.876494 0)scale(0.996264)"/>
      <use xlink:href="#CMSS17-72" transform="translate(813.117664 0)scale(0.996264)"/>
      <use xlink:href="#CMSS17-65" transform="translate(845.027436 0)scale(0.996264)"/>
     </g>
    </g>
   </g>
   <g id="PolyCollection_1">
    <defs>
     <path id="m96db2e3fd1" d="M 92.471491 -186.972518 
L 92.471491 -122.296475 
L 107.808422 -248.937166 
L 123.145354 -256.626634 
L 138.482285 -247.09586 
L 153.819217 -228.950227 
L 169.156148 -233.858917 
L 184.49308 -259.133198 
L 199.830012 -238.762041 
L 215.166943 -248.692823 
L 230.503875 -261.37647 
L 245.840806 -256.051514 
L 261.177738 -213.949781 
L 276.51467 -257.834929 
L 291.851601 -272.303662 
L 307.188533 -257.88131 
L 322.525464 -280.593314 
L 337.862396 -250.258905 
L 353.199327 -237.705492 
L 368.536259 -215.238593 
L 383.873191 -210.407724 
L 399.210122 -243.881641 
L 414.547054 -258.254477 
L 429.883985 -209.141407 
L 445.220917 -257.064751 
L 460.557848 -208.444547 
L 472.060547 -216.02266 
L 472.060547 -275.786943 
L 472.060547 -275.786943 
L 460.557848 -300.244754 
L 445.220917 -285.364193 
L 429.883985 -275.739474 
L 414.547054 -291.809898 
L 399.210122 -297.044643 
L 383.873191 -301.749757 
L 368.536259 -275.636612 
L 353.199327 -305.928976 
L 337.862396 -302.022233 
L 322.525464 -324.846686 
L 307.188533 -284.375521 
L 291.851601 -307.389317 
L 276.51467 -284.136014 
L 261.177738 -299.486001 
L 245.840806 -311.69956 
L 230.503875 -284.539954 
L 215.166943 -298.666033 
L 199.830012 -293.406843 
L 184.49308 -334.324041 
L 169.156148 -285.146919 
L 153.819217 -279.999441 
L 138.482285 -311.255156 
L 123.145354 -285.306463 
L 107.808422 -286.56886 
L 92.471491 -186.972518 
z
" style="stroke: #0173b2; stroke-opacity: 0.2"/>
    </defs>
    <g clip-path="url(#pb766b66198)">
     <use xlink:href="#m96db2e3fd1" x="0" y="360" style="fill: #0173b2; fill-opacity: 0.2; stroke: #0173b2; stroke-opacity: 0.2"/>
    </g>
   </g>
   <g id="PolyCollection_2">
    <defs>
     <path id="m7eccc64ee9" d="M 92.471491 -150.332648 
L 92.471491 -82.019846 
L 107.808422 -95.192731 
L 123.145354 -103.216877 
L 138.482285 -99.469298 
L 153.819217 -80.004864 
L 169.156148 -117.183418 
L 184.49308 -228.80824 
L 199.830012 -239.567769 
L 215.166943 -232.059461 
L 230.503875 -208.468898 
L 245.840806 -254.506506 
L 261.177738 -251.13621 
L 276.51467 -209.467419 
L 291.851601 -258.571568 
L 307.188533 -209.337108 
L 322.525464 -182.369362 
L 337.862396 -235.866161 
L 353.199327 -232.403174 
L 368.536259 -226.334906 
L 383.873191 -220.65201 
L 399.210122 -208.066456 
L 414.547054 -240.538092 
L 429.883985 -233.669288 
L 445.220917 -245.232738 
L 460.557848 -224.7676 
L 472.060547 -245.008392 
L 472.060547 -298.548571 
L 472.060547 -298.548571 
L 460.557848 -310.878332 
L 445.220917 -315.164433 
L 429.883985 -276.534728 
L 414.547054 -292.459692 
L 399.210122 -275.382063 
L 383.873191 -295.838571 
L 368.536259 -288.561835 
L 353.199327 -314.932593 
L 337.862396 -299.887574 
L 322.525464 -271.360961 
L 307.188533 -296.379241 
L 291.851601 -300.031939 
L 276.51467 -296.53602 
L 261.177738 -301.703661 
L 245.840806 -300.408301 
L 230.503875 -289.086387 
L 215.166943 -296.13011 
L 199.830012 -280.024594 
L 184.49308 -260.909934 
L 169.156148 -179.809231 
L 153.819217 -161.072615 
L 138.482285 -168.153971 
L 123.145354 -163.39099 
L 107.808422 -173.707876 
L 92.471491 -150.332648 
z
" style="stroke: #de8f05; stroke-opacity: 0.2"/>
    </defs>
    <g clip-path="url(#pb766b66198)">
     <use xlink:href="#m7eccc64ee9" x="0" y="360" style="fill: #de8f05; fill-opacity: 0.2; stroke: #de8f05; stroke-opacity: 0.2"/>
    </g>
   </g>
   <g id="line2d_10">
    <path d="M 92.471491 204.076862 
L 107.808422 95.951557 
L 123.145354 93.068346 
L 138.482285 82.600374 
L 153.819217 102.790081 
L 169.156148 92.98877 
L 184.49308 78.321291 
L 199.830012 88.091952 
L 215.166943 91.734605 
L 230.503875 92.239391 
L 245.840806 87.09098 
L 261.177738 104.032392 
L 276.51467 95.869905 
L 291.851601 75.711889 
L 307.188533 87.813094 
L 322.525464 56.728021 
L 337.862396 77.279427 
L 353.199327 93.971251 
L 368.536259 123.157354 
L 383.873191 96.744724 
L 399.210122 103.285226 
L 414.547054 82.372471 
L 429.883985 118.427051 
L 445.220917 94.189352 
L 460.557848 113.481727 
L 472.060547 114.100206 
" clip-path="url(#pb766b66198)" style="fill: none; stroke: #0173b2; stroke-width: 2; stroke-linecap: round"/>
    <defs>
     <path id="mdacb54bee7" d="M 0 3 
C 0.795609 3 1.55874 2.683901 2.12132 2.12132 
C 2.683901 1.55874 3 0.795609 3 0 
C 3 -0.795609 2.683901 -1.55874 2.12132 -2.12132 
C 1.55874 -2.683901 0.795609 -3 0 -3 
C -0.795609 -3 -1.55874 -2.683901 -2.12132 -2.12132 
C -2.683901 -1.55874 -3 -0.795609 -3 0 
C -3 0.795609 -2.683901 1.55874 -2.12132 2.12132 
C -1.55874 2.683901 -0.795609 3 0 3 
z
" style="stroke: #0173b2"/>
    </defs>
    <g clip-path="url(#pb766b66198)">
     <use xlink:href="#mdacb54bee7" x="92.471491" y="204.076862" style="fill: #0173b2; stroke: #0173b2"/>
     <use xlink:href="#mdacb54bee7" x="107.808422" y="95.951557" style="fill: #0173b2; stroke: #0173b2"/>
     <use xlink:href="#mdacb54bee7" x="123.145354" y="93.068346" style="fill: #0173b2; stroke: #0173b2"/>
     <use xlink:href="#mdacb54bee7" x="138.482285" y="82.600374" style="fill: #0173b2; stroke: #0173b2"/>
     <use xlink:href="#mdacb54bee7" x="153.819217" y="102.790081" style="fill: #0173b2; stroke: #0173b2"/>
     <use xlink:href="#mdacb54bee7" x="169.156148" y="92.98877" style="fill: #0173b2; stroke: #0173b2"/>
     <use xlink:href="#mdacb54bee7" x="184.49308" y="78.321291" style="fill: #0173b2; stroke: #0173b2"/>
     <use xlink:href="#mdacb54bee7" x="199.830012" y="88.091952" style="fill: #0173b2; stroke: #0173b2"/>
     <use xlink:href="#mdacb54bee7" x="215.166943" y="91.734605" style="fill: #0173b2; stroke: #0173b2"/>
     <use xlink:href="#mdacb54bee7" x="230.503875" y="92.239391" style="fill: #0173b2; stroke: #0173b2"/>
     <use xlink:href="#mdacb54bee7" x="245.840806" y="87.09098" style="fill: #0173b2; stroke: #0173b2"/>
     <use xlink:href="#mdacb54bee7" x="261.177738" y="104.032392" style="fill: #0173b2; stroke: #0173b2"/>
     <use xlink:href="#mdacb54bee7" x="276.51467" y="95.869905" style="fill: #0173b2; stroke: #0173b2"/>
     <use xlink:href="#mdacb54bee7" x="291.851601" y="75.711889" style="fill: #0173b2; stroke: #0173b2"/>
     <use xlink:href="#mdacb54bee7" x="307.188533" y="87.813094" style="fill: #0173b2; stroke: #0173b2"/>
     <use xlink:href="#mdacb54bee7" x="322.525464" y="56.728021" style="fill: #0173b2; stroke: #0173b2"/>
     <use xlink:href="#mdacb54bee7" x="337.862396" y="77.279427" style="fill: #0173b2; stroke: #0173b2"/>
     <use xlink:href="#mdacb54bee7" x="353.199327" y="93.971251" style="fill: #0173b2; stroke: #0173b2"/>
     <use xlink:href="#mdacb54bee7" x="368.536259" y="123.157354" style="fill: #0173b2; stroke: #0173b2"/>
     <use xlink:href="#mdacb54bee7" x="383.873191" y="96.744724" style="fill: #0173b2; stroke: #0173b2"/>
     <use xlink:href="#mdacb54bee7" x="399.210122" y="103.285226" style="fill: #0173b2; stroke: #0173b2"/>
     <use xlink:href="#mdacb54bee7" x="414.547054" y="82.372471" style="fill: #0173b2; stroke: #0173b2"/>
     <use xlink:href="#mdacb54bee7" x="429.883985" y="118.427051" style="fill: #0173b2; stroke: #0173b2"/>
     <use xlink:href="#mdacb54bee7" x="445.220917" y="94.189352" style="fill: #0173b2; stroke: #0173b2"/>
     <use xlink:href="#mdacb54bee7" x="460.557848" y="113.481727" style="fill: #0173b2; stroke: #0173b2"/>
     <use xlink:href="#mdacb54bee7" x="472.060547" y="114.100206" style="fill: #0173b2; stroke: #0173b2"/>
    </g>
   </g>
   <g id="line2d_11">
    <path d="M 92.471491 233.557721 
L 107.808422 231.773539 
L 123.145354 233.481845 
L 138.482285 222.534614 
L 153.819217 242.206948 
L 169.156148 218.222389 
L 184.49308 123.498159 
L 199.830012 100.385742 
L 215.166943 95.927272 
L 230.503875 112.692278 
L 245.840806 87.017797 
L 261.177738 86.921228 
L 276.51467 101.944222 
L 291.851601 88.838607 
L 307.188533 112.730356 
L 322.525464 121.947976 
L 337.862396 75.487929 
L 353.199327 96.652443 
L 368.536259 106.957321 
L 383.873191 109.671381 
L 399.210122 111.474698 
L 414.547054 107.450354 
L 429.883985 111.397292 
L 445.220917 94.464724 
L 460.557848 95.648378 
L 472.060547 81.74617 
" clip-path="url(#pb766b66198)" style="fill: none; stroke: #de8f05; stroke-width: 2; stroke-linecap: round"/>
    <defs>
     <path id="m847328a71c" d="M 0 3 
C 0.795609 3 1.55874 2.683901 2.12132 2.12132 
C 2.683901 1.55874 3 0.795609 3 0 
C 3 -0.795609 2.683901 -1.55874 2.12132 -2.12132 
C 1.55874 -2.683901 0.795609 -3 0 -3 
C -0.795609 -3 -1.55874 -2.683901 -2.12132 -2.12132 
C -2.683901 -1.55874 -3 -0.795609 -3 0 
C -3 0.795609 -2.683901 1.55874 -2.12132 2.12132 
C -1.55874 2.683901 -0.795609 3 0 3 
z
" style="stroke: #de8f05"/>
    </defs>
    <g clip-path="url(#pb766b66198)">
     <use xlink:href="#m847328a71c" x="92.471491" y="233.557721" style="fill: #de8f05; stroke: #de8f05"/>
     <use xlink:href="#m847328a71c" x="107.808422" y="231.773539" style="fill: #de8f05; stroke: #de8f05"/>
     <use xlink:href="#m847328a71c" x="123.145354" y="233.481845" style="fill: #de8f05; stroke: #de8f05"/>
     <use xlink:href="#m847328a71c" x="138.482285" y="222.534614" style="fill: #de8f05; stroke: #de8f05"/>
     <use xlink:href="#m847328a71c" x="153.819217" y="242.206948" style="fill: #de8f05; stroke: #de8f05"/>
     <use xlink:href="#m847328a71c" x="169.156148" y="218.222389" style="fill: #de8f05; stroke: #de8f05"/>
     <use xlink:href="#m847328a71c" x="184.49308" y="123.498159" style="fill: #de8f05; stroke: #de8f05"/>
     <use xlink:href="#m847328a71c" x="199.830012" y="100.385742" style="fill: #de8f05; stroke: #de8f05"/>
     <use xlink:href="#m847328a71c" x="215.166943" y="95.927272" style="fill: #de8f05; stroke: #de8f05"/>
     <use xlink:href="#m847328a71c" x="230.503875" y="112.692278" style="fill: #de8f05; stroke: #de8f05"/>
     <use xlink:href="#m847328a71c" x="245.840806" y="87.017797" style="fill: #de8f05; stroke: #de8f05"/>
     <use xlink:href="#m847328a71c" x="261.177738" y="86.921228" style="fill: #de8f05; stroke: #de8f05"/>
     <use xlink:href="#m847328a71c" x="276.51467" y="101.944222" style="fill: #de8f05; stroke: #de8f05"/>
     <use xlink:href="#m847328a71c" x="291.851601" y="88.838607" style="fill: #de8f05; stroke: #de8f05"/>
     <use xlink:href="#m847328a71c" x="307.188533" y="112.730356" style="fill: #de8f05; stroke: #de8f05"/>
     <use xlink:href="#m847328a71c" x="322.525464" y="121.947976" style="fill: #de8f05; stroke: #de8f05"/>
     <use xlink:href="#m847328a71c" x="337.862396" y="75.487929" style="fill: #de8f05; stroke: #de8f05"/>
     <use xlink:href="#m847328a71c" x="353.199327" y="96.652443" style="fill: #de8f05; stroke: #de8f05"/>
     <use xlink:href="#m847328a71c" x="368.536259" y="106.957321" style="fill: #de8f05; stroke: #de8f05"/>
     <use xlink:href="#m847328a71c" x="383.873191" y="109.671381" style="fill: #de8f05; stroke: #de8f05"/>
     <use xlink:href="#m847328a71c" x="399.210122" y="111.474698" style="fill: #de8f05; stroke: #de8f05"/>
     <use xlink:href="#m847328a71c" x="414.547054" y="107.450354" style="fill: #de8f05; stroke: #de8f05"/>
     <use xlink:href="#m847328a71c" x="429.883985" y="111.397292" style="fill: #de8f05; stroke: #de8f05"/>
     <use xlink:href="#m847328a71c" x="445.220917" y="94.464724" style="fill: #de8f05; stroke: #de8f05"/>
     <use xlink:href="#m847328a71c" x="460.557848" y="95.648378" style="fill: #de8f05; stroke: #de8f05"/>
     <use xlink:href="#m847328a71c" x="472.060547" y="81.74617" style="fill: #de8f05; stroke: #de8f05"/>
    </g>
   </g>
   <g id="patch_3">
    <path d="M 63.492038 292.711095 
L 63.492038 12.96 
" style="fill: none; stroke: #cccccc; stroke-width: 2; stroke-linejoin: miter; stroke-linecap: square"/>
   </g>
   <g id="patch_4">
    <path d="M 73.492038 302.711095 
L 491.04 302.711095 
" style="fill: none; stroke: #cccccc; stroke-width: 2; stroke-linejoin: miter; stroke-linecap: square"/>
   </g>
   <g id="legend_1">
    <g id="patch_5">
     <path d="M 426.069931 52.421789 
L 483.34 52.421789 
Q 485.54 52.421789 485.54 50.221789 
L 485.54 20.66 
Q 485.54 18.46 483.34 18.46 
L 426.069931 18.46 
Q 423.869931 18.46 423.869931 20.66 
L 423.869931 50.221789 
Q 423.869931 52.421789 426.069931 52.421789 
z
" style="fill: #ffffff; opacity: 0.8; stroke: #cccccc; stroke-linejoin: miter"/>
    </g>
    <g id="line2d_12">
     <path d="M 428.269931 26.71 
L 439.269931 26.71 
L 450.269931 26.71 
" style="fill: none; stroke: #0173b2; stroke-width: 2; stroke-linecap: round"/>
     <g>
      <use xlink:href="#mdacb54bee7" x="439.269931" y="26.71" style="fill: #0173b2; stroke: #0173b2"/>
     </g>
    </g>
    <g id="text_12">
     <!-- PPO -->
     <g style="fill: #262626" transform="translate(459.069931 30.56)scale(0.11 -0.11)">
      <defs>
       <path id="CMSS17-50" d="M 2106 1856 
C 2874 1856 3501 2453 3501 3158 
C 3501 3850 2899 4453 2067 4453 
L 570 4453 
L 570 0 
L 1107 0 
L 1107 1856 
L 2106 1856 
z
M 1926 4096 
C 2669 4096 2995 3627 2995 3157 
C 2995 2720 2694 2226 1926 2226 
L 1094 2226 
L 1094 4096 
L 1926 4096 
z
" transform="scale(0.015625)"/>
       <path id="CMSS17-4f" d="M 4096 2178 
C 4096 3503 3219 4497 2214 4497 
C 1210 4497 333 3497 333 2178 
C 333 847 1222 -128 2214 -128 
C 3206 -128 4096 847 4096 2178 
z
M 2214 273 
C 1510 273 870 1057 870 2261 
C 870 3433 1549 4096 2214 4096 
C 2880 4096 3558 3433 3558 2261 
C 3558 1051 2912 273 2214 273 
z
" transform="scale(0.015625)"/>
      </defs>
      <use xlink:href="#CMSS17-50" transform="scale(0.996264)"/>
      <use xlink:href="#CMSS17-50" transform="translate(59.735586 0)scale(0.996264)"/>
      <use xlink:href="#CMSS17-4f" transform="translate(119.471173 0)scale(0.996264)"/>
     </g>
    </g>
    <g id="line2d_13">
     <path d="M 428.269931 42.040895 
L 439.269931 42.040895 
L 450.269931 42.040895 
" style="fill: none; stroke: #de8f05; stroke-width: 2; stroke-linecap: round"/>
     <g>
      <use xlink:href="#m847328a71c" x="439.269931" y="42.040895" style="fill: #de8f05; stroke: #de8f05"/>
     </g>
    </g>
    <g id="text_13">
     <!-- SAC -->
     <g style="fill: #262626" transform="translate(459.069931 45.890895)scale(0.11 -0.11)">
      <defs>
       <path id="CMSS17-41" d="M 2272 4416 
L 1722 4416 
L 166 0 
L 653 0 
L 1101 1280 
L 2816 1280 
L 3270 0 
L 3827 0 
L 2272 4416 
z
M 2694 1637 
L 1222 1637 
C 1530 2528 1914 3638 1958 3925 
L 1965 3925 
C 2010 3663 2138 3281 2246 2956 
L 2694 1637 
z
" transform="scale(0.015625)"/>
       <path id="CMSS17-43" d="M 3501 714 
C 3072 427 2874 344 2355 344 
C 1459 344 934 1303 934 2179 
C 934 3112 1472 4032 2381 4032 
C 2790 4032 3059 3918 3386 3715 
L 3475 4217 
C 3168 4370 2778 4440 2387 4440 
C 1158 4440 397 3316 397 2179 
C 397 927 1299 -64 2323 -64 
C 2874 -64 3066 -19 3539 280 
L 3501 714 
z
" transform="scale(0.015625)"/>
      </defs>
      <use xlink:href="#CMSS17-53" transform="scale(0.996264)"/>
      <use xlink:href="#CMSS17-41" transform="translate(52.048516 0)scale(0.996264)"/>
      <use xlink:href="#CMSS17-43" transform="translate(111.663917 0)scale(0.996264)"/>
     </g>
    </g>
   </g>
  </g>
 </g>
 <defs>
  <clipPath id="pb766b66198">
   <rect x="73.492038" y="12.96" width="417.547962" height="279.751095"/>
  </clipPath>
 </defs>
</svg>
