<?xml version="1.0" encoding="utf-8" standalone="no"?>
<!DOCTYPE svg PUBLIC "-//W3C//DTD SVG 1.1//EN"
  "http://www.w3.org/Graphics/SVG/1.1/DTD/svg11.dtd">
<svg xmlns:xlink="http://www.w3.org/1999/xlink" width="504pt" height="360pt" viewBox="0 0 504 360" xmlns="http://www.w3.org/2000/svg" version="1.1">
 <metadata>
  <rdf:RDF xmlns:dc="http://purl.org/dc/elements/1.1/" xmlns:cc="http://creativecommons.org/ns#" xmlns:rdf="http://www.w3.org/1999/02/22-rdf-syntax-ns#">
   <cc:Work>
    <dc:type rdf:resource="http://purl.org/dc/dcmitype/StillImage"/>
    <dc:date>2023-01-24T18:58:19.054916</dc:date>
    <dc:format>image/svg+xml</dc:format>
    <dc:creator>
     <cc:Agent>
      <dc:title>Matplotlib v3.5.3, https://matplotlib.org/</dc:title>
     </cc:Agent>
    </dc:creator>
   </cc:Work>
  </rdf:RDF>
 </metadata>
 <defs>
  <style type="text/css">*{stroke-linejoin: round; stroke-linecap: butt}</style>
 </defs>
 <g id="figure_1">
  <g id="patch_1">
   <path d="M 0 360 
L 504 360 
L 504 0 
L 0 0 
z
" style="fill: #ffffff"/>
  </g>
  <g id="axes_1">
   <g id="patch_2">
    <path d="M 63 320.4 
L 453.6 320.4 
L 453.6 43.2 
L 63 43.2 
z
" style="fill: #ffffff"/>
   </g>
   <g id="matplotlib.axis_1">
    <g id="xtick_1">
     <g id="line2d_1">
      <path d="M 80.754545 320.4 
L 80.754545 43.2 
" clip-path="url(#p397bc8497d)" style="fill: none; stroke: #cccccc; stroke-opacity: 0.2; stroke-linecap: round"/>
     </g>
     <g id="text_1">
      <!-- $\mathdefault{0.00}$ -->
      <g style="fill: #262626" transform="translate(66.570401 345.955168)scale(0.1728 -0.1728)">
       <defs>
        <path id="CMR17-30" d="M 2688 2025 
C 2688 2416 2682 3080 2413 3591 
C 2176 4039 1798 4198 1466 4198 
C 1158 4198 768 4058 525 3597 
C 269 3118 243 2524 243 2025 
C 243 1661 250 1106 448 619 
C 723 -39 1216 -128 1466 -128 
C 1760 -128 2208 -7 2470 600 
C 2662 1042 2688 1559 2688 2025 
z
M 1466 -26 
C 1056 -26 813 325 723 812 
C 653 1188 653 1738 653 2096 
C 653 2588 653 2997 736 3387 
C 858 3929 1216 4096 1466 4096 
C 1728 4096 2067 3923 2189 3400 
C 2272 3036 2278 2607 2278 2096 
C 2278 1680 2278 1169 2202 792 
C 2067 95 1690 -26 1466 -26 
z
" transform="scale(0.015625)"/>
        <path id="CMMI12-3a" d="M 1178 307 
C 1178 492 1024 619 870 619 
C 685 619 557 466 557 313 
C 557 128 710 0 864 0 
C 1050 0 1178 153 1178 307 
z
" transform="scale(0.015625)"/>
       </defs>
       <use xlink:href="#CMR17-30" transform="scale(0.996264)"/>
       <use xlink:href="#CMMI12-3a" transform="translate(45.690477 0)scale(0.996264)"/>
       <use xlink:href="#CMR17-30" transform="translate(72.787654 0)scale(0.996264)"/>
       <use xlink:href="#CMR17-30" transform="translate(118.478131 0)scale(0.996264)"/>
      </g>
     </g>
    </g>
    <g id="xtick_2">
     <g id="line2d_2">
      <path d="M 139.936364 320.4 
L 139.936364 43.2 
" clip-path="url(#p397bc8497d)" style="fill: none; stroke: #cccccc; stroke-opacity: 0.2; stroke-linecap: round"/>
     </g>
     <g id="text_2">
      <!-- $\mathdefault{0.25}$ -->
      <g style="fill: #262626" transform="translate(125.752219 345.955168)scale(0.1728 -0.1728)">
       <defs>
        <path id="CMR17-32" d="M 2669 989 
L 2554 989 
C 2490 536 2438 459 2413 420 
C 2381 369 1920 369 1830 369 
L 602 369 
C 832 619 1280 1072 1824 1597 
C 2214 1967 2669 2402 2669 3035 
C 2669 3790 2067 4224 1395 4224 
C 691 4224 262 3604 262 3030 
C 262 2780 448 2748 525 2748 
C 589 2748 781 2787 781 3010 
C 781 3207 614 3264 525 3264 
C 486 3264 448 3258 422 3245 
C 544 3790 915 4058 1306 4058 
C 1862 4058 2227 3617 2227 3035 
C 2227 2479 1901 2000 1536 1584 
L 262 146 
L 262 0 
L 2515 0 
L 2669 989 
z
" transform="scale(0.015625)"/>
        <path id="CMR17-35" d="M 730 3692 
C 794 3666 1056 3584 1325 3584 
C 1920 3584 2246 3911 2432 4100 
C 2432 4157 2432 4192 2394 4192 
C 2387 4192 2374 4192 2323 4163 
C 2099 4058 1837 3973 1517 3973 
C 1325 3973 1037 3999 723 4139 
C 653 4171 640 4171 634 4171 
C 602 4171 595 4164 595 4037 
L 595 2203 
C 595 2089 595 2057 659 2057 
C 691 2057 704 2070 736 2114 
C 941 2401 1222 2522 1542 2522 
C 1766 2522 2246 2382 2246 1289 
C 2246 1085 2246 715 2054 421 
C 1894 159 1645 25 1370 25 
C 947 25 518 320 403 814 
C 429 807 480 795 506 795 
C 589 795 749 840 749 1038 
C 749 1210 627 1280 506 1280 
C 358 1280 262 1190 262 1011 
C 262 454 704 -128 1382 -128 
C 2042 -128 2669 440 2669 1264 
C 2669 2030 2170 2624 1549 2624 
C 1222 2624 947 2503 730 2274 
L 730 3692 
z
" transform="scale(0.015625)"/>
       </defs>
       <use xlink:href="#CMR17-30" transform="scale(0.996264)"/>
       <use xlink:href="#CMMI12-3a" transform="translate(45.690477 0)scale(0.996264)"/>
       <use xlink:href="#CMR17-32" transform="translate(72.787654 0)scale(0.996264)"/>
       <use xlink:href="#CMR17-35" transform="translate(118.478131 0)scale(0.996264)"/>
      </g>
     </g>
    </g>
    <g id="xtick_3">
     <g id="line2d_3">
      <path d="M 199.118182 320.4 
L 199.118182 43.2 
" clip-path="url(#p397bc8497d)" style="fill: none; stroke: #cccccc; stroke-opacity: 0.2; stroke-linecap: round"/>
     </g>
     <g id="text_3">
      <!-- $\mathdefault{0.50}$ -->
      <g style="fill: #262626" transform="translate(184.934037 345.955168)scale(0.1728 -0.1728)">
       <use xlink:href="#CMR17-30" transform="scale(0.996264)"/>
       <use xlink:href="#CMMI12-3a" transform="translate(45.690477 0)scale(0.996264)"/>
       <use xlink:href="#CMR17-35" transform="translate(72.787654 0)scale(0.996264)"/>
       <use xlink:href="#CMR17-30" transform="translate(118.478131 0)scale(0.996264)"/>
      </g>
     </g>
    </g>
    <g id="xtick_4">
     <g id="line2d_4">
      <path d="M 258.3 320.4 
L 258.3 43.2 
" clip-path="url(#p397bc8497d)" style="fill: none; stroke: #cccccc; stroke-opacity: 0.2; stroke-linecap: round"/>
     </g>
     <g id="text_4">
      <!-- $\mathdefault{0.75}$ -->
      <g style="fill: #262626" transform="translate(244.115855 345.955168)scale(0.1728 -0.1728)">
       <defs>
        <path id="CMR17-37" d="M 2886 3941 
L 2886 4081 
L 1382 4081 
C 634 4081 621 4165 595 4288 
L 480 4288 
L 294 3094 
L 410 3094 
C 429 3215 474 3540 550 3661 
C 589 3712 1062 3712 1171 3712 
L 2579 3712 
L 1869 2661 
C 1395 1954 1069 999 1069 165 
C 1069 89 1069 -128 1299 -128 
C 1530 -128 1530 89 1530 171 
L 1530 465 
C 1530 1508 1709 2196 2003 2636 
L 2886 3941 
z
" transform="scale(0.015625)"/>
       </defs>
       <use xlink:href="#CMR17-30" transform="scale(0.996264)"/>
       <use xlink:href="#CMMI12-3a" transform="translate(45.690477 0)scale(0.996264)"/>
       <use xlink:href="#CMR17-37" transform="translate(72.787654 0)scale(0.996264)"/>
       <use xlink:href="#CMR17-35" transform="translate(118.478131 0)scale(0.996264)"/>
      </g>
     </g>
    </g>
    <g id="xtick_5">
     <g id="line2d_5">
      <path d="M 317.481818 320.4 
L 317.481818 43.2 
" clip-path="url(#p397bc8497d)" style="fill: none; stroke: #cccccc; stroke-opacity: 0.2; stroke-linecap: round"/>
     </g>
     <g id="text_5">
      <!-- $\mathdefault{1.00}$ -->
      <g style="fill: #262626" transform="translate(303.297674 345.955168)scale(0.1728 -0.1728)">
       <defs>
        <path id="CMR17-31" d="M 1702 4058 
C 1702 4192 1696 4192 1606 4192 
C 1357 3916 979 3827 621 3827 
C 602 3827 570 3827 563 3808 
C 557 3795 557 3782 557 3648 
C 755 3648 1088 3686 1344 3839 
L 1344 461 
C 1344 236 1331 160 781 160 
L 589 160 
L 589 0 
C 896 0 1216 0 1523 0 
C 1830 0 2150 0 2458 0 
L 2458 160 
L 2266 160 
C 1715 160 1702 230 1702 458 
L 1702 4058 
z
" transform="scale(0.015625)"/>
       </defs>
       <use xlink:href="#CMR17-31" transform="scale(0.996264)"/>
       <use xlink:href="#CMMI12-3a" transform="translate(45.690477 0)scale(0.996264)"/>
       <use xlink:href="#CMR17-30" transform="translate(72.787654 0)scale(0.996264)"/>
       <use xlink:href="#CMR17-30" transform="translate(118.478131 0)scale(0.996264)"/>
      </g>
     </g>
    </g>
    <g id="xtick_6">
     <g id="line2d_6">
      <path d="M 376.663636 320.4 
L 376.663636 43.2 
" clip-path="url(#p397bc8497d)" style="fill: none; stroke: #cccccc; stroke-opacity: 0.2; stroke-linecap: round"/>
     </g>
     <g id="text_6">
      <!-- $\mathdefault{1.25}$ -->
      <g style="fill: #262626" transform="translate(362.479492 345.955168)scale(0.1728 -0.1728)">
       <use xlink:href="#CMR17-31" transform="scale(0.996264)"/>
       <use xlink:href="#CMMI12-3a" transform="translate(45.690477 0)scale(0.996264)"/>
       <use xlink:href="#CMR17-32" transform="translate(72.787654 0)scale(0.996264)"/>
       <use xlink:href="#CMR17-35" transform="translate(118.478131 0)scale(0.996264)"/>
      </g>
     </g>
    </g>
    <g id="xtick_7">
     <g id="line2d_7">
      <path d="M 435.845455 320.4 
L 435.845455 43.2 
" clip-path="url(#p397bc8497d)" style="fill: none; stroke: #cccccc; stroke-opacity: 0.2; stroke-linecap: round"/>
     </g>
     <g id="text_7">
      <!-- $\mathdefault{1.50}$ -->
      <g style="fill: #262626" transform="translate(421.66131 345.955168)scale(0.1728 -0.1728)">
       <use xlink:href="#CMR17-31" transform="scale(0.996264)"/>
       <use xlink:href="#CMMI12-3a" transform="translate(45.690477 0)scale(0.996264)"/>
       <use xlink:href="#CMR17-35" transform="translate(72.787654 0)scale(0.996264)"/>
       <use xlink:href="#CMR17-30" transform="translate(118.478131 0)scale(0.996264)"/>
      </g>
     </g>
    </g>
    <g id="text_8">
     <!-- Normalized Score $(\tau)$ -->
     <g style="fill: #262626" transform="translate(186.222178 366.199778)scale(0.1728 -0.1728)">
      <defs>
       <path id="CMSS17-4e" d="M 1466 4180 
L 1350 4416 
L 563 4416 
L 563 0 
L 1062 0 
L 1062 3926 
L 1069 3932 
C 1114 3817 1139 3760 1402 3194 
L 2771 236 
L 2886 0 
L 3674 0 
L 3674 4416 
L 3174 4416 
L 3174 490 
L 3168 483 
C 3123 598 3098 655 2835 1221 
L 1466 4180 
z
" transform="scale(0.015625)"/>
       <path id="CMSS17-6f" d="M 2829 1356 
C 2829 2176 2221 2816 1504 2816 
C 768 2816 173 2157 173 1356 
C 173 544 787 -64 1498 -64 
C 2227 -64 2829 563 2829 1356 
z
M 1504 337 
C 1050 337 659 709 659 1408 
C 659 2151 1114 2427 1498 2427 
C 1914 2427 2342 2126 2342 1408 
C 2342 683 1926 337 1504 337 
z
" transform="scale(0.015625)"/>
       <path id="CMSS17-72" d="M 954 1363 
C 954 1965 1395 2368 1958 2368 
L 1958 2789 
C 1549 2789 1165 2585 934 2253 
L 934 2758 
L 480 2758 
L 480 0 
L 954 0 
L 954 1363 
z
" transform="scale(0.015625)"/>
       <path id="CMSS17-6d" d="M 4288 1877 
C 4288 2308 4179 2816 3462 2816 
C 2982 2816 2694 2516 2566 2331 
C 2451 2670 2182 2816 1798 2816 
C 1363 2816 1088 2568 941 2389 
L 941 2758 
L 474 2758 
L 474 0 
L 960 0 
L 960 1559 
C 960 1939 1101 2428 1555 2428 
C 2138 2428 2138 2016 2138 1829 
L 2138 0 
L 2624 0 
L 2624 1559 
C 2624 1939 2765 2428 3219 2428 
C 3802 2428 3802 2016 3802 1829 
L 3802 0 
L 4288 0 
L 4288 1877 
z
" transform="scale(0.015625)"/>
       <path id="CMSS17-61" d="M 2406 1791 
C 2406 2392 1978 2808 1402 2808 
C 1120 2808 813 2757 461 2553 
L 499 2135 
C 659 2248 934 2432 1395 2432 
C 1722 2432 1920 2180 1920 1782 
L 1920 1536 
C 896 1536 256 1238 256 726 
C 256 461 416 -64 947 -64 
C 1043 -64 1562 -64 1933 217 
L 1933 -19 
L 2406 -19 
L 2406 1791 
z
M 1920 816 
C 1920 701 1920 548 1728 434 
C 1562 325 1350 325 1261 325 
C 941 325 723 511 723 744 
C 723 1211 1722 1211 1920 1211 
L 1920 816 
z
" transform="scale(0.015625)"/>
       <path id="CMSS17-6c" d="M 947 4416 
L 474 4416 
L 474 0 
L 947 0 
L 947 4416 
z
" transform="scale(0.015625)"/>
       <path id="CMSS17-69" d="M 979 4183 
L 442 4183 
L 442 3648 
L 979 3648 
L 979 4183 
z
M 947 2739 
L 474 2739 
L 474 0 
L 947 0 
L 947 2739 
z
" transform="scale(0.015625)"/>
       <path id="CMSS17-7a" d="M 2400 2502 
L 2400 2750 
L 250 2750 
L 250 2368 
L 1069 2368 
C 1146 2368 1222 2368 1299 2368 
L 1747 2368 
L 166 261 
L 166 0 
L 2419 0 
L 2419 395 
L 1549 395 
C 1472 395 1395 395 1318 395 
L 826 395 
L 2400 2502 
z
" transform="scale(0.015625)"/>
       <path id="CMSS17-65" d="M 2502 1377 
C 2502 1590 2490 2003 2285 2345 
C 2061 2713 1696 2816 1421 2816 
C 755 2816 192 2188 192 1375 
C 192 582 774 -64 1510 -64 
C 1798 -64 2150 19 2470 248 
C 2470 274 2458 414 2451 420 
C 2451 433 2432 630 2432 656 
C 2125 407 1773 325 1517 325 
C 1107 325 666 667 646 1377 
L 2502 1377 
z
M 698 1728 
C 781 2084 1062 2421 1421 2421 
C 1517 2421 1965 2421 2080 1728 
L 698 1728 
z
" transform="scale(0.015625)"/>
       <path id="CMSS17-64" d="M 2611 4416 
L 2138 4416 
L 2138 2438 
C 1939 2603 1613 2756 1254 2756 
C 672 2756 211 2131 211 1347 
C 211 562 666 -64 1235 -64 
C 1677 -64 1971 172 2125 306 
L 2125 -13 
L 2611 -13 
L 2611 4416 
z
M 2125 836 
C 2125 747 2125 653 1926 482 
C 1798 375 1645 325 1498 325 
C 1152 325 698 576 698 1340 
C 698 2134 1210 2368 1562 2368 
C 1798 2368 1990 2254 2125 2065 
L 2125 836 
z
" transform="scale(0.015625)"/>
       <path id="CMSS17-53" d="M 2797 4169 
C 2515 4334 2208 4480 1690 4480 
C 864 4480 333 3879 333 3266 
C 333 3025 403 2753 653 2475 
C 902 2196 1184 2121 1542 2033 
C 1690 1994 1939 1924 1984 1906 
C 2342 1767 2515 1444 2515 1140 
C 2515 742 2202 318 1645 318 
C 1453 318 890 318 358 819 
L 269 318 
C 794 -64 1363 -128 1651 -128 
C 2438 -128 3002 488 3002 1186 
C 3002 1440 2925 1763 2656 2061 
C 2394 2347 2163 2410 1638 2549 
C 1338 2626 1146 2677 986 2873 
C 877 3013 819 3146 819 3317 
C 819 3673 1126 4060 1690 4060 
C 1971 4060 2336 4002 2707 3660 
L 2797 4169 
z
" transform="scale(0.015625)"/>
       <path id="CMSS17-63" d="M 2464 2541 
C 2464 2585 2170 2714 2093 2739 
C 1882 2816 1613 2816 1542 2816 
C 710 2816 211 2093 211 1363 
C 211 595 768 -64 1517 -64 
C 1946 -64 2253 76 2502 242 
L 2464 664 
C 2189 453 1869 337 1523 337 
C 1024 337 698 774 698 1369 
C 698 1831 909 2414 1549 2414 
C 1901 2414 2099 2343 2394 2145 
L 2464 2541 
z
" transform="scale(0.015625)"/>
       <path id="CMR17-28" d="M 1958 -1561 
C 1958 -1555 1958 -1542 1939 -1523 
C 1645 -1224 858 -407 858 1581 
C 858 3569 1632 4379 1946 4697 
C 1946 4704 1958 4717 1958 4736 
C 1958 4755 1939 4768 1914 4768 
C 1843 4768 1299 4296 986 3594 
C 666 2887 576 2199 576 1588 
C 576 1128 621 351 1005 -471 
C 1312 -1135 1837 -1600 1914 -1600 
C 1946 -1600 1958 -1587 1958 -1561 
z
" transform="scale(0.015625)"/>
       <path id="CMMI12-1c" d="M 1837 2408 
L 2899 2408 
C 2982 2408 3194 2408 3194 2612 
C 3194 2752 3072 2752 2957 2752 
L 1197 2752 
C 1050 2752 832 2752 538 2440 
C 371 2255 166 1917 166 1879 
C 166 1841 198 1828 237 1828 
C 282 1828 288 1847 320 1885 
C 653 2408 986 2408 1146 2408 
L 1677 2408 
L 1011 223 
C 979 127 979 114 979 95 
C 979 25 1024 -64 1152 -64 
C 1350 -64 1382 108 1402 203 
L 1837 2408 
z
" transform="scale(0.015625)"/>
       <path id="CMR17-29" d="M 1683 1581 
C 1683 2040 1638 2817 1254 3639 
C 947 4303 422 4768 346 4768 
C 326 4768 301 4761 301 4729 
C 301 4717 307 4710 314 4697 
C 621 4378 1402 3568 1402 1584 
C 1402 -407 627 -1217 314 -1537 
C 307 -1549 301 -1556 301 -1568 
C 301 -1600 326 -1600 346 -1600 
C 416 -1600 960 -1128 1274 -426 
C 1594 281 1683 969 1683 1581 
z
" transform="scale(0.015625)"/>
      </defs>
      <use xlink:href="#CMSS17-4e" transform="scale(0.996264)"/>
      <use xlink:href="#CMSS17-6f" transform="translate(66.061519 0)scale(0.996264)"/>
      <use xlink:href="#CMSS17-72" transform="translate(110.302689 0)scale(0.996264)"/>
      <use xlink:href="#CMSS17-6d" transform="translate(142.212461 0)scale(0.996264)"/>
      <use xlink:href="#CMSS17-61" transform="translate(216.441716 0)scale(0.996264)"/>
      <use xlink:href="#CMSS17-6c" transform="translate(261.363636 0)scale(0.996264)"/>
      <use xlink:href="#CMSS17-69" transform="translate(283.544359 0)scale(0.996264)"/>
      <use xlink:href="#CMSS17-7a" transform="translate(305.725082 0)scale(0.996264)"/>
      <use xlink:href="#CMSS17-65" transform="translate(346.402954 0)scale(0.996264)"/>
      <use xlink:href="#CMSS17-64" transform="translate(388.041776 0)scale(0.996264)"/>
      <use xlink:href="#CMSS17-53" transform="translate(467.475832 0)scale(0.996264)"/>
      <use xlink:href="#CMSS17-63" transform="translate(519.524348 0)scale(0.996264)"/>
      <use xlink:href="#CMSS17-6f" transform="translate(561.16317 0)scale(0.996264)"/>
      <use xlink:href="#CMSS17-72" transform="translate(605.40434 0)scale(0.996264)"/>
      <use xlink:href="#CMSS17-65" transform="translate(637.314113 0)scale(0.996264)"/>
      <use xlink:href="#CMR17-28" transform="translate(710.182047 0)scale(0.996264)"/>
      <use xlink:href="#CMMI12-1c" transform="translate(745.462815 0)scale(0.996264)"/>
      <use xlink:href="#CMR17-29" transform="translate(798.953981 0)scale(0.996264)"/>
     </g>
    </g>
   </g>
   <g id="matplotlib.axis_2">
    <g id="ytick_1">
     <g id="line2d_8">
      <path d="M 63 320.4 
L 453.6 320.4 
" clip-path="url(#p397bc8497d)" style="fill: none; stroke: #cccccc; stroke-opacity: 0.2; stroke-linecap: round"/>
     </g>
     <g id="text_9">
      <!-- $\mathdefault{0.00}$ -->
      <g style="fill: #262626" transform="translate(21.031711 326.377584)scale(0.1728 -0.1728)">
       <use xlink:href="#CMR17-30" transform="scale(0.996264)"/>
       <use xlink:href="#CMMI12-3a" transform="translate(45.690477 0)scale(0.996264)"/>
       <use xlink:href="#CMR17-30" transform="translate(72.787654 0)scale(0.996264)"/>
       <use xlink:href="#CMR17-30" transform="translate(118.478131 0)scale(0.996264)"/>
      </g>
     </g>
    </g>
    <g id="ytick_2">
     <g id="line2d_9">
      <path d="M 63 254.712796 
L 453.6 254.712796 
" clip-path="url(#p397bc8497d)" style="fill: none; stroke: #cccccc; stroke-opacity: 0.2; stroke-linecap: round"/>
     </g>
     <g id="text_10">
      <!-- $\mathdefault{0.25}$ -->
      <g style="fill: #262626" transform="translate(21.031711 260.69038)scale(0.1728 -0.1728)">
       <use xlink:href="#CMR17-30" transform="scale(0.996264)"/>
       <use xlink:href="#CMMI12-3a" transform="translate(45.690477 0)scale(0.996264)"/>
       <use xlink:href="#CMR17-32" transform="translate(72.787654 0)scale(0.996264)"/>
       <use xlink:href="#CMR17-35" transform="translate(118.478131 0)scale(0.996264)"/>
      </g>
     </g>
    </g>
    <g id="ytick_3">
     <g id="line2d_10">
      <path d="M 63 189.025592 
L 453.6 189.025592 
" clip-path="url(#p397bc8497d)" style="fill: none; stroke: #cccccc; stroke-opacity: 0.2; stroke-linecap: round"/>
     </g>
     <g id="text_11">
      <!-- $\mathdefault{0.50}$ -->
      <g style="fill: #262626" transform="translate(21.031711 195.003176)scale(0.1728 -0.1728)">
       <use xlink:href="#CMR17-30" transform="scale(0.996264)"/>
       <use xlink:href="#CMMI12-3a" transform="translate(45.690477 0)scale(0.996264)"/>
       <use xlink:href="#CMR17-35" transform="translate(72.787654 0)scale(0.996264)"/>
       <use xlink:href="#CMR17-30" transform="translate(118.478131 0)scale(0.996264)"/>
      </g>
     </g>
    </g>
    <g id="ytick_4">
     <g id="line2d_11">
      <path d="M 63 123.338389 
L 453.6 123.338389 
" clip-path="url(#p397bc8497d)" style="fill: none; stroke: #cccccc; stroke-opacity: 0.2; stroke-linecap: round"/>
     </g>
     <g id="text_12">
      <!-- $\mathdefault{0.75}$ -->
      <g style="fill: #262626" transform="translate(21.031711 129.315973)scale(0.1728 -0.1728)">
       <use xlink:href="#CMR17-30" transform="scale(0.996264)"/>
       <use xlink:href="#CMMI12-3a" transform="translate(45.690477 0)scale(0.996264)"/>
       <use xlink:href="#CMR17-37" transform="translate(72.787654 0)scale(0.996264)"/>
       <use xlink:href="#CMR17-35" transform="translate(118.478131 0)scale(0.996264)"/>
      </g>
     </g>
    </g>
    <g id="ytick_5">
     <g id="line2d_12">
      <path d="M 63 57.651185 
L 453.6 57.651185 
" clip-path="url(#p397bc8497d)" style="fill: none; stroke: #cccccc; stroke-opacity: 0.2; stroke-linecap: round"/>
     </g>
     <g id="text_13">
      <!-- $\mathdefault{1.00}$ -->
      <g style="fill: #262626" transform="translate(21.031711 63.628769)scale(0.1728 -0.1728)">
       <use xlink:href="#CMR17-31" transform="scale(0.996264)"/>
       <use xlink:href="#CMMI12-3a" transform="translate(45.690477 0)scale(0.996264)"/>
       <use xlink:href="#CMR17-30" transform="translate(72.787654 0)scale(0.996264)"/>
       <use xlink:href="#CMR17-30" transform="translate(118.478131 0)scale(0.996264)"/>
      </g>
     </g>
    </g>
    <g id="text_14">
     <!-- Fraction of runs with score $&gt; \tau$ -->
     <g style="fill: #262626" transform="translate(13.683168 287.67067)rotate(-90)scale(0.1728 -0.1728)">
      <defs>
       <path id="CMSS17-46" d="M 2918 1984 
L 2918 2373 
L 1101 2373 
L 1101 3968 
L 1882 3968 
C 1958 3968 2035 3968 2112 3968 
L 3168 3968 
L 3168 4375 
L 563 4375 
L 563 -32 
L 1101 -32 
L 1101 1984 
L 2918 1984 
z
" transform="scale(0.015625)"/>
       <path id="CMSS17-74" d="M 1069 2368 
L 1901 2368 
L 1901 2737 
L 1069 2737 
L 1069 3520 
L 614 3520 
L 614 2737 
L 109 2737 
L 109 2368 
L 602 2368 
L 602 749 
C 602 384 685 -64 1107 -64 
C 1427 -64 1722 25 2003 172 
L 1901 548 
C 1747 414 1562 337 1363 337 
C 1082 337 1069 696 1069 856 
L 1069 2368 
z
" transform="scale(0.015625)"/>
       <path id="CMSS17-6e" d="M 2618 1877 
C 2618 2283 2522 2816 1798 2816 
C 1389 2816 1120 2606 941 2389 
L 941 2758 
L 474 2758 
L 474 0 
L 960 0 
L 960 1559 
C 960 1964 1114 2428 1549 2428 
C 2112 2428 2131 2048 2131 1829 
L 2131 0 
L 2618 0 
L 2618 1877 
z
" transform="scale(0.015625)"/>
       <path id="CMSS17-66" d="M 1075 2368 
L 1722 2368 
L 1722 2737 
L 1062 2737 
L 1062 3559 
C 1062 4014 1408 4092 1606 4092 
C 1670 4092 1850 4092 2080 4009 
L 2080 4429 
C 1933 4461 1754 4480 1613 4480 
C 1018 4480 602 3993 602 3359 
L 602 2737 
L 160 2737 
L 160 2368 
L 602 2368 
L 602 0 
L 1075 0 
L 1075 2368 
z
" transform="scale(0.015625)"/>
       <path id="CMSS17-75" d="M 2618 2739 
L 2131 2739 
L 2131 972 
C 2131 498 1786 306 1421 306 
C 998 306 960 447 960 709 
L 960 2739 
L 474 2739 
L 474 678 
C 474 179 646 -64 1088 -64 
C 1306 -64 1798 -13 2144 306 
L 2144 0 
L 2618 0 
L 2618 2739 
z
" transform="scale(0.015625)"/>
       <path id="CMSS17-73" d="M 2061 2627 
C 1683 2807 1389 2807 1197 2807 
C 742 2807 198 2648 198 2003 
C 198 1359 902 1218 1094 1179 
C 1389 1122 1715 1058 1715 740 
C 1715 337 1254 337 1171 337 
C 915 337 563 407 243 638 
L 166 210 
C 531 0 883 -64 1178 -64 
C 1965 -64 2163 416 2163 781 
C 2163 1094 1984 1305 1862 1401 
C 1651 1568 1574 1587 1050 1696 
C 960 1709 646 1779 646 2066 
C 646 2432 1050 2432 1139 2432 
C 1555 2432 1811 2303 1984 2208 
L 2061 2627 
z
" transform="scale(0.015625)"/>
       <path id="CMSS17-77" d="M 4013 2752 
L 3526 2752 
L 3187 1601 
C 3117 1358 2918 685 2893 371 
L 2886 371 
C 2874 564 2765 1024 2586 1633 
L 2259 2752 
L 1818 2752 
L 1498 1658 
C 1338 1101 1216 627 1203 371 
L 1197 371 
C 1171 749 909 1633 870 1773 
L 582 2752 
L 83 2752 
L 915 0 
L 1402 0 
C 1734 1096 1990 1943 2010 2370 
C 2022 2160 2131 1707 2195 1484 
L 2618 0 
L 3181 0 
L 4013 2752 
z
" transform="scale(0.015625)"/>
       <path id="CMSS17-68" d="M 2618 1891 
C 2618 2292 2522 2820 1798 2820 
C 1395 2820 1133 2623 947 2407 
L 947 4448 
L 474 4448 
L 474 32 
L 960 32 
L 960 1573 
C 960 1973 1114 2432 1549 2432 
C 2112 2432 2131 2056 2131 1839 
L 2131 32 
L 2618 32 
L 2618 1891 
z
" transform="scale(0.015625)"/>
       <path id="CMMI12-3e" d="M 4218 1449 
C 4339 1507 4346 1545 4346 1590 
C 4346 1628 4333 1673 4218 1725 
L 755 3322 
C 672 3360 659 3360 646 3360 
C 570 3360 525 3296 525 3245 
C 525 3168 576 3142 659 3104 
L 3949 1590 
L 653 65 
C 525 6 525 -39 525 -77 
C 525 -128 570 -192 646 -192 
C 659 -192 666 -185 755 -147 
L 4218 1449 
z
" transform="scale(0.015625)"/>
      </defs>
      <use xlink:href="#CMSS17-46" transform="scale(0.996264)"/>
      <use xlink:href="#CMSS17-72" transform="translate(50.687105 0)scale(0.996264)"/>
      <use xlink:href="#CMSS17-61" transform="translate(82.596878 0)scale(0.996264)"/>
      <use xlink:href="#CMSS17-63" transform="translate(127.518799 0)scale(0.996264)"/>
      <use xlink:href="#CMSS17-74" transform="translate(169.157621 0)scale(0.996264)"/>
      <use xlink:href="#CMSS17-69" transform="translate(202.989187 0)scale(0.996264)"/>
      <use xlink:href="#CMSS17-6f" transform="translate(225.16991 0)scale(0.996264)"/>
      <use xlink:href="#CMSS17-6e" transform="translate(272.013534 0)scale(0.996264)"/>
      <use xlink:href="#CMSS17-6f" transform="translate(351.44759 0)scale(0.996264)"/>
      <use xlink:href="#CMSS17-66" transform="translate(398.291213 0)scale(0.996264)"/>
      <use xlink:href="#CMSS17-72" transform="translate(458.146985 0)scale(0.996264)"/>
      <use xlink:href="#CMSS17-75" transform="translate(490.056757 0)scale(0.996264)"/>
      <use xlink:href="#CMSS17-6e" transform="translate(538.261701 0)scale(0.996264)"/>
      <use xlink:href="#CMSS17-73" transform="translate(586.466644 0)scale(0.996264)"/>
      <use xlink:href="#CMSS17-77" transform="translate(653.609298 0)scale(0.996264)"/>
      <use xlink:href="#CMSS17-69" transform="translate(717.428843 0)scale(0.996264)"/>
      <use xlink:href="#CMSS17-74" transform="translate(739.609567 0)scale(0.996264)"/>
      <use xlink:href="#CMSS17-68" transform="translate(773.441133 0)scale(0.996264)"/>
      <use xlink:href="#CMSS17-73" transform="translate(852.875189 0)scale(0.996264)"/>
      <use xlink:href="#CMSS17-63" transform="translate(888.788731 0)scale(0.996264)"/>
      <use xlink:href="#CMSS17-6f" transform="translate(930.427553 0)scale(0.996264)"/>
      <use xlink:href="#CMSS17-72" transform="translate(974.668723 0)scale(0.996264)"/>
      <use xlink:href="#CMSS17-65" transform="translate(1006.578495 0)scale(0.996264)"/>
      <use xlink:href="#CMMI12-3e" transform="translate(1079.44643 0)scale(0.996264)"/>
      <use xlink:href="#CMMI12-1c" transform="translate(1182.992535 0)scale(0.996264)"/>
     </g>
    </g>
   </g>
   <g id="PolyCollection_1">
    <defs>
     <path id="ma4f7b4abc1" d="M 80.754545 -302.348815 
L 80.754545 -302.348815 
L 88.001299 -302.348815 
L 95.248052 -302.348815 
L 102.494805 -302.348815 
L 109.741558 -302.348815 
L 116.988312 -302.348815 
L 124.235065 -302.348815 
L 131.481818 -302.348815 
L 138.728571 -302.348815 
L 145.975325 -302.348815 
L 153.222078 -302.348815 
L 160.468831 -302.348815 
L 167.715584 -302.348815 
L 174.962338 -302.348815 
L 182.209091 -302.348815 
L 189.455844 -302.348815 
L 196.702597 -302.348815 
L 203.949351 -302.348815 
L 211.196104 -302.348815 
L 218.442857 -302.348815 
L 225.68961 -302.348815 
L 232.936364 -302.348815 
L 240.183117 -302.348815 
L 247.42987 -302.348815 
L 254.676623 -302.348815 
L 261.923377 -302.348815 
L 269.17013 -302.348815 
L 276.416883 -302.348815 
L 283.663636 -302.348815 
L 290.91039 -302.348815 
L 298.157143 -302.348815 
L 305.403896 -302.348815 
L 312.650649 -302.348815 
L 319.897403 -302.348815 
L 327.144156 -302.348815 
L 334.390909 -302.348815 
L 341.637662 -302.348815 
L 348.884416 -302.348815 
L 356.131169 -302.348815 
L 363.377922 -302.348815 
L 370.624675 -302.348815 
L 377.871429 -302.348815 
L 385.118182 -302.348815 
L 392.364935 -302.348815 
L 399.611688 -302.348815 
L 406.858442 -302.348815 
L 414.105195 -302.348815 
L 421.351948 -302.348815 
L 428.598701 -302.348815 
L 435.845455 -302.348815 
L 435.845455 -302.348815 
L 435.845455 -302.348815 
L 428.598701 -302.348815 
L 421.351948 -302.348815 
L 414.105195 -302.348815 
L 406.858442 -302.348815 
L 399.611688 -302.348815 
L 392.364935 -302.348815 
L 385.118182 -302.348815 
L 377.871429 -302.348815 
L 370.624675 -302.348815 
L 363.377922 -302.348815 
L 356.131169 -302.348815 
L 348.884416 -302.348815 
L 341.637662 -302.348815 
L 334.390909 -302.348815 
L 327.144156 -302.348815 
L 319.897403 -302.348815 
L 312.650649 -302.348815 
L 305.403896 -302.348815 
L 298.157143 -302.348815 
L 290.91039 -302.348815 
L 283.663636 -302.348815 
L 276.416883 -302.348815 
L 269.17013 -302.348815 
L 261.923377 -302.348815 
L 254.676623 -302.348815 
L 247.42987 -302.348815 
L 240.183117 -302.348815 
L 232.936364 -302.348815 
L 225.68961 -302.348815 
L 218.442857 -302.348815 
L 211.196104 -302.348815 
L 203.949351 -302.348815 
L 196.702597 -302.348815 
L 189.455844 -302.348815 
L 182.209091 -302.348815 
L 174.962338 -302.348815 
L 167.715584 -302.348815 
L 160.468831 -302.348815 
L 153.222078 -302.348815 
L 145.975325 -302.348815 
L 138.728571 -302.348815 
L 131.481818 -302.348815 
L 124.235065 -302.348815 
L 116.988312 -302.348815 
L 109.741558 -302.348815 
L 102.494805 -302.348815 
L 95.248052 -302.348815 
L 88.001299 -302.348815 
L 80.754545 -302.348815 
z
" style="stroke: #0173b2; stroke-opacity: 0.15"/>
    </defs>
    <g clip-path="url(#p397bc8497d)">
     <use xlink:href="#ma4f7b4abc1" x="0" y="360" style="fill: #0173b2; fill-opacity: 0.15; stroke: #0173b2; stroke-opacity: 0.15"/>
    </g>
   </g>
   <g id="PolyCollection_2">
    <defs>
     <path id="m8e61b9be3c" d="M 80.754545 -302.348815 
L 80.754545 -302.348815 
L 88.001299 -302.348815 
L 95.248052 -302.348815 
L 102.494805 -302.348815 
L 109.741558 -302.348815 
L 116.988312 -302.348815 
L 124.235065 -302.348815 
L 131.481818 -302.348815 
L 138.728571 -302.348815 
L 145.975325 -302.348815 
L 153.222078 -302.348815 
L 160.468831 -302.348815 
L 167.715584 -302.348815 
L 174.962338 -302.348815 
L 182.209091 -302.348815 
L 189.455844 -302.348815 
L 196.702597 -302.348815 
L 203.949351 -302.348815 
L 211.196104 -302.348815 
L 218.442857 -302.348815 
L 225.68961 -302.348815 
L 232.936364 -302.348815 
L 240.183117 -302.348815 
L 247.42987 -302.348815 
L 254.676623 -302.348815 
L 261.923377 -302.348815 
L 269.17013 -302.348815 
L 276.416883 -302.348815 
L 283.663636 -302.348815 
L 290.91039 -302.348815 
L 298.157143 -302.348815 
L 305.403896 -302.348815 
L 312.650649 -302.348815 
L 319.897403 -302.348815 
L 327.144156 -302.348815 
L 334.390909 -302.348815 
L 341.637662 -302.348815 
L 348.884416 -302.348815 
L 356.131169 -302.348815 
L 363.377922 -302.348815 
L 370.624675 -302.348815 
L 377.871429 -302.348815 
L 385.118182 -302.348815 
L 392.364935 -302.348815 
L 399.611688 -302.348815 
L 406.858442 -302.348815 
L 414.105195 -302.348815 
L 421.351948 -302.348815 
L 428.598701 -302.348815 
L 435.845455 -302.348815 
L 435.845455 -302.348815 
L 435.845455 -302.348815 
L 428.598701 -302.348815 
L 421.351948 -302.348815 
L 414.105195 -302.348815 
L 406.858442 -302.348815 
L 399.611688 -302.348815 
L 392.364935 -302.348815 
L 385.118182 -302.348815 
L 377.871429 -302.348815 
L 370.624675 -302.348815 
L 363.377922 -302.348815 
L 356.131169 -302.348815 
L 348.884416 -302.348815 
L 341.637662 -302.348815 
L 334.390909 -302.348815 
L 327.144156 -302.348815 
L 319.897403 -302.348815 
L 312.650649 -302.348815 
L 305.403896 -302.348815 
L 298.157143 -302.348815 
L 290.91039 -302.348815 
L 283.663636 -302.348815 
L 276.416883 -302.348815 
L 269.17013 -302.348815 
L 261.923377 -302.348815 
L 254.676623 -302.348815 
L 247.42987 -302.348815 
L 240.183117 -302.348815 
L 232.936364 -302.348815 
L 225.68961 -302.348815 
L 218.442857 -302.348815 
L 211.196104 -302.348815 
L 203.949351 -302.348815 
L 196.702597 -302.348815 
L 189.455844 -302.348815 
L 182.209091 -302.348815 
L 174.962338 -302.348815 
L 167.715584 -302.348815 
L 160.468831 -302.348815 
L 153.222078 -302.348815 
L 145.975325 -302.348815 
L 138.728571 -302.348815 
L 131.481818 -302.348815 
L 124.235065 -302.348815 
L 116.988312 -302.348815 
L 109.741558 -302.348815 
L 102.494805 -302.348815 
L 95.248052 -302.348815 
L 88.001299 -302.348815 
L 80.754545 -302.348815 
z
" style="stroke: #de8f05; stroke-opacity: 0.15"/>
    </defs>
    <g clip-path="url(#p397bc8497d)">
     <use xlink:href="#m8e61b9be3c" x="0" y="360" style="fill: #de8f05; fill-opacity: 0.15; stroke: #de8f05; stroke-opacity: 0.15"/>
    </g>
   </g>
   <g id="line2d_13">
    <path d="M 80.754545 57.651185 
L 88.001299 57.651185 
L 95.248052 57.651185 
L 102.494805 57.651185 
L 109.741558 57.651185 
L 116.988312 57.651185 
L 124.235065 57.651185 
L 131.481818 57.651185 
L 138.728571 57.651185 
L 145.975325 57.651185 
L 153.222078 57.651185 
L 160.468831 57.651185 
L 167.715584 57.651185 
L 174.962338 57.651185 
L 182.209091 57.651185 
L 189.455844 57.651185 
L 196.702597 57.651185 
L 203.949351 57.651185 
L 211.196104 57.651185 
L 218.442857 57.651185 
L 225.68961 57.651185 
L 232.936364 57.651185 
L 240.183117 57.651185 
L 247.42987 57.651185 
L 254.676623 57.651185 
L 261.923377 57.651185 
L 269.17013 57.651185 
L 276.416883 57.651185 
L 283.663636 57.651185 
L 290.91039 57.651185 
L 298.157143 57.651185 
L 305.403896 57.651185 
L 312.650649 57.651185 
L 319.897403 57.651185 
L 327.144156 57.651185 
L 334.390909 57.651185 
L 341.637662 57.651185 
L 348.884416 57.651185 
L 356.131169 57.651185 
L 363.377922 57.651185 
L 370.624675 57.651185 
L 377.871429 57.651185 
L 385.118182 57.651185 
L 392.364935 57.651185 
L 399.611688 57.651185 
L 406.858442 57.651185 
L 414.105195 57.651185 
L 421.351948 57.651185 
L 428.598701 57.651185 
L 435.845455 57.651185 
" clip-path="url(#p397bc8497d)" style="fill: none; stroke: #0173b2; stroke-width: 2; stroke-linecap: round"/>
   </g>
   <g id="line2d_14">
    <path d="M 80.754545 57.651185 
L 88.001299 57.651185 
L 95.248052 57.651185 
L 102.494805 57.651185 
L 109.741558 57.651185 
L 116.988312 57.651185 
L 124.235065 57.651185 
L 131.481818 57.651185 
L 138.728571 57.651185 
L 145.975325 57.651185 
L 153.222078 57.651185 
L 160.468831 57.651185 
L 167.715584 57.651185 
L 174.962338 57.651185 
L 182.209091 57.651185 
L 189.455844 57.651185 
L 196.702597 57.651185 
L 203.949351 57.651185 
L 211.196104 57.651185 
L 218.442857 57.651185 
L 225.68961 57.651185 
L 232.936364 57.651185 
L 240.183117 57.651185 
L 247.42987 57.651185 
L 254.676623 57.651185 
L 261.923377 57.651185 
L 269.17013 57.651185 
L 276.416883 57.651185 
L 283.663636 57.651185 
L 290.91039 57.651185 
L 298.157143 57.651185 
L 305.403896 57.651185 
L 312.650649 57.651185 
L 319.897403 57.651185 
L 327.144156 57.651185 
L 334.390909 57.651185 
L 341.637662 57.651185 
L 348.884416 57.651185 
L 356.131169 57.651185 
L 363.377922 57.651185 
L 370.624675 57.651185 
L 377.871429 57.651185 
L 385.118182 57.651185 
L 392.364935 57.651185 
L 399.611688 57.651185 
L 406.858442 57.651185 
L 414.105195 57.651185 
L 421.351948 57.651185 
L 428.598701 57.651185 
L 435.845455 57.651185 
" clip-path="url(#p397bc8497d)" style="fill: none; stroke: #de8f05; stroke-width: 2; stroke-linecap: round"/>
   </g>
   <g id="patch_3">
    <path d="M 53 320.4 
L 53 43.2 
" style="fill: none; stroke: #cccccc; stroke-width: 2; stroke-linejoin: miter; stroke-linecap: square"/>
   </g>
   <g id="patch_4">
    <path d="M 63 330.4 
L 453.6 330.4 
" style="fill: none; stroke: #cccccc; stroke-width: 2; stroke-linejoin: miter; stroke-linecap: square"/>
   </g>
   <g id="legend_1">
    <g id="patch_5">
     <path d="M 70.7 314.9 
L 127.970069 314.9 
Q 130.170069 314.9 130.170069 312.7 
L 130.170069 283.138211 
Q 130.170069 280.938211 127.970069 280.938211 
L 70.7 280.938211 
Q 68.5 280.938211 68.5 283.138211 
L 68.5 312.7 
Q 68.5 314.9 70.7 314.9 
z
" style="fill: #ffffff; opacity: 0.8; stroke: #cccccc; stroke-linejoin: miter"/>
    </g>
    <g id="line2d_15">
     <path d="M 72.9 289.188211 
L 83.9 289.188211 
L 94.9 289.188211 
" style="fill: none; stroke: #0173b2; stroke-width: 2; stroke-linecap: round"/>
    </g>
    <g id="text_15">
     <!-- PPO -->
     <g style="fill: #262626" transform="translate(103.7 293.038211)scale(0.11 -0.11)">
      <defs>
       <path id="CMSS17-50" d="M 2106 1856 
C 2874 1856 3501 2453 3501 3158 
C 3501 3850 2899 4453 2067 4453 
L 570 4453 
L 570 0 
L 1107 0 
L 1107 1856 
L 2106 1856 
z
M 1926 4096 
C 2669 4096 2995 3627 2995 3157 
C 2995 2720 2694 2226 1926 2226 
L 1094 2226 
L 1094 4096 
L 1926 4096 
z
" transform="scale(0.015625)"/>
       <path id="CMSS17-4f" d="M 4096 2178 
C 4096 3503 3219 4497 2214 4497 
C 1210 4497 333 3497 333 2178 
C 333 847 1222 -128 2214 -128 
C 3206 -128 4096 847 4096 2178 
z
M 2214 273 
C 1510 273 870 1057 870 2261 
C 870 3433 1549 4096 2214 4096 
C 2880 4096 3558 3433 3558 2261 
C 3558 1051 2912 273 2214 273 
z
" transform="scale(0.015625)"/>
      </defs>
      <use xlink:href="#CMSS17-50" transform="scale(0.996264)"/>
      <use xlink:href="#CMSS17-50" transform="translate(59.735586 0)scale(0.996264)"/>
      <use xlink:href="#CMSS17-4f" transform="translate(119.471173 0)scale(0.996264)"/>
     </g>
    </g>
    <g id="line2d_16">
     <path d="M 72.9 304.519105 
L 83.9 304.519105 
L 94.9 304.519105 
" style="fill: none; stroke: #de8f05; stroke-width: 2; stroke-linecap: round"/>
    </g>
    <g id="text_16">
     <!-- SAC -->
     <g style="fill: #262626" transform="translate(103.7 308.369105)scale(0.11 -0.11)">
      <defs>
       <path id="CMSS17-41" d="M 2272 4416 
L 1722 4416 
L 166 0 
L 653 0 
L 1101 1280 
L 2816 1280 
L 3270 0 
L 3827 0 
L 2272 4416 
z
M 2694 1637 
L 1222 1637 
C 1530 2528 1914 3638 1958 3925 
L 1965 3925 
C 2010 3663 2138 3281 2246 2956 
L 2694 1637 
z
" transform="scale(0.015625)"/>
       <path id="CMSS17-43" d="M 3501 714 
C 3072 427 2874 344 2355 344 
C 1459 344 934 1303 934 2179 
C 934 3112 1472 4032 2381 4032 
C 2790 4032 3059 3918 3386 3715 
L 3475 4217 
C 3168 4370 2778 4440 2387 4440 
C 1158 4440 397 3316 397 2179 
C 397 927 1299 -64 2323 -64 
C 2874 -64 3066 -19 3539 280 
L 3501 714 
z
" transform="scale(0.015625)"/>
      </defs>
      <use xlink:href="#CMSS17-53" transform="scale(0.996264)"/>
      <use xlink:href="#CMSS17-41" transform="translate(52.048516 0)scale(0.996264)"/>
      <use xlink:href="#CMSS17-43" transform="translate(111.663917 0)scale(0.996264)"/>
     </g>
    </g>
   </g>
  </g>
 </g>
 <defs>
  <clipPath id="p397bc8497d">
   <rect x="63" y="43.2" width="390.6" height="277.2"/>
  </clipPath>
 </defs>
</svg>
