<?xml version="1.0" encoding="utf-8" standalone="no"?>
<!DOCTYPE svg PUBLIC "-//W3C//DTD SVG 1.1//EN"
  "http://www.w3.org/Graphics/SVG/1.1/DTD/svg11.dtd">
<svg xmlns:xlink="http://www.w3.org/1999/xlink" width="460.8pt" height="345.6pt" viewBox="0 0 460.8 345.6" xmlns="http://www.w3.org/2000/svg" version="1.1">
 <metadata>
  <rdf:RDF xmlns:dc="http://purl.org/dc/elements/1.1/" xmlns:cc="http://creativecommons.org/ns#" xmlns:rdf="http://www.w3.org/1999/02/22-rdf-syntax-ns#">
   <cc:Work>
    <dc:type rdf:resource="http://purl.org/dc/dcmitype/StillImage"/>
    <dc:date>2023-01-24T18:58:12.474330</dc:date>
    <dc:format>image/svg+xml</dc:format>
    <dc:creator>
     <cc:Agent>
      <dc:title>Matplotlib v3.5.3, https://matplotlib.org/</dc:title>
     </cc:Agent>
    </dc:creator>
   </cc:Work>
  </rdf:RDF>
 </metadata>
 <defs>
  <style type="text/css">*{stroke-linejoin: round; stroke-linecap: butt}</style>
 </defs>
 <g id="figure_1">
  <g id="patch_1">
   <path d="M 0 345.6 
L 460.8 345.6 
L 460.8 0 
L 0 0 
z
" style="fill: #ffffff"/>
  </g>
  <g id="axes_1">
   <g id="patch_2">
    <path d="M 66.864057 293.679964 
L 447.84 293.679964 
L 447.84 28.645876 
L 66.864057 28.645876 
z
" style="fill: #ffffff"/>
   </g>
   <g id="matplotlib.axis_1">
    <g id="xtick_1">
     <g id="line2d_1">
      <path d="M 80.682744 293.679964 
L 80.682744 28.645876 
" clip-path="url(#p0825066b8e)" style="fill: none; stroke: #cccccc; stroke-linecap: round"/>
     </g>
     <g id="text_1">
      <!-- $\mathdefault{0.0}$ -->
      <g style="fill: #262626" transform="translate(72.580688 312.173992)scale(0.13 -0.13)">
       <defs>
        <path id="CMR17-30" d="M 2688 2025 
C 2688 2416 2682 3080 2413 3591 
C 2176 4039 1798 4198 1466 4198 
C 1158 4198 768 4058 525 3597 
C 269 3118 243 2524 243 2025 
C 243 1661 250 1106 448 619 
C 723 -39 1216 -128 1466 -128 
C 1760 -128 2208 -7 2470 600 
C 2662 1042 2688 1559 2688 2025 
z
M 1466 -26 
C 1056 -26 813 325 723 812 
C 653 1188 653 1738 653 2096 
C 653 2588 653 2997 736 3387 
C 858 3929 1216 4096 1466 4096 
C 1728 4096 2067 3923 2189 3400 
C 2272 3036 2278 2607 2278 2096 
C 2278 1680 2278 1169 2202 792 
C 2067 95 1690 -26 1466 -26 
z
" transform="scale(0.015625)"/>
        <path id="CMMI12-3a" d="M 1178 307 
C 1178 492 1024 619 870 619 
C 685 619 557 466 557 313 
C 557 128 710 0 864 0 
C 1050 0 1178 153 1178 307 
z
" transform="scale(0.015625)"/>
       </defs>
       <use xlink:href="#CMR17-30" transform="scale(0.996264)"/>
       <use xlink:href="#CMMI12-3a" transform="translate(45.690477 0)scale(0.996264)"/>
       <use xlink:href="#CMR17-30" transform="translate(72.787654 0)scale(0.996264)"/>
      </g>
     </g>
    </g>
    <g id="xtick_2">
     <g id="line2d_2">
      <path d="M 150.650777 293.679964 
L 150.650777 28.645876 
" clip-path="url(#p0825066b8e)" style="fill: none; stroke: #cccccc; stroke-linecap: round"/>
     </g>
     <g id="text_2">
      <!-- $\mathdefault{0.2}$ -->
      <g style="fill: #262626" transform="translate(142.548722 312.173992)scale(0.13 -0.13)">
       <defs>
        <path id="CMR17-32" d="M 2669 989 
L 2554 989 
C 2490 536 2438 459 2413 420 
C 2381 369 1920 369 1830 369 
L 602 369 
C 832 619 1280 1072 1824 1597 
C 2214 1967 2669 2402 2669 3035 
C 2669 3790 2067 4224 1395 4224 
C 691 4224 262 3604 262 3030 
C 262 2780 448 2748 525 2748 
C 589 2748 781 2787 781 3010 
C 781 3207 614 3264 525 3264 
C 486 3264 448 3258 422 3245 
C 544 3790 915 4058 1306 4058 
C 1862 4058 2227 3617 2227 3035 
C 2227 2479 1901 2000 1536 1584 
L 262 146 
L 262 0 
L 2515 0 
L 2669 989 
z
" transform="scale(0.015625)"/>
       </defs>
       <use xlink:href="#CMR17-30" transform="scale(0.996264)"/>
       <use xlink:href="#CMMI12-3a" transform="translate(45.690477 0)scale(0.996264)"/>
       <use xlink:href="#CMR17-32" transform="translate(72.787654 0)scale(0.996264)"/>
      </g>
     </g>
    </g>
    <g id="xtick_3">
     <g id="line2d_3">
      <path d="M 220.618811 293.679964 
L 220.618811 28.645876 
" clip-path="url(#p0825066b8e)" style="fill: none; stroke: #cccccc; stroke-linecap: round"/>
     </g>
     <g id="text_3">
      <!-- $\mathdefault{0.4}$ -->
      <g style="fill: #262626" transform="translate(212.516755 312.173992)scale(0.13 -0.13)">
       <defs>
        <path id="CMR17-34" d="M 2150 4122 
C 2150 4256 2144 4256 2029 4256 
L 128 1254 
L 128 1088 
L 1779 1088 
L 1779 457 
C 1779 224 1766 160 1318 160 
L 1197 160 
L 1197 0 
C 1402 0 1747 0 1965 0 
C 2182 0 2528 0 2733 0 
L 2733 160 
L 2611 160 
C 2163 160 2150 224 2150 457 
L 2150 1088 
L 2803 1088 
L 2803 1254 
L 2150 1254 
L 2150 4122 
z
M 1798 3703 
L 1798 1254 
L 256 1254 
L 1798 3703 
z
" transform="scale(0.015625)"/>
       </defs>
       <use xlink:href="#CMR17-30" transform="scale(0.996264)"/>
       <use xlink:href="#CMMI12-3a" transform="translate(45.690477 0)scale(0.996264)"/>
       <use xlink:href="#CMR17-34" transform="translate(72.787654 0)scale(0.996264)"/>
      </g>
     </g>
    </g>
    <g id="xtick_4">
     <g id="line2d_4">
      <path d="M 290.586845 293.679964 
L 290.586845 28.645876 
" clip-path="url(#p0825066b8e)" style="fill: none; stroke: #cccccc; stroke-linecap: round"/>
     </g>
     <g id="text_4">
      <!-- $\mathdefault{0.6}$ -->
      <g style="fill: #262626" transform="translate(282.484789 312.173992)scale(0.13 -0.13)">
       <defs>
        <path id="CMR17-36" d="M 678 2176 
C 678 3690 1395 4032 1811 4032 
C 1946 4032 2272 4009 2400 3776 
C 2298 3776 2106 3776 2106 3553 
C 2106 3381 2246 3323 2336 3323 
C 2394 3323 2566 3348 2566 3560 
C 2566 3954 2246 4179 1805 4179 
C 1043 4179 243 3390 243 1984 
C 243 253 966 -128 1478 -128 
C 2099 -128 2688 427 2688 1283 
C 2688 2081 2170 2662 1517 2662 
C 1126 2662 838 2407 678 1960 
L 678 2176 
z
M 1478 25 
C 691 25 691 1200 691 1436 
C 691 1896 909 2560 1504 2560 
C 1613 2560 1926 2560 2138 2120 
C 2253 1870 2253 1609 2253 1289 
C 2253 944 2253 690 2118 434 
C 1978 171 1773 25 1478 25 
z
" transform="scale(0.015625)"/>
       </defs>
       <use xlink:href="#CMR17-30" transform="scale(0.996264)"/>
       <use xlink:href="#CMMI12-3a" transform="translate(45.690477 0)scale(0.996264)"/>
       <use xlink:href="#CMR17-36" transform="translate(72.787654 0)scale(0.996264)"/>
      </g>
     </g>
    </g>
    <g id="xtick_5">
     <g id="line2d_5">
      <path d="M 360.554878 293.679964 
L 360.554878 28.645876 
" clip-path="url(#p0825066b8e)" style="fill: none; stroke: #cccccc; stroke-linecap: round"/>
     </g>
     <g id="text_5">
      <!-- $\mathdefault{0.8}$ -->
      <g style="fill: #262626" transform="translate(352.452822 312.173992)scale(0.13 -0.13)">
       <defs>
        <path id="CMR17-38" d="M 1741 2264 
C 2144 2467 2554 2773 2554 3263 
C 2554 3841 1990 4179 1472 4179 
C 890 4179 378 3759 378 3180 
C 378 3021 416 2747 666 2505 
C 730 2442 998 2251 1171 2130 
C 883 1983 211 1634 211 934 
C 211 279 838 -128 1459 -128 
C 2144 -128 2720 362 2720 1010 
C 2720 1590 2330 1857 2074 2029 
L 1741 2264 
z
M 902 2822 
C 851 2854 595 3051 595 3351 
C 595 3739 998 4032 1459 4032 
C 1965 4032 2336 3676 2336 3262 
C 2336 2669 1670 2331 1638 2331 
C 1632 2331 1626 2331 1574 2370 
L 902 2822 
z
M 2080 1519 
C 2176 1449 2483 1240 2483 851 
C 2483 381 2010 25 1472 25 
C 890 25 448 438 448 940 
C 448 1443 838 1862 1280 2060 
L 2080 1519 
z
" transform="scale(0.015625)"/>
       </defs>
       <use xlink:href="#CMR17-30" transform="scale(0.996264)"/>
       <use xlink:href="#CMMI12-3a" transform="translate(45.690477 0)scale(0.996264)"/>
       <use xlink:href="#CMR17-38" transform="translate(72.787654 0)scale(0.996264)"/>
      </g>
     </g>
    </g>
    <g id="xtick_6">
     <g id="line2d_6">
      <path d="M 430.522912 293.679964 
L 430.522912 28.645876 
" clip-path="url(#p0825066b8e)" style="fill: none; stroke: #cccccc; stroke-linecap: round"/>
     </g>
     <g id="text_6">
      <!-- $\mathdefault{1.0}$ -->
      <g style="fill: #262626" transform="translate(422.420856 312.173992)scale(0.13 -0.13)">
       <defs>
        <path id="CMR17-31" d="M 1702 4058 
C 1702 4192 1696 4192 1606 4192 
C 1357 3916 979 3827 621 3827 
C 602 3827 570 3827 563 3808 
C 557 3795 557 3782 557 3648 
C 755 3648 1088 3686 1344 3839 
L 1344 461 
C 1344 236 1331 160 781 160 
L 589 160 
L 589 0 
C 896 0 1216 0 1523 0 
C 1830 0 2150 0 2458 0 
L 2458 160 
L 2266 160 
C 1715 160 1702 230 1702 458 
L 1702 4058 
z
" transform="scale(0.015625)"/>
       </defs>
       <use xlink:href="#CMR17-31" transform="scale(0.996264)"/>
       <use xlink:href="#CMMI12-3a" transform="translate(45.690477 0)scale(0.996264)"/>
       <use xlink:href="#CMR17-30" transform="translate(72.787654 0)scale(0.996264)"/>
      </g>
     </g>
    </g>
    <g id="text_7">
     <!-- Timesteps (1e6) -->
     <g style="fill: #262626" transform="translate(210.964345 329.153076)scale(0.14 -0.14)">
      <defs>
       <path id="CMSS17-54" d="M 2317 3968 
L 2848 3968 
C 2925 3968 3002 3968 3078 3968 
L 3878 3968 
L 3878 4376 
L 218 4376 
L 218 3968 
L 1018 3968 
C 1094 3968 1171 3968 1248 3968 
L 1779 3968 
L 1779 -32 
L 2317 -32 
L 2317 3968 
z
" transform="scale(0.015625)"/>
       <path id="CMSS17-69" d="M 979 4183 
L 442 4183 
L 442 3648 
L 979 3648 
L 979 4183 
z
M 947 2739 
L 474 2739 
L 474 0 
L 947 0 
L 947 2739 
z
" transform="scale(0.015625)"/>
       <path id="CMSS17-6d" d="M 4288 1877 
C 4288 2308 4179 2816 3462 2816 
C 2982 2816 2694 2516 2566 2331 
C 2451 2670 2182 2816 1798 2816 
C 1363 2816 1088 2568 941 2389 
L 941 2758 
L 474 2758 
L 474 0 
L 960 0 
L 960 1559 
C 960 1939 1101 2428 1555 2428 
C 2138 2428 2138 2016 2138 1829 
L 2138 0 
L 2624 0 
L 2624 1559 
C 2624 1939 2765 2428 3219 2428 
C 3802 2428 3802 2016 3802 1829 
L 3802 0 
L 4288 0 
L 4288 1877 
z
" transform="scale(0.015625)"/>
       <path id="CMSS17-65" d="M 2502 1377 
C 2502 1590 2490 2003 2285 2345 
C 2061 2713 1696 2816 1421 2816 
C 755 2816 192 2188 192 1375 
C 192 582 774 -64 1510 -64 
C 1798 -64 2150 19 2470 248 
C 2470 274 2458 414 2451 420 
C 2451 433 2432 630 2432 656 
C 2125 407 1773 325 1517 325 
C 1107 325 666 667 646 1377 
L 2502 1377 
z
M 698 1728 
C 781 2084 1062 2421 1421 2421 
C 1517 2421 1965 2421 2080 1728 
L 698 1728 
z
" transform="scale(0.015625)"/>
       <path id="CMSS17-73" d="M 2061 2627 
C 1683 2807 1389 2807 1197 2807 
C 742 2807 198 2648 198 2003 
C 198 1359 902 1218 1094 1179 
C 1389 1122 1715 1058 1715 740 
C 1715 337 1254 337 1171 337 
C 915 337 563 407 243 638 
L 166 210 
C 531 0 883 -64 1178 -64 
C 1965 -64 2163 416 2163 781 
C 2163 1094 1984 1305 1862 1401 
C 1651 1568 1574 1587 1050 1696 
C 960 1709 646 1779 646 2066 
C 646 2432 1050 2432 1139 2432 
C 1555 2432 1811 2303 1984 2208 
L 2061 2627 
z
" transform="scale(0.015625)"/>
       <path id="CMSS17-74" d="M 1069 2368 
L 1901 2368 
L 1901 2737 
L 1069 2737 
L 1069 3520 
L 614 3520 
L 614 2737 
L 109 2737 
L 109 2368 
L 602 2368 
L 602 749 
C 602 384 685 -64 1107 -64 
C 1427 -64 1722 25 2003 172 
L 1901 548 
C 1747 414 1562 337 1363 337 
C 1082 337 1069 696 1069 856 
L 1069 2368 
z
" transform="scale(0.015625)"/>
       <path id="CMSS17-70" d="M 966 333 
C 1178 129 1466 -5 1773 -5 
C 2368 -5 2880 603 2880 1412 
C 2880 2159 2496 2816 1946 2816 
C 1626 2816 1242 2702 954 2472 
L 954 2765 
L 480 2765 
L 480 -1216 
L 966 -1216 
L 966 333 
z
M 966 2100 
C 1018 2176 1235 2415 1587 2415 
C 2035 2415 2394 1960 2394 1412 
C 2394 787 1958 384 1530 384 
C 1402 384 1267 415 1139 523 
C 966 674 966 768 966 857 
L 966 2100 
z
" transform="scale(0.015625)"/>
       <path id="CMSS17-28" d="M 1613 4768 
C 1267 4417 474 3601 474 1588 
C 474 -433 1267 -1243 1613 -1600 
L 2003 -1600 
C 1216 -784 960 357 960 1581 
C 960 2798 1203 3946 2003 4768 
L 1613 4768 
z
" transform="scale(0.015625)"/>
       <path id="CMSS17-31" d="M 1818 4288 
L 1696 4288 
C 1350 3940 947 3890 538 3890 
L 538 3520 
C 723 3520 1024 3520 1325 3667 
L 1325 369 
L 570 369 
L 570 0 
L 2573 0 
L 2573 369 
L 1818 369 
L 1818 4288 
z
" transform="scale(0.015625)"/>
       <path id="CMSS17-36" d="M 2496 4101 
C 2227 4210 2035 4229 1856 4229 
C 1024 4229 250 3368 250 2006 
C 250 265 986 -128 1510 -128 
C 1798 -128 2086 -39 2362 280 
C 2643 617 2752 898 2752 1389 
C 2752 2179 2362 2880 1779 2880 
C 1357 2880 992 2657 768 2376 
C 832 3258 1254 3840 1862 3840 
C 2029 3840 2246 3816 2496 3710 
L 2496 4101 
z
M 774 1369 
C 774 1420 774 1452 781 1548 
C 781 2045 1069 2491 1536 2491 
C 1837 2491 1990 2332 2106 2135 
C 2240 1886 2246 1650 2246 1388 
C 2246 1140 2246 891 2099 637 
C 1978 439 1818 267 1510 267 
C 902 267 800 1114 774 1369 
z
" transform="scale(0.015625)"/>
       <path id="CMSS17-29" d="M 723 -1600 
C 1069 -1249 1862 -433 1862 1581 
C 1862 3601 1069 4411 723 4768 
L 333 4768 
C 1120 3952 1376 2811 1376 1588 
C 1376 370 1133 -778 333 -1600 
L 723 -1600 
z
" transform="scale(0.015625)"/>
      </defs>
      <use xlink:href="#CMSS17-54" transform="scale(0.996264)"/>
      <use xlink:href="#CMSS17-69" transform="translate(63.819454 0)scale(0.996264)"/>
      <use xlink:href="#CMSS17-6d" transform="translate(86.000177 0)scale(0.996264)"/>
      <use xlink:href="#CMSS17-65" transform="translate(160.229431 0)scale(0.996264)"/>
      <use xlink:href="#CMSS17-73" transform="translate(201.868253 0)scale(0.996264)"/>
      <use xlink:href="#CMSS17-74" transform="translate(237.781795 0)scale(0.996264)"/>
      <use xlink:href="#CMSS17-65" transform="translate(271.613362 0)scale(0.996264)"/>
      <use xlink:href="#CMSS17-70" transform="translate(313.252184 0)scale(0.996264)"/>
      <use xlink:href="#CMSS17-73" transform="translate(361.457127 0)scale(0.996264)"/>
      <use xlink:href="#CMSS17-28" transform="translate(428.599782 0)scale(0.996264)"/>
      <use xlink:href="#CMSS17-31" transform="translate(465.033696 0)scale(0.996264)"/>
      <use xlink:href="#CMSS17-65" transform="translate(511.87732 0)scale(0.996264)"/>
      <use xlink:href="#CMSS17-36" transform="translate(553.516142 0)scale(0.996264)"/>
      <use xlink:href="#CMSS17-29" transform="translate(600.359765 0)scale(0.996264)"/>
     </g>
    </g>
   </g>
   <g id="matplotlib.axis_2">
    <g id="ytick_1">
     <g id="line2d_7">
      <path d="M 66.864057 268.172479 
L 447.84 268.172479 
" clip-path="url(#p0825066b8e)" style="fill: none; stroke: #cccccc; stroke-linecap: round"/>
     </g>
     <g id="text_8">
      <!-- $\mathdefault{−0.05}$ -->
      <g style="fill: #262626" transform="translate(29.357905 271.977653)scale(0.11 -0.11)">
       <defs>
        <path id="CMSY10-0" d="M 4218 1472 
C 4326 1472 4442 1472 4442 1600 
C 4442 1728 4326 1728 4218 1728 
L 755 1728 
C 646 1728 531 1728 531 1600 
C 531 1472 646 1472 755 1472 
L 4218 1472 
z
" transform="scale(0.015625)"/>
        <path id="CMR17-35" d="M 730 3692 
C 794 3666 1056 3584 1325 3584 
C 1920 3584 2246 3911 2432 4100 
C 2432 4157 2432 4192 2394 4192 
C 2387 4192 2374 4192 2323 4163 
C 2099 4058 1837 3973 1517 3973 
C 1325 3973 1037 3999 723 4139 
C 653 4171 640 4171 634 4171 
C 602 4171 595 4164 595 4037 
L 595 2203 
C 595 2089 595 2057 659 2057 
C 691 2057 704 2070 736 2114 
C 941 2401 1222 2522 1542 2522 
C 1766 2522 2246 2382 2246 1289 
C 2246 1085 2246 715 2054 421 
C 1894 159 1645 25 1370 25 
C 947 25 518 320 403 814 
C 429 807 480 795 506 795 
C 589 795 749 840 749 1038 
C 749 1210 627 1280 506 1280 
C 358 1280 262 1190 262 1011 
C 262 454 704 -128 1382 -128 
C 2042 -128 2669 440 2669 1264 
C 2669 2030 2170 2624 1549 2624 
C 1222 2624 947 2503 730 2274 
L 730 3692 
z
" transform="scale(0.015625)"/>
       </defs>
       <use xlink:href="#CMSY10-0" transform="scale(0.996264)"/>
       <use xlink:href="#CMR17-30" transform="translate(77.487468 0)scale(0.996264)"/>
       <use xlink:href="#CMMI12-3a" transform="translate(123.177945 0)scale(0.996264)"/>
       <use xlink:href="#CMR17-30" transform="translate(150.275122 0)scale(0.996264)"/>
       <use xlink:href="#CMR17-35" transform="translate(195.965599 0)scale(0.996264)"/>
      </g>
     </g>
    </g>
    <g id="ytick_2">
     <g id="line2d_8">
      <path d="M 66.864057 217.121081 
L 447.84 217.121081 
" clip-path="url(#p0825066b8e)" style="fill: none; stroke: #cccccc; stroke-linecap: round"/>
     </g>
     <g id="text_9">
      <!-- $\mathdefault{0.00}$ -->
      <g style="fill: #262626" transform="translate(37.881514 220.926254)scale(0.11 -0.11)">
       <use xlink:href="#CMR17-30" transform="scale(0.996264)"/>
       <use xlink:href="#CMMI12-3a" transform="translate(45.690477 0)scale(0.996264)"/>
       <use xlink:href="#CMR17-30" transform="translate(72.787654 0)scale(0.996264)"/>
       <use xlink:href="#CMR17-30" transform="translate(118.478131 0)scale(0.996264)"/>
      </g>
     </g>
    </g>
    <g id="ytick_3">
     <g id="line2d_9">
      <path d="M 66.864057 166.069682 
L 447.84 166.069682 
" clip-path="url(#p0825066b8e)" style="fill: none; stroke: #cccccc; stroke-linecap: round"/>
     </g>
     <g id="text_10">
      <!-- $\mathdefault{0.05}$ -->
      <g style="fill: #262626" transform="translate(37.881514 169.874856)scale(0.11 -0.11)">
       <use xlink:href="#CMR17-30" transform="scale(0.996264)"/>
       <use xlink:href="#CMMI12-3a" transform="translate(45.690477 0)scale(0.996264)"/>
       <use xlink:href="#CMR17-30" transform="translate(72.787654 0)scale(0.996264)"/>
       <use xlink:href="#CMR17-35" transform="translate(118.478131 0)scale(0.996264)"/>
      </g>
     </g>
    </g>
    <g id="ytick_4">
     <g id="line2d_10">
      <path d="M 66.864057 115.018284 
L 447.84 115.018284 
" clip-path="url(#p0825066b8e)" style="fill: none; stroke: #cccccc; stroke-linecap: round"/>
     </g>
     <g id="text_11">
      <!-- $\mathdefault{0.10}$ -->
      <g style="fill: #262626" transform="translate(37.881514 118.823457)scale(0.11 -0.11)">
       <use xlink:href="#CMR17-30" transform="scale(0.996264)"/>
       <use xlink:href="#CMMI12-3a" transform="translate(45.690477 0)scale(0.996264)"/>
       <use xlink:href="#CMR17-31" transform="translate(72.787654 0)scale(0.996264)"/>
       <use xlink:href="#CMR17-30" transform="translate(118.478131 0)scale(0.996264)"/>
      </g>
     </g>
    </g>
    <g id="ytick_5">
     <g id="line2d_11">
      <path d="M 66.864057 63.966885 
L 447.84 63.966885 
" clip-path="url(#p0825066b8e)" style="fill: none; stroke: #cccccc; stroke-linecap: round"/>
     </g>
     <g id="text_12">
      <!-- $\mathdefault{0.15}$ -->
      <g style="fill: #262626" transform="translate(37.881514 67.772058)scale(0.11 -0.11)">
       <use xlink:href="#CMR17-30" transform="scale(0.996264)"/>
       <use xlink:href="#CMMI12-3a" transform="translate(45.690477 0)scale(0.996264)"/>
       <use xlink:href="#CMR17-31" transform="translate(72.787654 0)scale(0.996264)"/>
       <use xlink:href="#CMR17-35" transform="translate(118.478131 0)scale(0.996264)"/>
      </g>
     </g>
    </g>
    <g id="text_13">
     <!-- Score -->
     <g style="fill: #262626" transform="translate(22.645876 176.571409)rotate(-90)scale(0.14 -0.14)">
      <defs>
       <path id="CMSS17-53" d="M 2797 4169 
C 2515 4334 2208 4480 1690 4480 
C 864 4480 333 3879 333 3266 
C 333 3025 403 2753 653 2475 
C 902 2196 1184 2121 1542 2033 
C 1690 1994 1939 1924 1984 1906 
C 2342 1767 2515 1444 2515 1140 
C 2515 742 2202 318 1645 318 
C 1453 318 890 318 358 819 
L 269 318 
C 794 -64 1363 -128 1651 -128 
C 2438 -128 3002 488 3002 1186 
C 3002 1440 2925 1763 2656 2061 
C 2394 2347 2163 2410 1638 2549 
C 1338 2626 1146 2677 986 2873 
C 877 3013 819 3146 819 3317 
C 819 3673 1126 4060 1690 4060 
C 1971 4060 2336 4002 2707 3660 
L 2797 4169 
z
" transform="scale(0.015625)"/>
       <path id="CMSS17-63" d="M 2464 2541 
C 2464 2585 2170 2714 2093 2739 
C 1882 2816 1613 2816 1542 2816 
C 710 2816 211 2093 211 1363 
C 211 595 768 -64 1517 -64 
C 1946 -64 2253 76 2502 242 
L 2464 664 
C 2189 453 1869 337 1523 337 
C 1024 337 698 774 698 1369 
C 698 1831 909 2414 1549 2414 
C 1901 2414 2099 2343 2394 2145 
L 2464 2541 
z
" transform="scale(0.015625)"/>
       <path id="CMSS17-6f" d="M 2829 1356 
C 2829 2176 2221 2816 1504 2816 
C 768 2816 173 2157 173 1356 
C 173 544 787 -64 1498 -64 
C 2227 -64 2829 563 2829 1356 
z
M 1504 337 
C 1050 337 659 709 659 1408 
C 659 2151 1114 2427 1498 2427 
C 1914 2427 2342 2126 2342 1408 
C 2342 683 1926 337 1504 337 
z
" transform="scale(0.015625)"/>
       <path id="CMSS17-72" d="M 954 1363 
C 954 1965 1395 2368 1958 2368 
L 1958 2789 
C 1549 2789 1165 2585 934 2253 
L 934 2758 
L 480 2758 
L 480 0 
L 954 0 
L 954 1363 
z
" transform="scale(0.015625)"/>
      </defs>
      <use xlink:href="#CMSS17-53" transform="scale(0.996264)"/>
      <use xlink:href="#CMSS17-63" transform="translate(52.048516 0)scale(0.996264)"/>
      <use xlink:href="#CMSS17-6f" transform="translate(93.687338 0)scale(0.996264)"/>
      <use xlink:href="#CMSS17-72" transform="translate(137.928508 0)scale(0.996264)"/>
      <use xlink:href="#CMSS17-65" transform="translate(169.83828 0)scale(0.996264)"/>
     </g>
    </g>
   </g>
   <g id="PolyCollection_1">
    <defs>
     <path id="m20a95aaab8" d="M 84.181146 -107.387237 
L 84.181146 -136.393974 
L 87.679547 -211.74536 
L 91.177949 -216.902173 
L 94.676351 -264.53946 
L 98.174752 -258.143715 
L 101.673154 -298.944953 
L 105.171556 -260.803621 
L 108.669957 -253.050988 
L 112.168359 -260.290248 
L 115.666761 -269.309617 
L 119.165162 -265.645946 
L 122.663564 -269.202866 
L 126.161966 -278.494791 
L 129.660367 -245.884899 
L 133.158769 -277.155674 
L 136.657171 -275.463521 
L 140.155572 -249.047426 
L 143.653974 -249.815448 
L 147.152376 -272.518151 
L 150.650777 -294.826752 
L 154.149179 -256.912108 
L 157.647581 -258.445744 
L 161.145983 -277.384267 
L 164.644384 -287.313349 
L 168.142786 -296.19511 
L 171.641188 -294.674957 
L 175.139589 -266.389339 
L 178.637991 -259.371201 
L 182.136393 -265.468296 
L 185.634794 -283.184809 
L 189.133196 -304.90712 
L 192.631598 -268.357472 
L 196.129999 -267.390293 
L 199.628401 -256.096669 
L 203.126803 -273.718191 
L 206.625204 -280.79948 
L 210.123606 -260.733491 
L 213.622008 -278.78524 
L 217.120409 -284.93529 
L 220.618811 -271.614238 
L 224.117213 -278.857651 
L 227.615614 -265.735547 
L 231.114016 -274.707475 
L 234.612418 -276.436159 
L 238.110819 -256.778056 
L 241.609221 -255.468882 
L 245.107623 -268.205842 
L 248.606024 -285.634821 
L 252.104426 -258.323279 
L 255.602828 -287.493281 
L 259.101229 -270.872706 
L 262.599631 -290.971267 
L 266.098033 -282.337502 
L 269.596435 -281.850785 
L 273.094836 -250.777354 
L 276.593238 -257.431919 
L 280.09164 -261.905885 
L 283.590041 -264.138569 
L 287.088443 -232.872341 
L 290.586845 -275.766851 
L 294.085246 -301.952538 
L 297.583648 -284.430523 
L 301.08205 -284.1462 
L 304.580451 -271.498905 
L 308.078853 -276.807273 
L 311.577255 -277.664226 
L 315.075656 -269.402409 
L 318.574058 -249.248328 
L 322.07246 -267.442031 
L 325.570861 -270.301459 
L 329.069263 -265.706677 
L 332.567665 -238.877372 
L 336.066066 -235.501502 
L 339.564468 -277.044692 
L 343.06287 -248.359317 
L 346.561271 -251.149452 
L 350.059673 -261.103224 
L 353.558075 -274.019436 
L 357.056476 -259.668719 
L 360.554878 -262.309179 
L 364.05328 -260.535887 
L 367.551681 -286.56942 
L 371.050083 -245.106256 
L 374.548485 -261.581645 
L 378.046887 -269.294274 
L 381.545288 -210.775704 
L 385.04369 -229.173631 
L 388.542092 -232.9338 
L 392.040493 -237.216207 
L 395.538895 -233.665905 
L 399.037297 -241.859008 
L 402.535698 -250.57098 
L 406.0341 -259.881962 
L 409.532502 -254.751763 
L 413.030903 -224.654908 
L 416.529305 -253.367873 
L 420.027707 -251.308615 
L 423.526108 -262.52645 
L 427.02451 -265.233369 
L 430.522912 -242.987788 
L 430.522912 -214.917144 
L 430.522912 -214.917144 
L 427.02451 -227.566019 
L 423.526108 -215.502045 
L 420.027707 -209.263651 
L 416.529305 -224.752621 
L 413.030903 -198.685572 
L 409.532502 -206.535141 
L 406.0341 -246.24519 
L 402.535698 -228.539984 
L 399.037297 -223.684716 
L 395.538895 -211.094869 
L 392.040493 -206.325696 
L 388.542092 -211.764274 
L 385.04369 -199.063038 
L 381.545288 -193.373976 
L 378.046887 -254.0755 
L 374.548485 -231.162812 
L 371.050083 -230.369367 
L 367.551681 -269.228276 
L 364.05328 -235.242975 
L 360.554878 -248.997035 
L 357.056476 -216.846106 
L 353.558075 -237.878428 
L 350.059673 -220.4965 
L 346.561271 -234.87883 
L 343.06287 -220.124633 
L 339.564468 -246.899374 
L 336.066066 -208.373583 
L 332.567665 -217.926974 
L 329.069263 -254.765134 
L 325.570861 -247.71371 
L 322.07246 -235.69565 
L 318.574058 -205.940678 
L 315.075656 -238.732697 
L 311.577255 -248.305992 
L 308.078853 -252.258848 
L 304.580451 -231.014878 
L 301.08205 -232.100663 
L 297.583648 -247.008501 
L 294.085246 -282.33852 
L 290.586845 -250.041751 
L 287.088443 -215.362501 
L 283.590041 -218.915614 
L 280.09164 -250.109274 
L 276.593238 -238.68826 
L 273.094836 -229.697696 
L 269.596435 -253.542222 
L 266.098033 -266.406826 
L 262.599631 -248.070911 
L 259.101229 -253.94652 
L 255.602828 -269.715362 
L 252.104426 -245.827122 
L 248.606024 -249.855993 
L 245.107623 -256.909669 
L 241.609221 -232.371888 
L 238.110819 -218.623824 
L 234.612418 -252.764257 
L 231.114016 -236.258957 
L 227.615614 -249.639897 
L 224.117213 -251.491331 
L 220.618811 -247.820829 
L 217.120409 -259.773495 
L 213.622008 -256.844858 
L 210.123606 -249.830747 
L 206.625204 -249.061353 
L 203.126803 -236.224085 
L 199.628401 -223.417912 
L 196.129999 -244.222263 
L 192.631598 -243.008706 
L 189.133196 -279.231397 
L 185.634794 -262.861784 
L 182.136393 -241.192478 
L 178.637991 -215.6582 
L 175.139589 -226.392928 
L 171.641188 -274.306408 
L 168.142786 -261.183775 
L 164.644384 -236.073235 
L 161.145983 -245.619399 
L 157.647581 -230.813986 
L 154.149179 -233.213592 
L 150.650777 -266.939612 
L 147.152376 -246.763689 
L 143.653974 -229.46936 
L 140.155572 -226.760316 
L 136.657171 -244.133645 
L 133.158769 -238.904863 
L 129.660367 -198.125345 
L 126.161966 -247.621622 
L 122.663564 -254.292691 
L 119.165162 -243.296147 
L 115.666761 -254.929281 
L 112.168359 -246.79819 
L 108.669957 -230.540264 
L 105.171556 -231.376771 
L 101.673154 -253.535987 
L 98.174752 -241.545856 
L 94.676351 -222.058825 
L 91.177949 -201.044609 
L 87.679547 -191.145009 
L 84.181146 -107.387237 
z
" style="stroke: #ffffff; stroke-opacity: 0.5"/>
    </defs>
    <g clip-path="url(#p0825066b8e)">
     <use xlink:href="#m20a95aaab8" x="0" y="345.6" style="fill: #4c72b0; fill-opacity: 0.5; stroke: #ffffff; stroke-opacity: 0.5"/>
    </g>
   </g>
   <g id="PolyCollection_2">
    <defs>
     <path id="m5f81c556f0" d="M 84.181146 -69.007168 
L 84.181146 -100.837185 
L 87.679547 -96.466549 
L 91.177949 -92.757161 
L 94.676351 -102.186467 
L 98.174752 -116.080176 
L 101.673154 -121.16772 
L 105.171556 -93.740469 
L 108.669957 -116.69926 
L 112.168359 -109.417166 
L 115.666761 -115.206496 
L 119.165162 -117.879835 
L 122.663564 -122.91359 
L 126.161966 -114.990106 
L 129.660367 -94.64828 
L 133.158769 -84.451829 
L 136.657171 -102.804678 
L 140.155572 -99.868587 
L 143.653974 -103.867563 
L 147.152376 -127.470433 
L 150.650777 -119.96901 
L 154.149179 -125.360942 
L 157.647581 -151.038282 
L 161.145983 -149.756826 
L 164.644384 -205.892703 
L 168.142786 -229.565757 
L 171.641188 -237.459722 
L 175.139589 -221.88784 
L 178.637991 -255.258136 
L 182.136393 -250.707057 
L 185.634794 -244.517356 
L 189.133196 -270.981082 
L 192.631598 -271.522238 
L 196.129999 -261.137016 
L 199.628401 -256.518039 
L 203.126803 -244.393245 
L 206.625204 -299.137778 
L 210.123606 -249.831523 
L 213.622008 -259.124525 
L 217.120409 -248.942013 
L 220.618811 -273.754298 
L 224.117213 -273.09565 
L 227.615614 -251.268114 
L 231.114016 -223.755928 
L 234.612418 -264.083563 
L 238.110819 -271.246086 
L 241.609221 -257.90609 
L 245.107623 -254.905119 
L 248.606024 -262.927084 
L 252.104426 -256.892841 
L 255.602828 -250.951053 
L 259.101229 -263.346723 
L 262.599631 -248.917874 
L 266.098033 -271.831216 
L 269.596435 -270.292201 
L 273.094836 -263.126074 
L 276.593238 -278.316603 
L 280.09164 -251.078488 
L 283.590041 -247.383867 
L 287.088443 -259.453369 
L 290.586845 -255.574551 
L 294.085246 -233.428659 
L 297.583648 -279.698946 
L 301.08205 -237.350665 
L 304.580451 -270.037717 
L 308.078853 -275.82735 
L 311.577255 -290.679675 
L 315.075656 -256.706867 
L 318.574058 -256.166745 
L 322.07246 -272.879706 
L 325.570861 -256.317508 
L 329.069263 -243.307315 
L 332.567665 -273.292947 
L 336.066066 -252.620189 
L 339.564468 -267.103262 
L 343.06287 -255.489051 
L 346.561271 -262.892857 
L 350.059673 -255.239654 
L 353.558075 -262.736278 
L 357.056476 -242.224297 
L 360.554878 -258.077591 
L 364.05328 -239.592146 
L 367.551681 -255.871348 
L 371.050083 -251.58571 
L 374.548485 -266.200446 
L 378.046887 -255.94891 
L 381.545288 -256.870998 
L 385.04369 -269.329985 
L 388.542092 -261.44656 
L 392.040493 -244.592913 
L 395.538895 -263.669004 
L 399.037297 -277.282646 
L 402.535698 -285.124702 
L 406.0341 -274.624328 
L 409.532502 -263.12017 
L 413.030903 -284.045583 
L 416.529305 -253.880616 
L 420.027707 -270.888762 
L 423.526108 -253.947534 
L 427.02451 -259.787671 
L 430.522912 -273.015612 
L 430.522912 -248.551509 
L 430.522912 -248.551509 
L 427.02451 -234.390382 
L 423.526108 -239.665173 
L 420.027707 -232.602978 
L 416.529305 -231.285248 
L 413.030903 -252.010096 
L 409.532502 -237.655897 
L 406.0341 -242.296143 
L 402.535698 -265.380467 
L 399.037297 -249.464795 
L 395.538895 -231.384773 
L 392.040493 -224.828079 
L 388.542092 -239.010913 
L 385.04369 -247.144665 
L 381.545288 -226.598874 
L 378.046887 -231.076018 
L 374.548485 -242.608873 
L 371.050083 -205.70146 
L 367.551681 -224.230806 
L 364.05328 -209.707472 
L 360.554878 -227.886349 
L 357.056476 -211.327544 
L 353.558075 -241.118923 
L 350.059673 -220.979449 
L 346.561271 -216.965467 
L 343.06287 -239.731022 
L 339.564468 -238.548834 
L 336.066066 -224.917167 
L 332.567665 -243.443111 
L 329.069263 -226.464919 
L 325.570861 -217.717281 
L 322.07246 -235.656157 
L 318.574058 -222.656306 
L 315.075656 -245.220324 
L 311.577255 -245.02785 
L 308.078853 -245.29065 
L 304.580451 -235.090134 
L 301.08205 -216.648222 
L 297.583648 -249.392449 
L 294.085246 -191.424103 
L 290.586845 -221.680952 
L 287.088443 -214.360168 
L 283.590041 -218.893878 
L 280.09164 -212.909165 
L 276.593238 -250.495798 
L 273.094836 -244.502324 
L 269.596435 -242.622908 
L 266.098033 -250.998908 
L 262.599631 -214.237143 
L 259.101229 -226.278207 
L 255.602828 -237.472274 
L 252.104426 -218.281391 
L 248.606024 -214.746763 
L 245.107623 -210.310463 
L 241.609221 -230.84877 
L 238.110819 -248.669714 
L 234.612418 -239.553824 
L 231.114016 -195.007472 
L 227.615614 -230.722598 
L 224.117213 -249.931647 
L 220.618811 -243.723304 
L 217.120409 -212.915825 
L 213.622008 -218.970753 
L 210.123606 -213.096989 
L 206.625204 -255.878195 
L 203.126803 -216.288058 
L 199.628401 -218.147885 
L 196.129999 -233.027168 
L 192.631598 -241.594128 
L 189.133196 -245.864193 
L 185.634794 -213.451917 
L 182.136393 -231.881055 
L 178.637991 -225.587988 
L 175.139589 -202.466277 
L 171.641188 -211.099096 
L 168.142786 -213.686321 
L 164.644384 -173.956625 
L 161.145983 -143.896292 
L 157.647581 -120.808709 
L 154.149179 -96.01778 
L 150.650777 -82.61998 
L 147.152376 -93.34059 
L 143.653974 -81.683002 
L 140.155572 -63.96704 
L 136.657171 -83.666249 
L 133.158769 -66.303148 
L 129.660367 -67.490653 
L 126.161966 -84.624253 
L 122.663564 -83.056521 
L 119.165162 -103.742594 
L 115.666761 -83.831717 
L 112.168359 -82.02179 
L 108.669957 -97.258558 
L 105.171556 -85.038025 
L 101.673154 -90.236024 
L 98.174752 -80.290353 
L 94.676351 -75.660882 
L 91.177949 -66.4228 
L 87.679547 -66.722147 
L 84.181146 -69.007168 
z
" style="stroke: #ffffff; stroke-opacity: 0.5"/>
    </defs>
    <g clip-path="url(#p0825066b8e)">
     <use xlink:href="#m5f81c556f0" x="0" y="345.6" style="fill: #dd8452; fill-opacity: 0.5; stroke: #ffffff; stroke-opacity: 0.5"/>
    </g>
   </g>
   <g id="line2d_12">
    <path d="M 84.181146 223.709394 
L 87.679547 144.154816 
L 91.177949 136.626609 
L 94.676351 102.300858 
L 98.174752 95.755215 
L 101.673154 69.35953 
L 105.171556 99.509804 
L 108.669957 103.804374 
L 112.168359 92.055781 
L 115.666761 83.480551 
L 119.165162 91.128953 
L 122.663564 83.852222 
L 126.161966 82.541794 
L 129.660367 123.594878 
L 133.158769 87.569731 
L 136.657171 85.801417 
L 140.155572 107.696129 
L 143.653974 105.957596 
L 147.152376 85.95908 
L 150.650777 64.716818 
L 154.149179 100.53715 
L 157.647581 100.970135 
L 161.145983 84.098167 
L 164.644384 83.906708 
L 168.142786 66.910558 
L 171.641188 61.109318 
L 175.139589 99.208866 
L 178.637991 108.0853 
L 182.136393 92.269613 
L 185.634794 72.576703 
L 189.133196 53.530742 
L 192.631598 89.916911 
L 196.129999 89.793722 
L 199.628401 105.84271 
L 203.126803 90.628862 
L 206.625204 80.669584 
L 210.123606 90.317881 
L 213.622008 77.784951 
L 217.120409 73.245607 
L 220.618811 85.882466 
L 224.117213 80.425509 
L 227.615614 87.912278 
L 231.114016 90.116784 
L 234.612418 80.999792 
L 238.110819 107.89906 
L 241.609221 101.679615 
L 245.107623 83.042244 
L 248.606024 77.854593 
L 252.104426 93.524799 
L 255.602828 66.995679 
L 259.101229 83.190387 
L 262.599631 76.078911 
L 266.098033 71.227836 
L 269.596435 77.903496 
L 273.094836 105.362475 
L 276.593238 97.53991 
L 280.09164 89.592421 
L 283.590041 104.072909 
L 287.088443 121.482579 
L 290.586845 82.695699 
L 294.085246 53.454471 
L 297.583648 79.880488 
L 301.08205 87.476569 
L 304.580451 94.343108 
L 308.078853 81.066939 
L 311.577255 82.614891 
L 315.075656 91.532447 
L 318.574058 118.005497 
L 322.07246 94.03116 
L 325.570861 86.592416 
L 329.069263 85.364095 
L 332.567665 117.197827 
L 336.066066 123.662458 
L 339.564468 83.627967 
L 343.06287 111.358025 
L 346.561271 102.585859 
L 350.059673 104.800138 
L 353.558075 89.651068 
L 357.056476 107.342587 
L 360.554878 89.946893 
L 364.05328 97.710569 
L 367.551681 67.701152 
L 371.050083 107.862189 
L 374.548485 99.227772 
L 378.046887 83.915113 
L 381.545288 143.52516 
L 385.04369 131.481665 
L 388.542092 123.250963 
L 392.040493 123.829048 
L 395.538895 123.219613 
L 399.037297 112.828138 
L 402.535698 106.044518 
L 406.0341 92.536424 
L 409.532502 114.956548 
L 413.030903 133.92976 
L 416.529305 106.539753 
L 420.027707 115.313867 
L 423.526108 106.585753 
L 427.02451 99.200306 
L 430.522912 116.647534 
" clip-path="url(#p0825066b8e)" style="fill: none; stroke: #4c72b0; stroke-width: 3; stroke-linecap: round"/>
   </g>
   <g id="line2d_13">
    <path d="M 84.181146 260.677824 
L 87.679547 264.005652 
L 91.177949 266.01002 
L 94.676351 256.676325 
L 98.174752 247.414736 
L 101.673154 239.898128 
L 105.171556 256.210753 
L 108.669957 238.621091 
L 112.168359 249.880522 
L 115.666761 246.080893 
L 119.165162 234.788785 
L 122.663564 242.614944 
L 126.161966 245.79282 
L 129.660367 264.530534 
L 133.158769 270.222511 
L 136.657171 252.364536 
L 140.155572 263.682186 
L 143.653974 252.824718 
L 147.152376 235.194489 
L 150.650777 244.305505 
L 154.149179 234.910639 
L 157.647581 209.676504 
L 161.145983 198.773441 
L 164.644384 155.675336 
L 168.142786 123.973961 
L 171.641188 121.320591 
L 175.139589 133.422942 
L 178.637991 105.176938 
L 182.136393 104.305944 
L 185.634794 116.615363 
L 189.133196 87.177363 
L 192.631598 89.041817 
L 196.129999 98.517908 
L 199.628401 108.267038 
L 203.126803 115.259348 
L 206.625204 68.092014 
L 210.123606 114.135744 
L 213.622008 106.552361 
L 217.120409 114.671081 
L 220.618811 86.861199 
L 224.117213 84.086352 
L 227.615614 104.604644 
L 231.114016 136.2183 
L 234.612418 93.781306 
L 238.110819 85.6421 
L 241.609221 101.22257 
L 245.107623 112.992209 
L 248.606024 106.763076 
L 252.104426 108.012884 
L 255.602828 101.388336 
L 259.101229 100.787535 
L 262.599631 114.022491 
L 266.098033 84.184938 
L 269.596435 89.142445 
L 273.094836 91.785801 
L 276.593238 81.1938 
L 280.09164 113.606173 
L 283.590041 112.461127 
L 287.088443 108.693232 
L 290.586845 106.972248 
L 294.085246 133.173619 
L 297.583648 81.054303 
L 301.08205 118.600556 
L 304.580451 93.036074 
L 308.078853 85.041 
L 311.577255 77.746238 
L 315.075656 94.636405 
L 318.574058 106.188475 
L 322.07246 91.332068 
L 325.570861 108.582605 
L 329.069263 110.713883 
L 332.567665 87.231971 
L 336.066066 106.831322 
L 339.564468 92.773952 
L 343.06287 97.989963 
L 346.561271 105.670838 
L 350.059673 107.490449 
L 353.558075 93.672399 
L 357.056476 118.82408 
L 360.554878 102.61803 
L 364.05328 120.950191 
L 367.551681 105.548923 
L 371.050083 116.956415 
L 374.548485 91.19534 
L 378.046887 102.087536 
L 381.545288 103.865064 
L 385.04369 87.362675 
L 388.542092 95.371263 
L 392.040493 110.889504 
L 395.538895 98.073112 
L 399.037297 82.22628 
L 402.535698 70.347416 
L 406.0341 87.139764 
L 409.532502 95.211967 
L 413.030903 77.57216 
L 416.529305 103.017068 
L 420.027707 93.85413 
L 423.526108 98.793647 
L 427.02451 98.510973 
L 430.522912 84.81644 
" clip-path="url(#p0825066b8e)" style="fill: none; stroke: #dd8452; stroke-width: 3; stroke-linecap: round"/>
   </g>
   <g id="patch_3">
    <path d="M 66.864057 293.679964 
L 66.864057 28.645876 
" style="fill: none; stroke: #cccccc; stroke-width: 1.25; stroke-linejoin: miter; stroke-linecap: square"/>
   </g>
   <g id="patch_4">
    <path d="M 447.84 293.679964 
L 447.84 28.645876 
" style="fill: none; stroke: #cccccc; stroke-width: 1.25; stroke-linejoin: miter; stroke-linecap: square"/>
   </g>
   <g id="patch_5">
    <path d="M 66.864057 293.679964 
L 447.84 293.679964 
" style="fill: none; stroke: #cccccc; stroke-width: 1.25; stroke-linejoin: miter; stroke-linecap: square"/>
   </g>
   <g id="patch_6">
    <path d="M 66.864057 28.645876 
L 447.84 28.645876 
" style="fill: none; stroke: #cccccc; stroke-width: 1.25; stroke-linejoin: miter; stroke-linecap: square"/>
   </g>
   <g id="text_14">
    <!-- SmallSizeLeague-v2 -->
    <g style="fill: #262626" transform="translate(201.521545 22.645876)scale(0.14 -0.14)">
     <defs>
      <path id="CMSS17-61" d="M 2406 1791 
C 2406 2392 1978 2808 1402 2808 
C 1120 2808 813 2757 461 2553 
L 499 2135 
C 659 2248 934 2432 1395 2432 
C 1722 2432 1920 2180 1920 1782 
L 1920 1536 
C 896 1536 256 1238 256 726 
C 256 461 416 -64 947 -64 
C 1043 -64 1562 -64 1933 217 
L 1933 -19 
L 2406 -19 
L 2406 1791 
z
M 1920 816 
C 1920 701 1920 548 1728 434 
C 1562 325 1350 325 1261 325 
C 941 325 723 511 723 744 
C 723 1211 1722 1211 1920 1211 
L 1920 816 
z
" transform="scale(0.015625)"/>
      <path id="CMSS17-6c" d="M 947 4416 
L 474 4416 
L 474 0 
L 947 0 
L 947 4416 
z
" transform="scale(0.015625)"/>
      <path id="CMSS17-7a" d="M 2400 2502 
L 2400 2750 
L 250 2750 
L 250 2368 
L 1069 2368 
C 1146 2368 1222 2368 1299 2368 
L 1747 2368 
L 166 261 
L 166 0 
L 2419 0 
L 2419 395 
L 1549 395 
C 1472 395 1395 395 1318 395 
L 826 395 
L 2400 2502 
z
" transform="scale(0.015625)"/>
      <path id="CMSS17-4c" d="M 1670 414 
C 1594 414 1517 414 1440 414 
L 1101 414 
L 1101 4416 
L 563 4416 
L 563 0 
L 3002 0 
L 3002 414 
L 1670 414 
z
" transform="scale(0.015625)"/>
      <path id="CMSS17-67" d="M 2848 2808 
C 2483 2808 2170 2738 1914 2617 
C 1702 2777 1485 2808 1338 2808 
C 781 2808 358 2349 358 1814 
C 358 1468 550 1207 563 1195 
C 448 1035 384 863 384 672 
C 384 448 474 289 544 200 
C 211 -3 166 -314 166 -435 
C 166 -898 749 -1280 1498 -1280 
C 2253 -1280 2835 -898 2835 -428 
C 2835 448 1856 448 1587 448 
L 1069 448 
C 973 448 717 448 717 791 
C 717 921 774 1004 781 1010 
C 877 940 1075 832 1338 832 
C 1869 832 2310 1278 2310 1827 
C 2310 2132 2170 2355 2112 2432 
L 2131 2432 
C 2150 2432 2419 2432 2515 2432 
C 2720 2432 2739 2429 2918 2419 
L 2848 2808 
z
M 1338 1182 
C 1120 1182 813 1315 813 1823 
C 813 2375 1165 2464 1331 2464 
C 1549 2464 1856 2331 1856 1823 
C 1856 1271 1504 1182 1338 1182 
z
M 1581 -10 
C 1734 -10 2381 -10 2381 -442 
C 2381 -714 1984 -929 1504 -929 
C 1018 -929 621 -720 621 -435 
C 621 -403 621 -10 1062 -10 
L 1581 -10 
z
" transform="scale(0.015625)"/>
      <path id="CMSS17-75" d="M 2618 2739 
L 2131 2739 
L 2131 972 
C 2131 498 1786 306 1421 306 
C 998 306 960 447 960 709 
L 960 2739 
L 474 2739 
L 474 678 
C 474 179 646 -64 1088 -64 
C 1306 -64 1798 -13 2144 306 
L 2144 0 
L 2618 0 
L 2618 2739 
z
" transform="scale(0.015625)"/>
      <path id="CMSS17-2d" d="M 1664 1216 
L 1664 1585 
L 64 1585 
L 64 1216 
L 1664 1216 
z
" transform="scale(0.015625)"/>
      <path id="CMSS17-76" d="M 2675 2752 
L 2176 2752 
L 1747 1556 
C 1613 1165 1421 627 1389 352 
L 1382 352 
C 1370 468 1318 634 1286 749 
C 1248 890 1197 1056 1158 1172 
L 595 2752 
L 83 2752 
L 1094 0 
L 1664 0 
L 2675 2752 
z
" transform="scale(0.015625)"/>
      <path id="CMSS17-32" d="M 1651 1357 
C 1830 1541 2099 1764 2285 1987 
C 2464 2204 2701 2511 2701 2957 
C 2701 3657 2227 4288 1421 4288 
C 787 4288 422 3893 250 3274 
L 499 2929 
C 640 3510 838 3880 1338 3880 
C 1888 3880 2195 3433 2195 2942 
C 2195 2355 1747 1901 1408 1563 
C 1030 1187 659 804 301 408 
L 301 0 
L 2701 0 
L 2701 433 
L 1613 433 
C 1536 433 1459 433 1382 433 
L 742 433 
L 742 439 
L 1651 1357 
z
" transform="scale(0.015625)"/>
     </defs>
     <use xlink:href="#CMSS17-53" transform="scale(0.996264)"/>
     <use xlink:href="#CMSS17-6d" transform="translate(52.048516 0)scale(0.996264)"/>
     <use xlink:href="#CMSS17-61" transform="translate(126.277771 0)scale(0.996264)"/>
     <use xlink:href="#CMSS17-6c" transform="translate(171.199691 0)scale(0.996264)"/>
     <use xlink:href="#CMSS17-6c" transform="translate(193.380414 0)scale(0.996264)"/>
     <use xlink:href="#CMSS17-53" transform="translate(215.561137 0)scale(0.996264)"/>
     <use xlink:href="#CMSS17-69" transform="translate(267.609653 0)scale(0.996264)"/>
     <use xlink:href="#CMSS17-7a" transform="translate(289.790377 0)scale(0.996264)"/>
     <use xlink:href="#CMSS17-65" transform="translate(330.468248 0)scale(0.996264)"/>
     <use xlink:href="#CMSS17-4c" transform="translate(372.10707 0)scale(0.996264)"/>
     <use xlink:href="#CMSS17-65" transform="translate(422.794176 0)scale(0.996264)"/>
     <use xlink:href="#CMSS17-61" transform="translate(464.432998 0)scale(0.996264)"/>
     <use xlink:href="#CMSS17-67" transform="translate(509.354918 0)scale(0.996264)"/>
     <use xlink:href="#CMSS17-75" transform="translate(556.198542 0)scale(0.996264)"/>
     <use xlink:href="#CMSS17-65" transform="translate(604.403485 0)scale(0.996264)"/>
     <use xlink:href="#CMSS17-2d" transform="translate(646.042307 0)scale(0.996264)"/>
     <use xlink:href="#CMSS17-76" transform="translate(677.27142 0)scale(0.996264)"/>
     <use xlink:href="#CMSS17-32" transform="translate(720.271562 0)scale(0.996264)"/>
    </g>
   </g>
   <g id="legend_1">
    <g id="patch_7">
     <path d="M 365.796952 286.679964 
L 438.04 286.679964 
Q 440.84 286.679964 440.84 283.879964 
L 440.84 246.255907 
Q 440.84 243.455907 438.04 243.455907 
L 365.796952 243.455907 
Q 362.996952 243.455907 362.996952 246.255907 
L 362.996952 283.879964 
Q 362.996952 286.679964 365.796952 286.679964 
z
" style="fill: #ffffff; opacity: 0.8; stroke: #cccccc; stroke-linejoin: miter"/>
    </g>
    <g id="line2d_14">
     <path d="M 368.596952 253.955907 
L 382.596952 253.955907 
L 396.596952 253.955907 
" style="fill: none; stroke: #4c72b0; stroke-width: 3; stroke-linecap: round"/>
    </g>
    <g id="text_15">
     <!-- PPO -->
     <g style="fill: #262626" transform="translate(407.796952 258.855907)scale(0.14 -0.14)">
      <defs>
       <path id="CMSS17-50" d="M 2106 1856 
C 2874 1856 3501 2453 3501 3158 
C 3501 3850 2899 4453 2067 4453 
L 570 4453 
L 570 0 
L 1107 0 
L 1107 1856 
L 2106 1856 
z
M 1926 4096 
C 2669 4096 2995 3627 2995 3157 
C 2995 2720 2694 2226 1926 2226 
L 1094 2226 
L 1094 4096 
L 1926 4096 
z
" transform="scale(0.015625)"/>
       <path id="CMSS17-4f" d="M 4096 2178 
C 4096 3503 3219 4497 2214 4497 
C 1210 4497 333 3497 333 2178 
C 333 847 1222 -128 2214 -128 
C 3206 -128 4096 847 4096 2178 
z
M 2214 273 
C 1510 273 870 1057 870 2261 
C 870 3433 1549 4096 2214 4096 
C 2880 4096 3558 3433 3558 2261 
C 3558 1051 2912 273 2214 273 
z
" transform="scale(0.015625)"/>
      </defs>
      <use xlink:href="#CMSS17-50" transform="scale(0.996264)"/>
      <use xlink:href="#CMSS17-50" transform="translate(59.735586 0)scale(0.996264)"/>
      <use xlink:href="#CMSS17-4f" transform="translate(119.471173 0)scale(0.996264)"/>
     </g>
    </g>
    <g id="line2d_15">
     <path d="M 368.596952 273.467935 
L 382.596952 273.467935 
L 396.596952 273.467935 
" style="fill: none; stroke: #dd8452; stroke-width: 3; stroke-linecap: round"/>
    </g>
    <g id="text_16">
     <!-- SAC -->
     <g style="fill: #262626" transform="translate(407.796952 278.367935)scale(0.14 -0.14)">
      <defs>
       <path id="CMSS17-41" d="M 2272 4416 
L 1722 4416 
L 166 0 
L 653 0 
L 1101 1280 
L 2816 1280 
L 3270 0 
L 3827 0 
L 2272 4416 
z
M 2694 1637 
L 1222 1637 
C 1530 2528 1914 3638 1958 3925 
L 1965 3925 
C 2010 3663 2138 3281 2246 2956 
L 2694 1637 
z
" transform="scale(0.015625)"/>
       <path id="CMSS17-43" d="M 3501 714 
C 3072 427 2874 344 2355 344 
C 1459 344 934 1303 934 2179 
C 934 3112 1472 4032 2381 4032 
C 2790 4032 3059 3918 3386 3715 
L 3475 4217 
C 3168 4370 2778 4440 2387 4440 
C 1158 4440 397 3316 397 2179 
C 397 927 1299 -64 2323 -64 
C 2874 -64 3066 -19 3539 280 
L 3501 714 
z
" transform="scale(0.015625)"/>
      </defs>
      <use xlink:href="#CMSS17-53" transform="scale(0.996264)"/>
      <use xlink:href="#CMSS17-41" transform="translate(52.048516 0)scale(0.996264)"/>
      <use xlink:href="#CMSS17-43" transform="translate(111.663917 0)scale(0.996264)"/>
     </g>
    </g>
   </g>
  </g>
 </g>
 <defs>
  <clipPath id="p0825066b8e">
   <rect x="66.864057" y="28.645876" width="380.975943" height="265.034087"/>
  </clipPath>
 </defs>
</svg>
