<?xml version="1.0" encoding="utf-8" standalone="no"?>
<!DOCTYPE svg PUBLIC "-//W3C//DTD SVG 1.1//EN"
  "http://www.w3.org/Graphics/SVG/1.1/DTD/svg11.dtd">
<svg xmlns:xlink="http://www.w3.org/1999/xlink" width="720pt" height="576pt" viewBox="0 0 720 576" xmlns="http://www.w3.org/2000/svg" version="1.1">
 <metadata>
  <rdf:RDF xmlns:dc="http://purl.org/dc/elements/1.1/" xmlns:cc="http://creativecommons.org/ns#" xmlns:rdf="http://www.w3.org/1999/02/22-rdf-syntax-ns#">
   <cc:Work>
    <dc:type rdf:resource="http://purl.org/dc/dcmitype/StillImage"/>
    <dc:date>2023-01-24T18:58:21.250947</dc:date>
    <dc:format>image/svg+xml</dc:format>
    <dc:creator>
     <cc:Agent>
      <dc:title>Matplotlib v3.5.3, https://matplotlib.org/</dc:title>
     </cc:Agent>
    </dc:creator>
   </cc:Work>
  </rdf:RDF>
 </metadata>
 <defs>
  <style type="text/css">*{stroke-linejoin: round; stroke-linecap: butt}</style>
 </defs>
 <g id="figure_1">
  <g id="patch_1">
   <path d="M 0 576 
L 720 576 
L 720 0 
L 0 0 
z
" style="fill: #ffffff"/>
  </g>
  <g id="axes_1">
   <g id="patch_2">
    <path d="M 59.131977 517.950766 
L 673.801435 517.950766 
L 673.801435 12.96 
L 59.131977 12.96 
z
" style="fill: #ffffff"/>
   </g>
   <g id="matplotlib.axis_1">
    <g id="xtick_1">
     <g id="line2d_1">
      <path d="M 59.131977 517.950766 
L 59.131977 12.96 
" clip-path="url(#p9432c1a3ca)" style="fill: none; stroke: #cccccc; stroke-opacity: 0.2; stroke-linecap: round"/>
     </g>
     <g id="text_1">
      <!-- $\mathdefault{0.0}$ -->
      <g style="fill: #262626" transform="translate(48.895485 538.505934)scale(0.1728 -0.1728)">
       <defs>
        <path id="CMR17-30" d="M 2688 2025 
C 2688 2416 2682 3080 2413 3591 
C 2176 4039 1798 4198 1466 4198 
C 1158 4198 768 4058 525 3597 
C 269 3118 243 2524 243 2025 
C 243 1661 250 1106 448 619 
C 723 -39 1216 -128 1466 -128 
C 1760 -128 2208 -7 2470 600 
C 2662 1042 2688 1559 2688 2025 
z
M 1466 -26 
C 1056 -26 813 325 723 812 
C 653 1188 653 1738 653 2096 
C 653 2588 653 2997 736 3387 
C 858 3929 1216 4096 1466 4096 
C 1728 4096 2067 3923 2189 3400 
C 2272 3036 2278 2607 2278 2096 
C 2278 1680 2278 1169 2202 792 
C 2067 95 1690 -26 1466 -26 
z
" transform="scale(0.015625)"/>
        <path id="CMMI12-3a" d="M 1178 307 
C 1178 492 1024 619 870 619 
C 685 619 557 466 557 313 
C 557 128 710 0 864 0 
C 1050 0 1178 153 1178 307 
z
" transform="scale(0.015625)"/>
       </defs>
       <use xlink:href="#CMR17-30" transform="scale(0.996264)"/>
       <use xlink:href="#CMMI12-3a" transform="translate(45.690477 0)scale(0.996264)"/>
       <use xlink:href="#CMR17-30" transform="translate(72.787654 0)scale(0.996264)"/>
      </g>
     </g>
    </g>
    <g id="xtick_2">
     <g id="line2d_2">
      <path d="M 180.836652 517.950766 
L 180.836652 12.96 
" clip-path="url(#p9432c1a3ca)" style="fill: none; stroke: #cccccc; stroke-opacity: 0.2; stroke-linecap: round"/>
     </g>
     <g id="text_2">
      <!-- $\mathdefault{0.1}$ -->
      <g style="fill: #262626" transform="translate(170.600159 538.505934)scale(0.1728 -0.1728)">
       <defs>
        <path id="CMR17-31" d="M 1702 4058 
C 1702 4192 1696 4192 1606 4192 
C 1357 3916 979 3827 621 3827 
C 602 3827 570 3827 563 3808 
C 557 3795 557 3782 557 3648 
C 755 3648 1088 3686 1344 3839 
L 1344 461 
C 1344 236 1331 160 781 160 
L 589 160 
L 589 0 
C 896 0 1216 0 1523 0 
C 1830 0 2150 0 2458 0 
L 2458 160 
L 2266 160 
C 1715 160 1702 230 1702 458 
L 1702 4058 
z
" transform="scale(0.015625)"/>
       </defs>
       <use xlink:href="#CMR17-30" transform="scale(0.996264)"/>
       <use xlink:href="#CMMI12-3a" transform="translate(45.690477 0)scale(0.996264)"/>
       <use xlink:href="#CMR17-31" transform="translate(72.787654 0)scale(0.996264)"/>
      </g>
     </g>
    </g>
    <g id="xtick_3">
     <g id="line2d_3">
      <path d="M 302.541326 517.950766 
L 302.541326 12.96 
" clip-path="url(#p9432c1a3ca)" style="fill: none; stroke: #cccccc; stroke-opacity: 0.2; stroke-linecap: round"/>
     </g>
     <g id="text_3">
      <!-- $\mathdefault{0.2}$ -->
      <g style="fill: #262626" transform="translate(292.304833 538.505934)scale(0.1728 -0.1728)">
       <defs>
        <path id="CMR17-32" d="M 2669 989 
L 2554 989 
C 2490 536 2438 459 2413 420 
C 2381 369 1920 369 1830 369 
L 602 369 
C 832 619 1280 1072 1824 1597 
C 2214 1967 2669 2402 2669 3035 
C 2669 3790 2067 4224 1395 4224 
C 691 4224 262 3604 262 3030 
C 262 2780 448 2748 525 2748 
C 589 2748 781 2787 781 3010 
C 781 3207 614 3264 525 3264 
C 486 3264 448 3258 422 3245 
C 544 3790 915 4058 1306 4058 
C 1862 4058 2227 3617 2227 3035 
C 2227 2479 1901 2000 1536 1584 
L 262 146 
L 262 0 
L 2515 0 
L 2669 989 
z
" transform="scale(0.015625)"/>
       </defs>
       <use xlink:href="#CMR17-30" transform="scale(0.996264)"/>
       <use xlink:href="#CMMI12-3a" transform="translate(45.690477 0)scale(0.996264)"/>
       <use xlink:href="#CMR17-32" transform="translate(72.787654 0)scale(0.996264)"/>
      </g>
     </g>
    </g>
    <g id="xtick_4">
     <g id="line2d_4">
      <path d="M 424.246 517.950766 
L 424.246 12.96 
" clip-path="url(#p9432c1a3ca)" style="fill: none; stroke: #cccccc; stroke-opacity: 0.2; stroke-linecap: round"/>
     </g>
     <g id="text_4">
      <!-- $\mathdefault{0.3}$ -->
      <g style="fill: #262626" transform="translate(414.009507 538.505934)scale(0.1728 -0.1728)">
       <defs>
        <path id="CMR17-33" d="M 1414 2157 
C 1984 2157 2234 1662 2234 1090 
C 2234 320 1824 25 1453 25 
C 1114 25 563 194 390 693 
C 422 680 454 680 486 680 
C 640 680 755 782 755 948 
C 755 1133 614 1216 486 1216 
C 378 1216 211 1165 211 926 
C 211 335 787 -128 1466 -128 
C 2176 -128 2720 430 2720 1085 
C 2720 1707 2208 2157 1600 2227 
C 2086 2328 2554 2756 2554 3329 
C 2554 3820 2048 4179 1472 4179 
C 890 4179 378 3829 378 3329 
C 378 3110 544 3072 627 3072 
C 762 3072 877 3155 877 3321 
C 877 3486 762 3569 627 3569 
C 602 3569 570 3569 544 3557 
C 730 3959 1235 4032 1459 4032 
C 1683 4032 2106 3925 2106 3320 
C 2106 3143 2080 2828 1862 2550 
C 1670 2304 1453 2304 1242 2284 
C 1210 2284 1062 2269 1037 2269 
C 992 2263 966 2257 966 2208 
C 966 2163 973 2157 1101 2157 
L 1414 2157 
z
" transform="scale(0.015625)"/>
       </defs>
       <use xlink:href="#CMR17-30" transform="scale(0.996264)"/>
       <use xlink:href="#CMMI12-3a" transform="translate(45.690477 0)scale(0.996264)"/>
       <use xlink:href="#CMR17-33" transform="translate(72.787654 0)scale(0.996264)"/>
      </g>
     </g>
    </g>
    <g id="xtick_5">
     <g id="line2d_5">
      <path d="M 545.950674 517.950766 
L 545.950674 12.96 
" clip-path="url(#p9432c1a3ca)" style="fill: none; stroke: #cccccc; stroke-opacity: 0.2; stroke-linecap: round"/>
     </g>
     <g id="text_5">
      <!-- $\mathdefault{0.4}$ -->
      <g style="fill: #262626" transform="translate(535.714182 538.505934)scale(0.1728 -0.1728)">
       <defs>
        <path id="CMR17-34" d="M 2150 4122 
C 2150 4256 2144 4256 2029 4256 
L 128 1254 
L 128 1088 
L 1779 1088 
L 1779 457 
C 1779 224 1766 160 1318 160 
L 1197 160 
L 1197 0 
C 1402 0 1747 0 1965 0 
C 2182 0 2528 0 2733 0 
L 2733 160 
L 2611 160 
C 2163 160 2150 224 2150 457 
L 2150 1088 
L 2803 1088 
L 2803 1254 
L 2150 1254 
L 2150 4122 
z
M 1798 3703 
L 1798 1254 
L 256 1254 
L 1798 3703 
z
" transform="scale(0.015625)"/>
       </defs>
       <use xlink:href="#CMR17-30" transform="scale(0.996264)"/>
       <use xlink:href="#CMMI12-3a" transform="translate(45.690477 0)scale(0.996264)"/>
       <use xlink:href="#CMR17-34" transform="translate(72.787654 0)scale(0.996264)"/>
      </g>
     </g>
    </g>
    <g id="xtick_6">
     <g id="line2d_6">
      <path d="M 667.655348 517.950766 
L 667.655348 12.96 
" clip-path="url(#p9432c1a3ca)" style="fill: none; stroke: #cccccc; stroke-opacity: 0.2; stroke-linecap: round"/>
     </g>
     <g id="text_6">
      <!-- $\mathdefault{0.5}$ -->
      <g style="fill: #262626" transform="translate(657.418856 538.505934)scale(0.1728 -0.1728)">
       <defs>
        <path id="CMR17-35" d="M 730 3692 
C 794 3666 1056 3584 1325 3584 
C 1920 3584 2246 3911 2432 4100 
C 2432 4157 2432 4192 2394 4192 
C 2387 4192 2374 4192 2323 4163 
C 2099 4058 1837 3973 1517 3973 
C 1325 3973 1037 3999 723 4139 
C 653 4171 640 4171 634 4171 
C 602 4171 595 4164 595 4037 
L 595 2203 
C 595 2089 595 2057 659 2057 
C 691 2057 704 2070 736 2114 
C 941 2401 1222 2522 1542 2522 
C 1766 2522 2246 2382 2246 1289 
C 2246 1085 2246 715 2054 421 
C 1894 159 1645 25 1370 25 
C 947 25 518 320 403 814 
C 429 807 480 795 506 795 
C 589 795 749 840 749 1038 
C 749 1210 627 1280 506 1280 
C 358 1280 262 1190 262 1011 
C 262 454 704 -128 1382 -128 
C 2042 -128 2669 440 2669 1264 
C 2669 2030 2170 2624 1549 2624 
C 1222 2624 947 2503 730 2274 
L 730 3692 
z
" transform="scale(0.015625)"/>
       </defs>
       <use xlink:href="#CMR17-30" transform="scale(0.996264)"/>
       <use xlink:href="#CMMI12-3a" transform="translate(45.690477 0)scale(0.996264)"/>
       <use xlink:href="#CMR17-35" transform="translate(72.787654 0)scale(0.996264)"/>
      </g>
     </g>
    </g>
    <g id="text_7">
     <!-- P(PPO $&gt;$ SAC) -->
     <g style="fill: #262626" transform="translate(311.95278 558.750543)scale(0.1728 -0.1728)">
      <defs>
       <path id="CMSS17-50" d="M 2106 1856 
C 2874 1856 3501 2453 3501 3158 
C 3501 3850 2899 4453 2067 4453 
L 570 4453 
L 570 0 
L 1107 0 
L 1107 1856 
L 2106 1856 
z
M 1926 4096 
C 2669 4096 2995 3627 2995 3157 
C 2995 2720 2694 2226 1926 2226 
L 1094 2226 
L 1094 4096 
L 1926 4096 
z
" transform="scale(0.015625)"/>
       <path id="CMSS17-28" d="M 1613 4768 
C 1267 4417 474 3601 474 1588 
C 474 -433 1267 -1243 1613 -1600 
L 2003 -1600 
C 1216 -784 960 357 960 1581 
C 960 2798 1203 3946 2003 4768 
L 1613 4768 
z
" transform="scale(0.015625)"/>
       <path id="CMSS17-4f" d="M 4096 2178 
C 4096 3503 3219 4497 2214 4497 
C 1210 4497 333 3497 333 2178 
C 333 847 1222 -128 2214 -128 
C 3206 -128 4096 847 4096 2178 
z
M 2214 273 
C 1510 273 870 1057 870 2261 
C 870 3433 1549 4096 2214 4096 
C 2880 4096 3558 3433 3558 2261 
C 3558 1051 2912 273 2214 273 
z
" transform="scale(0.015625)"/>
       <path id="CMMI12-3e" d="M 4218 1449 
C 4339 1507 4346 1545 4346 1590 
C 4346 1628 4333 1673 4218 1725 
L 755 3322 
C 672 3360 659 3360 646 3360 
C 570 3360 525 3296 525 3245 
C 525 3168 576 3142 659 3104 
L 3949 1590 
L 653 65 
C 525 6 525 -39 525 -77 
C 525 -128 570 -192 646 -192 
C 659 -192 666 -185 755 -147 
L 4218 1449 
z
" transform="scale(0.015625)"/>
       <path id="CMSS17-53" d="M 2797 4169 
C 2515 4334 2208 4480 1690 4480 
C 864 4480 333 3879 333 3266 
C 333 3025 403 2753 653 2475 
C 902 2196 1184 2121 1542 2033 
C 1690 1994 1939 1924 1984 1906 
C 2342 1767 2515 1444 2515 1140 
C 2515 742 2202 318 1645 318 
C 1453 318 890 318 358 819 
L 269 318 
C 794 -64 1363 -128 1651 -128 
C 2438 -128 3002 488 3002 1186 
C 3002 1440 2925 1763 2656 2061 
C 2394 2347 2163 2410 1638 2549 
C 1338 2626 1146 2677 986 2873 
C 877 3013 819 3146 819 3317 
C 819 3673 1126 4060 1690 4060 
C 1971 4060 2336 4002 2707 3660 
L 2797 4169 
z
" transform="scale(0.015625)"/>
       <path id="CMSS17-41" d="M 2272 4416 
L 1722 4416 
L 166 0 
L 653 0 
L 1101 1280 
L 2816 1280 
L 3270 0 
L 3827 0 
L 2272 4416 
z
M 2694 1637 
L 1222 1637 
C 1530 2528 1914 3638 1958 3925 
L 1965 3925 
C 2010 3663 2138 3281 2246 2956 
L 2694 1637 
z
" transform="scale(0.015625)"/>
       <path id="CMSS17-43" d="M 3501 714 
C 3072 427 2874 344 2355 344 
C 1459 344 934 1303 934 2179 
C 934 3112 1472 4032 2381 4032 
C 2790 4032 3059 3918 3386 3715 
L 3475 4217 
C 3168 4370 2778 4440 2387 4440 
C 1158 4440 397 3316 397 2179 
C 397 927 1299 -64 2323 -64 
C 2874 -64 3066 -19 3539 280 
L 3501 714 
z
" transform="scale(0.015625)"/>
       <path id="CMSS17-29" d="M 723 -1600 
C 1069 -1249 1862 -433 1862 1581 
C 1862 3601 1069 4411 723 4768 
L 333 4768 
C 1120 3952 1376 2811 1376 1588 
C 1376 370 1133 -778 333 -1600 
L 723 -1600 
z
" transform="scale(0.015625)"/>
      </defs>
      <use xlink:href="#CMSS17-50" transform="scale(0.996264)"/>
      <use xlink:href="#CMSS17-28" transform="translate(59.735586 0)scale(0.996264)"/>
      <use xlink:href="#CMSS17-50" transform="translate(96.1695 0)scale(0.996264)"/>
      <use xlink:href="#CMSS17-50" transform="translate(155.905087 0)scale(0.996264)"/>
      <use xlink:href="#CMSS17-4f" transform="translate(215.640673 0)scale(0.996264)"/>
      <use xlink:href="#CMMI12-3e" transform="translate(315.894041 0)scale(0.996264)"/>
      <use xlink:href="#CMSS17-53" transform="translate(422.99525 0)scale(0.996264)"/>
      <use xlink:href="#CMSS17-41" transform="translate(475.043766 0)scale(0.996264)"/>
      <use xlink:href="#CMSS17-43" transform="translate(534.659167 0)scale(0.996264)"/>
      <use xlink:href="#CMSS17-29" transform="translate(594.514938 0)scale(0.996264)"/>
     </g>
    </g>
   </g>
   <g id="matplotlib.axis_2">
    <g id="ytick_1">
     <g id="line2d_7">
      <path d="M 59.131977 265.455383 
L 673.801435 265.455383 
" clip-path="url(#p9432c1a3ca)" style="fill: none; stroke: #cccccc; stroke-opacity: 0.2; stroke-linecap: round"/>
     </g>
     <g id="line2d_8">
      <defs>
       <path id="m32f3203311" d="M 0 0 
L -0.1 0 
" style="stroke: #262626; stroke-width: 0.1"/>
      </defs>
      <g>
       <use xlink:href="#m32f3203311" x="49.131977" y="265.455383" style="fill: #262626; stroke: #262626; stroke-width: 0.1"/>
      </g>
     </g>
     <g id="text_8">
      <!-- PPO -->
      <g style="fill: #262626" transform="translate(12.96 271.432967)scale(0.1728 -0.1728)">
       <use xlink:href="#CMSS17-50" transform="scale(0.996264)"/>
       <use xlink:href="#CMSS17-50" transform="translate(59.735586 0)scale(0.996264)"/>
       <use xlink:href="#CMSS17-4f" transform="translate(119.471173 0)scale(0.996264)"/>
      </g>
     </g>
    </g>
   </g>
   <g id="patch_3">
    <path d="M 59.131977 494.99664 
L 644.53146 494.99664 
L 644.53146 35.914126 
L 59.131977 35.914126 
z
" clip-path="url(#p9432c1a3ca)" style="fill: #0173b2; opacity: 0.75; stroke: #ffffff; stroke-linejoin: miter"/>
   </g>
   <g id="LineCollection_1">
    <path d="M 302.541326 480.650312 
L 302.541326 93.29944 
" clip-path="url(#p9432c1a3ca)" style="fill: none; stroke: #1a1a1a; stroke-opacity: 0.85; stroke-width: 1.5"/>
   </g>
   <g id="patch_4">
    <path d="M 59.131977 522.950766 
L 673.801435 522.950766 
" style="fill: none; stroke: #cccccc; stroke-width: 2; stroke-linejoin: miter; stroke-linecap: square"/>
   </g>
  </g>
  <g id="axes_2">
   <g id="matplotlib.axis_3">
    <g id="ytick_2">
     <g id="line2d_9">
      <path d="M 59.131977 265.455383 
L 673.801435 265.455383 
" clip-path="url(#p9432c1a3ca)" style="fill: none; stroke: #cccccc; stroke-opacity: 0; stroke-linecap: round"/>
     </g>
     <g id="line2d_10">
      <defs>
       <path id="m03e0bc52c0" d="M 0 0 
L 0.1 0 
" style="stroke: #262626; stroke-width: 0.1"/>
      </defs>
      <g>
       <use xlink:href="#m03e0bc52c0" x="673.801435" y="265.455383" style="fill: #262626; stroke: #262626; stroke-width: 0.1"/>
      </g>
     </g>
     <g id="text_9">
      <!--  SAC -->
      <g style="fill: #262626" transform="translate(677.401435 271.432967)scale(0.1728 -0.1728)">
       <use xlink:href="#CMSS17-53" transform="scale(0.996264)"/>
       <use xlink:href="#CMSS17-41" transform="translate(52.048516 0)scale(0.996264)"/>
       <use xlink:href="#CMSS17-43" transform="translate(111.663917 0)scale(0.996264)"/>
      </g>
     </g>
    </g>
   </g>
   <g id="patch_5">
    <path d="M 59.131977 494.99664 
L 644.53146 494.99664 
L 644.53146 35.914126 
L 59.131977 35.914126 
L 59.131977 494.99664 
z
" clip-path="url(#p9432c1a3ca)" style="fill: none; opacity: 0"/>
   </g>
   <g id="patch_6">
    <path d="M 59.131977 522.950766 
L 673.801435 522.950766 
" style="fill: none; stroke: #cccccc; stroke-width: 2; stroke-linejoin: miter; stroke-linecap: square"/>
   </g>
  </g>
 </g>
 <defs>
  <clipPath id="p9432c1a3ca">
   <rect x="59.131977" y="12.96" width="614.669457" height="504.990766"/>
  </clipPath>
 </defs>
</svg>
