<?xml version="1.0" encoding="utf-8" standalone="no"?>
<!DOCTYPE svg PUBLIC "-//W3C//DTD SVG 1.1//EN"
  "http://www.w3.org/Graphics/SVG/1.1/DTD/svg11.dtd">
<svg xmlns:xlink="http://www.w3.org/1999/xlink" width="460.8pt" height="345.6pt" viewBox="0 0 460.8 345.6" xmlns="http://www.w3.org/2000/svg" version="1.1">
 <metadata>
  <rdf:RDF xmlns:dc="http://purl.org/dc/elements/1.1/" xmlns:cc="http://creativecommons.org/ns#" xmlns:rdf="http://www.w3.org/1999/02/22-rdf-syntax-ns#">
   <cc:Work>
    <dc:type rdf:resource="http://purl.org/dc/dcmitype/StillImage"/>
    <dc:date>2023-01-24T18:56:04.555825</dc:date>
    <dc:format>image/svg+xml</dc:format>
    <dc:creator>
     <cc:Agent>
      <dc:title>Matplotlib v3.5.3, https://matplotlib.org/</dc:title>
     </cc:Agent>
    </dc:creator>
   </cc:Work>
  </rdf:RDF>
 </metadata>
 <defs>
  <style type="text/css">*{stroke-linejoin: round; stroke-linecap: butt}</style>
 </defs>
 <g id="figure_1">
  <g id="patch_1">
   <path d="M 0 345.6 
L 460.8 345.6 
L 460.8 0 
L 0 0 
z
" style="fill: #ffffff"/>
  </g>
  <g id="axes_1">
   <g id="patch_2">
    <path d="M 61.38459 293.679964 
L 447.84 293.679964 
L 447.84 28.645876 
L 61.38459 28.645876 
z
" style="fill: #ffffff"/>
   </g>
   <g id="matplotlib.axis_1">
    <g id="xtick_1">
     <g id="line2d_1">
      <path d="M 75.402027 293.679964 
L 75.402027 28.645876 
" clip-path="url(#pcd6c3d652c)" style="fill: none; stroke: #cccccc; stroke-linecap: round"/>
     </g>
     <g id="text_1">
      <!-- $\mathdefault{0.0}$ -->
      <g style="fill: #262626" transform="translate(67.299971 312.173992)scale(0.13 -0.13)">
       <defs>
        <path id="CMR17-30" d="M 2688 2025 
C 2688 2416 2682 3080 2413 3591 
C 2176 4039 1798 4198 1466 4198 
C 1158 4198 768 4058 525 3597 
C 269 3118 243 2524 243 2025 
C 243 1661 250 1106 448 619 
C 723 -39 1216 -128 1466 -128 
C 1760 -128 2208 -7 2470 600 
C 2662 1042 2688 1559 2688 2025 
z
M 1466 -26 
C 1056 -26 813 325 723 812 
C 653 1188 653 1738 653 2096 
C 653 2588 653 2997 736 3387 
C 858 3929 1216 4096 1466 4096 
C 1728 4096 2067 3923 2189 3400 
C 2272 3036 2278 2607 2278 2096 
C 2278 1680 2278 1169 2202 792 
C 2067 95 1690 -26 1466 -26 
z
" transform="scale(0.015625)"/>
        <path id="CMMI12-3a" d="M 1178 307 
C 1178 492 1024 619 870 619 
C 685 619 557 466 557 313 
C 557 128 710 0 864 0 
C 1050 0 1178 153 1178 307 
z
" transform="scale(0.015625)"/>
       </defs>
       <use xlink:href="#CMR17-30" transform="scale(0.996264)"/>
       <use xlink:href="#CMMI12-3a" transform="translate(45.690477 0)scale(0.996264)"/>
       <use xlink:href="#CMR17-30" transform="translate(72.787654 0)scale(0.996264)"/>
      </g>
     </g>
    </g>
    <g id="xtick_2">
     <g id="line2d_2">
      <path d="M 146.37639 293.679964 
L 146.37639 28.645876 
" clip-path="url(#pcd6c3d652c)" style="fill: none; stroke: #cccccc; stroke-linecap: round"/>
     </g>
     <g id="text_2">
      <!-- $\mathdefault{0.2}$ -->
      <g style="fill: #262626" transform="translate(138.274335 312.173992)scale(0.13 -0.13)">
       <defs>
        <path id="CMR17-32" d="M 2669 989 
L 2554 989 
C 2490 536 2438 459 2413 420 
C 2381 369 1920 369 1830 369 
L 602 369 
C 832 619 1280 1072 1824 1597 
C 2214 1967 2669 2402 2669 3035 
C 2669 3790 2067 4224 1395 4224 
C 691 4224 262 3604 262 3030 
C 262 2780 448 2748 525 2748 
C 589 2748 781 2787 781 3010 
C 781 3207 614 3264 525 3264 
C 486 3264 448 3258 422 3245 
C 544 3790 915 4058 1306 4058 
C 1862 4058 2227 3617 2227 3035 
C 2227 2479 1901 2000 1536 1584 
L 262 146 
L 262 0 
L 2515 0 
L 2669 989 
z
" transform="scale(0.015625)"/>
       </defs>
       <use xlink:href="#CMR17-30" transform="scale(0.996264)"/>
       <use xlink:href="#CMMI12-3a" transform="translate(45.690477 0)scale(0.996264)"/>
       <use xlink:href="#CMR17-32" transform="translate(72.787654 0)scale(0.996264)"/>
      </g>
     </g>
    </g>
    <g id="xtick_3">
     <g id="line2d_3">
      <path d="M 217.350754 293.679964 
L 217.350754 28.645876 
" clip-path="url(#pcd6c3d652c)" style="fill: none; stroke: #cccccc; stroke-linecap: round"/>
     </g>
     <g id="text_3">
      <!-- $\mathdefault{0.4}$ -->
      <g style="fill: #262626" transform="translate(209.248698 312.173992)scale(0.13 -0.13)">
       <defs>
        <path id="CMR17-34" d="M 2150 4122 
C 2150 4256 2144 4256 2029 4256 
L 128 1254 
L 128 1088 
L 1779 1088 
L 1779 457 
C 1779 224 1766 160 1318 160 
L 1197 160 
L 1197 0 
C 1402 0 1747 0 1965 0 
C 2182 0 2528 0 2733 0 
L 2733 160 
L 2611 160 
C 2163 160 2150 224 2150 457 
L 2150 1088 
L 2803 1088 
L 2803 1254 
L 2150 1254 
L 2150 4122 
z
M 1798 3703 
L 1798 1254 
L 256 1254 
L 1798 3703 
z
" transform="scale(0.015625)"/>
       </defs>
       <use xlink:href="#CMR17-30" transform="scale(0.996264)"/>
       <use xlink:href="#CMMI12-3a" transform="translate(45.690477 0)scale(0.996264)"/>
       <use xlink:href="#CMR17-34" transform="translate(72.787654 0)scale(0.996264)"/>
      </g>
     </g>
    </g>
    <g id="xtick_4">
     <g id="line2d_4">
      <path d="M 288.325118 293.679964 
L 288.325118 28.645876 
" clip-path="url(#pcd6c3d652c)" style="fill: none; stroke: #cccccc; stroke-linecap: round"/>
     </g>
     <g id="text_4">
      <!-- $\mathdefault{0.6}$ -->
      <g style="fill: #262626" transform="translate(280.223062 312.173992)scale(0.13 -0.13)">
       <defs>
        <path id="CMR17-36" d="M 678 2176 
C 678 3690 1395 4032 1811 4032 
C 1946 4032 2272 4009 2400 3776 
C 2298 3776 2106 3776 2106 3553 
C 2106 3381 2246 3323 2336 3323 
C 2394 3323 2566 3348 2566 3560 
C 2566 3954 2246 4179 1805 4179 
C 1043 4179 243 3390 243 1984 
C 243 253 966 -128 1478 -128 
C 2099 -128 2688 427 2688 1283 
C 2688 2081 2170 2662 1517 2662 
C 1126 2662 838 2407 678 1960 
L 678 2176 
z
M 1478 25 
C 691 25 691 1200 691 1436 
C 691 1896 909 2560 1504 2560 
C 1613 2560 1926 2560 2138 2120 
C 2253 1870 2253 1609 2253 1289 
C 2253 944 2253 690 2118 434 
C 1978 171 1773 25 1478 25 
z
" transform="scale(0.015625)"/>
       </defs>
       <use xlink:href="#CMR17-30" transform="scale(0.996264)"/>
       <use xlink:href="#CMMI12-3a" transform="translate(45.690477 0)scale(0.996264)"/>
       <use xlink:href="#CMR17-36" transform="translate(72.787654 0)scale(0.996264)"/>
      </g>
     </g>
    </g>
    <g id="xtick_5">
     <g id="line2d_5">
      <path d="M 359.299481 293.679964 
L 359.299481 28.645876 
" clip-path="url(#pcd6c3d652c)" style="fill: none; stroke: #cccccc; stroke-linecap: round"/>
     </g>
     <g id="text_5">
      <!-- $\mathdefault{0.8}$ -->
      <g style="fill: #262626" transform="translate(351.197425 312.173992)scale(0.13 -0.13)">
       <defs>
        <path id="CMR17-38" d="M 1741 2264 
C 2144 2467 2554 2773 2554 3263 
C 2554 3841 1990 4179 1472 4179 
C 890 4179 378 3759 378 3180 
C 378 3021 416 2747 666 2505 
C 730 2442 998 2251 1171 2130 
C 883 1983 211 1634 211 934 
C 211 279 838 -128 1459 -128 
C 2144 -128 2720 362 2720 1010 
C 2720 1590 2330 1857 2074 2029 
L 1741 2264 
z
M 902 2822 
C 851 2854 595 3051 595 3351 
C 595 3739 998 4032 1459 4032 
C 1965 4032 2336 3676 2336 3262 
C 2336 2669 1670 2331 1638 2331 
C 1632 2331 1626 2331 1574 2370 
L 902 2822 
z
M 2080 1519 
C 2176 1449 2483 1240 2483 851 
C 2483 381 2010 25 1472 25 
C 890 25 448 438 448 940 
C 448 1443 838 1862 1280 2060 
L 2080 1519 
z
" transform="scale(0.015625)"/>
       </defs>
       <use xlink:href="#CMR17-30" transform="scale(0.996264)"/>
       <use xlink:href="#CMMI12-3a" transform="translate(45.690477 0)scale(0.996264)"/>
       <use xlink:href="#CMR17-38" transform="translate(72.787654 0)scale(0.996264)"/>
      </g>
     </g>
    </g>
    <g id="xtick_6">
     <g id="line2d_6">
      <path d="M 430.273845 293.679964 
L 430.273845 28.645876 
" clip-path="url(#pcd6c3d652c)" style="fill: none; stroke: #cccccc; stroke-linecap: round"/>
     </g>
     <g id="text_6">
      <!-- $\mathdefault{1.0}$ -->
      <g style="fill: #262626" transform="translate(422.171789 312.173992)scale(0.13 -0.13)">
       <defs>
        <path id="CMR17-31" d="M 1702 4058 
C 1702 4192 1696 4192 1606 4192 
C 1357 3916 979 3827 621 3827 
C 602 3827 570 3827 563 3808 
C 557 3795 557 3782 557 3648 
C 755 3648 1088 3686 1344 3839 
L 1344 461 
C 1344 236 1331 160 781 160 
L 589 160 
L 589 0 
C 896 0 1216 0 1523 0 
C 1830 0 2150 0 2458 0 
L 2458 160 
L 2266 160 
C 1715 160 1702 230 1702 458 
L 1702 4058 
z
" transform="scale(0.015625)"/>
       </defs>
       <use xlink:href="#CMR17-31" transform="scale(0.996264)"/>
       <use xlink:href="#CMMI12-3a" transform="translate(45.690477 0)scale(0.996264)"/>
       <use xlink:href="#CMR17-30" transform="translate(72.787654 0)scale(0.996264)"/>
      </g>
     </g>
    </g>
    <g id="text_7">
     <!-- Timesteps (1e6) -->
     <g style="fill: #262626" transform="translate(208.224611 329.153076)scale(0.14 -0.14)">
      <defs>
       <path id="CMSS17-54" d="M 2317 3968 
L 2848 3968 
C 2925 3968 3002 3968 3078 3968 
L 3878 3968 
L 3878 4376 
L 218 4376 
L 218 3968 
L 1018 3968 
C 1094 3968 1171 3968 1248 3968 
L 1779 3968 
L 1779 -32 
L 2317 -32 
L 2317 3968 
z
" transform="scale(0.015625)"/>
       <path id="CMSS17-69" d="M 979 4183 
L 442 4183 
L 442 3648 
L 979 3648 
L 979 4183 
z
M 947 2739 
L 474 2739 
L 474 0 
L 947 0 
L 947 2739 
z
" transform="scale(0.015625)"/>
       <path id="CMSS17-6d" d="M 4288 1877 
C 4288 2308 4179 2816 3462 2816 
C 2982 2816 2694 2516 2566 2331 
C 2451 2670 2182 2816 1798 2816 
C 1363 2816 1088 2568 941 2389 
L 941 2758 
L 474 2758 
L 474 0 
L 960 0 
L 960 1559 
C 960 1939 1101 2428 1555 2428 
C 2138 2428 2138 2016 2138 1829 
L 2138 0 
L 2624 0 
L 2624 1559 
C 2624 1939 2765 2428 3219 2428 
C 3802 2428 3802 2016 3802 1829 
L 3802 0 
L 4288 0 
L 4288 1877 
z
" transform="scale(0.015625)"/>
       <path id="CMSS17-65" d="M 2502 1377 
C 2502 1590 2490 2003 2285 2345 
C 2061 2713 1696 2816 1421 2816 
C 755 2816 192 2188 192 1375 
C 192 582 774 -64 1510 -64 
C 1798 -64 2150 19 2470 248 
C 2470 274 2458 414 2451 420 
C 2451 433 2432 630 2432 656 
C 2125 407 1773 325 1517 325 
C 1107 325 666 667 646 1377 
L 2502 1377 
z
M 698 1728 
C 781 2084 1062 2421 1421 2421 
C 1517 2421 1965 2421 2080 1728 
L 698 1728 
z
" transform="scale(0.015625)"/>
       <path id="CMSS17-73" d="M 2061 2627 
C 1683 2807 1389 2807 1197 2807 
C 742 2807 198 2648 198 2003 
C 198 1359 902 1218 1094 1179 
C 1389 1122 1715 1058 1715 740 
C 1715 337 1254 337 1171 337 
C 915 337 563 407 243 638 
L 166 210 
C 531 0 883 -64 1178 -64 
C 1965 -64 2163 416 2163 781 
C 2163 1094 1984 1305 1862 1401 
C 1651 1568 1574 1587 1050 1696 
C 960 1709 646 1779 646 2066 
C 646 2432 1050 2432 1139 2432 
C 1555 2432 1811 2303 1984 2208 
L 2061 2627 
z
" transform="scale(0.015625)"/>
       <path id="CMSS17-74" d="M 1069 2368 
L 1901 2368 
L 1901 2737 
L 1069 2737 
L 1069 3520 
L 614 3520 
L 614 2737 
L 109 2737 
L 109 2368 
L 602 2368 
L 602 749 
C 602 384 685 -64 1107 -64 
C 1427 -64 1722 25 2003 172 
L 1901 548 
C 1747 414 1562 337 1363 337 
C 1082 337 1069 696 1069 856 
L 1069 2368 
z
" transform="scale(0.015625)"/>
       <path id="CMSS17-70" d="M 966 333 
C 1178 129 1466 -5 1773 -5 
C 2368 -5 2880 603 2880 1412 
C 2880 2159 2496 2816 1946 2816 
C 1626 2816 1242 2702 954 2472 
L 954 2765 
L 480 2765 
L 480 -1216 
L 966 -1216 
L 966 333 
z
M 966 2100 
C 1018 2176 1235 2415 1587 2415 
C 2035 2415 2394 1960 2394 1412 
C 2394 787 1958 384 1530 384 
C 1402 384 1267 415 1139 523 
C 966 674 966 768 966 857 
L 966 2100 
z
" transform="scale(0.015625)"/>
       <path id="CMSS17-28" d="M 1613 4768 
C 1267 4417 474 3601 474 1588 
C 474 -433 1267 -1243 1613 -1600 
L 2003 -1600 
C 1216 -784 960 357 960 1581 
C 960 2798 1203 3946 2003 4768 
L 1613 4768 
z
" transform="scale(0.015625)"/>
       <path id="CMSS17-31" d="M 1818 4288 
L 1696 4288 
C 1350 3940 947 3890 538 3890 
L 538 3520 
C 723 3520 1024 3520 1325 3667 
L 1325 369 
L 570 369 
L 570 0 
L 2573 0 
L 2573 369 
L 1818 369 
L 1818 4288 
z
" transform="scale(0.015625)"/>
       <path id="CMSS17-36" d="M 2496 4101 
C 2227 4210 2035 4229 1856 4229 
C 1024 4229 250 3368 250 2006 
C 250 265 986 -128 1510 -128 
C 1798 -128 2086 -39 2362 280 
C 2643 617 2752 898 2752 1389 
C 2752 2179 2362 2880 1779 2880 
C 1357 2880 992 2657 768 2376 
C 832 3258 1254 3840 1862 3840 
C 2029 3840 2246 3816 2496 3710 
L 2496 4101 
z
M 774 1369 
C 774 1420 774 1452 781 1548 
C 781 2045 1069 2491 1536 2491 
C 1837 2491 1990 2332 2106 2135 
C 2240 1886 2246 1650 2246 1388 
C 2246 1140 2246 891 2099 637 
C 1978 439 1818 267 1510 267 
C 902 267 800 1114 774 1369 
z
" transform="scale(0.015625)"/>
       <path id="CMSS17-29" d="M 723 -1600 
C 1069 -1249 1862 -433 1862 1581 
C 1862 3601 1069 4411 723 4768 
L 333 4768 
C 1120 3952 1376 2811 1376 1588 
C 1376 370 1133 -778 333 -1600 
L 723 -1600 
z
" transform="scale(0.015625)"/>
      </defs>
      <use xlink:href="#CMSS17-54" transform="scale(0.996264)"/>
      <use xlink:href="#CMSS17-69" transform="translate(63.819454 0)scale(0.996264)"/>
      <use xlink:href="#CMSS17-6d" transform="translate(86.000177 0)scale(0.996264)"/>
      <use xlink:href="#CMSS17-65" transform="translate(160.229431 0)scale(0.996264)"/>
      <use xlink:href="#CMSS17-73" transform="translate(201.868253 0)scale(0.996264)"/>
      <use xlink:href="#CMSS17-74" transform="translate(237.781795 0)scale(0.996264)"/>
      <use xlink:href="#CMSS17-65" transform="translate(271.613362 0)scale(0.996264)"/>
      <use xlink:href="#CMSS17-70" transform="translate(313.252184 0)scale(0.996264)"/>
      <use xlink:href="#CMSS17-73" transform="translate(361.457127 0)scale(0.996264)"/>
      <use xlink:href="#CMSS17-28" transform="translate(428.599782 0)scale(0.996264)"/>
      <use xlink:href="#CMSS17-31" transform="translate(465.033696 0)scale(0.996264)"/>
      <use xlink:href="#CMSS17-65" transform="translate(511.87732 0)scale(0.996264)"/>
      <use xlink:href="#CMSS17-36" transform="translate(553.516142 0)scale(0.996264)"/>
      <use xlink:href="#CMSS17-29" transform="translate(600.359765 0)scale(0.996264)"/>
     </g>
    </g>
   </g>
   <g id="matplotlib.axis_2">
    <g id="ytick_1">
     <g id="line2d_7">
      <path d="M 61.38459 275.178136 
L 447.84 275.178136 
" clip-path="url(#pcd6c3d652c)" style="fill: none; stroke: #cccccc; stroke-linecap: round"/>
     </g>
     <g id="text_8">
      <!-- $\mathdefault{−0.6}$ -->
      <g style="fill: #262626" transform="translate(29.357905 278.98331)scale(0.11 -0.11)">
       <defs>
        <path id="CMSY10-0" d="M 4218 1472 
C 4326 1472 4442 1472 4442 1600 
C 4442 1728 4326 1728 4218 1728 
L 755 1728 
C 646 1728 531 1728 531 1600 
C 531 1472 646 1472 755 1472 
L 4218 1472 
z
" transform="scale(0.015625)"/>
       </defs>
       <use xlink:href="#CMSY10-0" transform="scale(0.996264)"/>
       <use xlink:href="#CMR17-30" transform="translate(77.487468 0)scale(0.996264)"/>
       <use xlink:href="#CMMI12-3a" transform="translate(123.177945 0)scale(0.996264)"/>
       <use xlink:href="#CMR17-36" transform="translate(150.275122 0)scale(0.996264)"/>
      </g>
     </g>
    </g>
    <g id="ytick_2">
     <g id="line2d_8">
      <path d="M 61.38459 238.594364 
L 447.84 238.594364 
" clip-path="url(#pcd6c3d652c)" style="fill: none; stroke: #cccccc; stroke-linecap: round"/>
     </g>
     <g id="text_9">
      <!-- $\mathdefault{−0.5}$ -->
      <g style="fill: #262626" transform="translate(29.357905 242.399537)scale(0.11 -0.11)">
       <defs>
        <path id="CMR17-35" d="M 730 3692 
C 794 3666 1056 3584 1325 3584 
C 1920 3584 2246 3911 2432 4100 
C 2432 4157 2432 4192 2394 4192 
C 2387 4192 2374 4192 2323 4163 
C 2099 4058 1837 3973 1517 3973 
C 1325 3973 1037 3999 723 4139 
C 653 4171 640 4171 634 4171 
C 602 4171 595 4164 595 4037 
L 595 2203 
C 595 2089 595 2057 659 2057 
C 691 2057 704 2070 736 2114 
C 941 2401 1222 2522 1542 2522 
C 1766 2522 2246 2382 2246 1289 
C 2246 1085 2246 715 2054 421 
C 1894 159 1645 25 1370 25 
C 947 25 518 320 403 814 
C 429 807 480 795 506 795 
C 589 795 749 840 749 1038 
C 749 1210 627 1280 506 1280 
C 358 1280 262 1190 262 1011 
C 262 454 704 -128 1382 -128 
C 2042 -128 2669 440 2669 1264 
C 2669 2030 2170 2624 1549 2624 
C 1222 2624 947 2503 730 2274 
L 730 3692 
z
" transform="scale(0.015625)"/>
       </defs>
       <use xlink:href="#CMSY10-0" transform="scale(0.996264)"/>
       <use xlink:href="#CMR17-30" transform="translate(77.487468 0)scale(0.996264)"/>
       <use xlink:href="#CMMI12-3a" transform="translate(123.177945 0)scale(0.996264)"/>
       <use xlink:href="#CMR17-35" transform="translate(150.275122 0)scale(0.996264)"/>
      </g>
     </g>
    </g>
    <g id="ytick_3">
     <g id="line2d_9">
      <path d="M 61.38459 202.010591 
L 447.84 202.010591 
" clip-path="url(#pcd6c3d652c)" style="fill: none; stroke: #cccccc; stroke-linecap: round"/>
     </g>
     <g id="text_10">
      <!-- $\mathdefault{−0.4}$ -->
      <g style="fill: #262626" transform="translate(29.357905 205.815765)scale(0.11 -0.11)">
       <use xlink:href="#CMSY10-0" transform="scale(0.996264)"/>
       <use xlink:href="#CMR17-30" transform="translate(77.487468 0)scale(0.996264)"/>
       <use xlink:href="#CMMI12-3a" transform="translate(123.177945 0)scale(0.996264)"/>
       <use xlink:href="#CMR17-34" transform="translate(150.275122 0)scale(0.996264)"/>
      </g>
     </g>
    </g>
    <g id="ytick_4">
     <g id="line2d_10">
      <path d="M 61.38459 165.426819 
L 447.84 165.426819 
" clip-path="url(#pcd6c3d652c)" style="fill: none; stroke: #cccccc; stroke-linecap: round"/>
     </g>
     <g id="text_11">
      <!-- $\mathdefault{−0.3}$ -->
      <g style="fill: #262626" transform="translate(29.357905 169.231992)scale(0.11 -0.11)">
       <defs>
        <path id="CMR17-33" d="M 1414 2157 
C 1984 2157 2234 1662 2234 1090 
C 2234 320 1824 25 1453 25 
C 1114 25 563 194 390 693 
C 422 680 454 680 486 680 
C 640 680 755 782 755 948 
C 755 1133 614 1216 486 1216 
C 378 1216 211 1165 211 926 
C 211 335 787 -128 1466 -128 
C 2176 -128 2720 430 2720 1085 
C 2720 1707 2208 2157 1600 2227 
C 2086 2328 2554 2756 2554 3329 
C 2554 3820 2048 4179 1472 4179 
C 890 4179 378 3829 378 3329 
C 378 3110 544 3072 627 3072 
C 762 3072 877 3155 877 3321 
C 877 3486 762 3569 627 3569 
C 602 3569 570 3569 544 3557 
C 730 3959 1235 4032 1459 4032 
C 1683 4032 2106 3925 2106 3320 
C 2106 3143 2080 2828 1862 2550 
C 1670 2304 1453 2304 1242 2284 
C 1210 2284 1062 2269 1037 2269 
C 992 2263 966 2257 966 2208 
C 966 2163 973 2157 1101 2157 
L 1414 2157 
z
" transform="scale(0.015625)"/>
       </defs>
       <use xlink:href="#CMSY10-0" transform="scale(0.996264)"/>
       <use xlink:href="#CMR17-30" transform="translate(77.487468 0)scale(0.996264)"/>
       <use xlink:href="#CMMI12-3a" transform="translate(123.177945 0)scale(0.996264)"/>
       <use xlink:href="#CMR17-33" transform="translate(150.275122 0)scale(0.996264)"/>
      </g>
     </g>
    </g>
    <g id="ytick_5">
     <g id="line2d_11">
      <path d="M 61.38459 128.843046 
L 447.84 128.843046 
" clip-path="url(#pcd6c3d652c)" style="fill: none; stroke: #cccccc; stroke-linecap: round"/>
     </g>
     <g id="text_12">
      <!-- $\mathdefault{−0.2}$ -->
      <g style="fill: #262626" transform="translate(29.357905 132.64822)scale(0.11 -0.11)">
       <use xlink:href="#CMSY10-0" transform="scale(0.996264)"/>
       <use xlink:href="#CMR17-30" transform="translate(77.487468 0)scale(0.996264)"/>
       <use xlink:href="#CMMI12-3a" transform="translate(123.177945 0)scale(0.996264)"/>
       <use xlink:href="#CMR17-32" transform="translate(150.275122 0)scale(0.996264)"/>
      </g>
     </g>
    </g>
    <g id="ytick_6">
     <g id="line2d_12">
      <path d="M 61.38459 92.259274 
L 447.84 92.259274 
" clip-path="url(#pcd6c3d652c)" style="fill: none; stroke: #cccccc; stroke-linecap: round"/>
     </g>
     <g id="text_13">
      <!-- $\mathdefault{−0.1}$ -->
      <g style="fill: #262626" transform="translate(29.357905 96.064447)scale(0.11 -0.11)">
       <use xlink:href="#CMSY10-0" transform="scale(0.996264)"/>
       <use xlink:href="#CMR17-30" transform="translate(77.487468 0)scale(0.996264)"/>
       <use xlink:href="#CMMI12-3a" transform="translate(123.177945 0)scale(0.996264)"/>
       <use xlink:href="#CMR17-31" transform="translate(150.275122 0)scale(0.996264)"/>
      </g>
     </g>
    </g>
    <g id="ytick_7">
     <g id="line2d_13">
      <path d="M 61.38459 55.675501 
L 447.84 55.675501 
" clip-path="url(#pcd6c3d652c)" style="fill: none; stroke: #cccccc; stroke-linecap: round"/>
     </g>
     <g id="text_14">
      <!-- $\mathdefault{0.0}$ -->
      <g style="fill: #262626" transform="translate(37.881514 59.480675)scale(0.11 -0.11)">
       <use xlink:href="#CMR17-30" transform="scale(0.996264)"/>
       <use xlink:href="#CMMI12-3a" transform="translate(45.690477 0)scale(0.996264)"/>
       <use xlink:href="#CMR17-30" transform="translate(72.787654 0)scale(0.996264)"/>
      </g>
     </g>
    </g>
    <g id="text_15">
     <!-- Score -->
     <g style="fill: #262626" transform="translate(22.645876 176.571409)rotate(-90)scale(0.14 -0.14)">
      <defs>
       <path id="CMSS17-53" d="M 2797 4169 
C 2515 4334 2208 4480 1690 4480 
C 864 4480 333 3879 333 3266 
C 333 3025 403 2753 653 2475 
C 902 2196 1184 2121 1542 2033 
C 1690 1994 1939 1924 1984 1906 
C 2342 1767 2515 1444 2515 1140 
C 2515 742 2202 318 1645 318 
C 1453 318 890 318 358 819 
L 269 318 
C 794 -64 1363 -128 1651 -128 
C 2438 -128 3002 488 3002 1186 
C 3002 1440 2925 1763 2656 2061 
C 2394 2347 2163 2410 1638 2549 
C 1338 2626 1146 2677 986 2873 
C 877 3013 819 3146 819 3317 
C 819 3673 1126 4060 1690 4060 
C 1971 4060 2336 4002 2707 3660 
L 2797 4169 
z
" transform="scale(0.015625)"/>
       <path id="CMSS17-63" d="M 2464 2541 
C 2464 2585 2170 2714 2093 2739 
C 1882 2816 1613 2816 1542 2816 
C 710 2816 211 2093 211 1363 
C 211 595 768 -64 1517 -64 
C 1946 -64 2253 76 2502 242 
L 2464 664 
C 2189 453 1869 337 1523 337 
C 1024 337 698 774 698 1369 
C 698 1831 909 2414 1549 2414 
C 1901 2414 2099 2343 2394 2145 
L 2464 2541 
z
" transform="scale(0.015625)"/>
       <path id="CMSS17-6f" d="M 2829 1356 
C 2829 2176 2221 2816 1504 2816 
C 768 2816 173 2157 173 1356 
C 173 544 787 -64 1498 -64 
C 2227 -64 2829 563 2829 1356 
z
M 1504 337 
C 1050 337 659 709 659 1408 
C 659 2151 1114 2427 1498 2427 
C 1914 2427 2342 2126 2342 1408 
C 2342 683 1926 337 1504 337 
z
" transform="scale(0.015625)"/>
       <path id="CMSS17-72" d="M 954 1363 
C 954 1965 1395 2368 1958 2368 
L 1958 2789 
C 1549 2789 1165 2585 934 2253 
L 934 2758 
L 480 2758 
L 480 0 
L 954 0 
L 954 1363 
z
" transform="scale(0.015625)"/>
      </defs>
      <use xlink:href="#CMSS17-53" transform="scale(0.996264)"/>
      <use xlink:href="#CMSS17-63" transform="translate(52.048516 0)scale(0.996264)"/>
      <use xlink:href="#CMSS17-6f" transform="translate(93.687338 0)scale(0.996264)"/>
      <use xlink:href="#CMSS17-72" transform="translate(137.928508 0)scale(0.996264)"/>
      <use xlink:href="#CMSS17-65" transform="translate(169.83828 0)scale(0.996264)"/>
     </g>
    </g>
   </g>
   <g id="PolyCollection_1">
    <defs>
     <path id="m5d076201e6" d="M 78.950745 -72.604407 
L 78.950745 -88.510457 
L 82.499463 -85.154363 
L 86.048181 -105.486738 
L 89.5969 -114.639665 
L 93.145618 -99.555751 
L 96.694336 -137.067873 
L 100.243054 -145.421496 
L 103.791772 -142.808063 
L 107.34049 -155.543663 
L 110.889209 -170.237561 
L 114.437927 -162.030568 
L 117.986645 -127.791838 
L 121.535363 -174.036476 
L 125.084081 -161.364288 
L 128.6328 -168.507123 
L 132.181518 -175.399763 
L 135.730236 -156.20493 
L 139.278954 -172.025821 
L 142.827672 -162.402617 
L 146.37639 -170.934731 
L 149.925109 -162.836438 
L 153.473827 -195.961895 
L 157.022545 -186.337472 
L 160.571263 -202.952882 
L 164.119981 -199.361036 
L 167.6687 -185.951853 
L 171.217418 -173.548926 
L 174.766136 -186.082411 
L 178.314854 -215.578799 
L 181.863572 -186.930646 
L 185.41229 -175.709101 
L 188.961009 -203.564438 
L 192.509727 -190.202606 
L 196.058445 -203.811677 
L 199.607163 -177.677433 
L 203.155881 -211.076511 
L 206.7046 -189.03763 
L 210.253318 -165.804521 
L 213.802036 -199.281865 
L 217.350754 -175.475545 
L 220.899472 -172.889484 
L 224.44819 -186.555238 
L 227.996909 -202.435226 
L 231.545627 -217.062879 
L 235.094345 -194.745607 
L 238.643063 -231.171413 
L 242.191781 -240.602468 
L 245.7405 -228.406748 
L 249.289218 -233.277056 
L 252.837936 -191.392602 
L 256.386654 -207.054289 
L 259.935372 -200.934432 
L 263.48409 -191.329068 
L 267.032809 -215.796292 
L 270.581527 -224.24118 
L 274.130245 -180.05736 
L 277.678963 -194.171046 
L 281.227681 -192.518802 
L 284.7764 -194.802919 
L 288.325118 -197.85138 
L 291.873836 -213.753462 
L 295.422554 -245.686756 
L 298.971272 -180.5218 
L 302.51999 -190.763844 
L 306.068709 -223.914574 
L 309.617427 -255.032897 
L 313.166145 -194.949407 
L 316.714863 -220.627911 
L 320.263581 -205.158663 
L 323.8123 -202.587447 
L 327.361018 -190.485269 
L 330.909736 -193.559507 
L 334.458454 -195.871932 
L 338.007172 -235.681476 
L 341.55589 -226.548748 
L 345.104609 -201.889376 
L 348.653327 -200.199851 
L 352.202045 -201.773508 
L 355.750763 -214.763866 
L 359.299481 -186.020044 
L 362.8482 -223.616968 
L 366.396918 -246.131871 
L 369.945636 -169.960048 
L 373.494354 -227.093104 
L 377.043072 -193.864313 
L 380.59179 -206.259443 
L 384.140509 -232.328325 
L 387.689227 -193.114974 
L 391.237945 -196.615707 
L 394.786663 -166.881541 
L 398.335381 -209.480553 
L 401.8841 -193.970423 
L 405.432818 -214.31492 
L 408.981536 -182.843342 
L 412.530254 -209.942238 
L 416.078972 -185.296259 
L 419.62769 -175.755848 
L 423.176409 -205.346094 
L 426.725127 -207.495224 
L 430.273845 -217.858678 
L 430.273845 -141.733464 
L 430.273845 -141.733464 
L 426.725127 -180.6229 
L 423.176409 -175.884032 
L 419.62769 -157.027861 
L 416.078972 -175.990321 
L 412.530254 -192.232961 
L 408.981536 -164.848538 
L 405.432818 -194.811844 
L 401.8841 -177.238945 
L 398.335381 -183.009994 
L 394.786663 -159.333512 
L 391.237945 -174.352817 
L 387.689227 -171.345482 
L 384.140509 -182.119861 
L 380.59179 -183.809493 
L 377.043072 -164.197632 
L 373.494354 -184.465169 
L 369.945636 -160.472402 
L 366.396918 -233.775113 
L 362.8482 -185.153114 
L 359.299481 -154.027709 
L 355.750763 -191.622584 
L 352.202045 -194.615128 
L 348.653327 -163.633496 
L 345.104609 -157.426173 
L 341.55589 -195.454124 
L 338.007172 -196.038972 
L 334.458454 -191.0975 
L 330.909736 -165.592731 
L 327.361018 -172.770728 
L 323.8123 -189.349169 
L 320.263581 -185.903493 
L 316.714863 -206.25071 
L 313.166145 -171.568306 
L 309.617427 -213.310065 
L 306.068709 -187.348078 
L 302.51999 -159.706709 
L 298.971272 -166.009735 
L 295.422554 -204.936636 
L 291.873836 -192.553259 
L 288.325118 -184.855984 
L 284.7764 -192.641356 
L 281.227681 -175.061811 
L 277.678963 -182.140216 
L 274.130245 -165.703745 
L 270.581527 -187.691448 
L 267.032809 -176.904554 
L 263.48409 -159.623625 
L 259.935372 -169.365316 
L 256.386654 -183.490919 
L 252.837936 -171.845762 
L 249.289218 -184.323305 
L 245.7405 -179.166558 
L 242.191781 -186.14988 
L 238.643063 -197.626617 
L 235.094345 -176.336283 
L 231.545627 -191.176734 
L 227.996909 -195.144417 
L 224.44819 -165.735943 
L 220.899472 -159.937413 
L 217.350754 -167.496676 
L 213.802036 -172.801972 
L 210.253318 -158.138364 
L 206.7046 -158.741446 
L 203.155881 -191.691501 
L 199.607163 -166.530769 
L 196.058445 -195.932375 
L 192.509727 -175.751922 
L 188.961009 -162.889224 
L 185.41229 -159.374079 
L 181.863572 -121.709027 
L 178.314854 -159.665344 
L 174.766136 -163.746355 
L 171.217418 -146.019758 
L 167.6687 -116.425746 
L 164.119981 -180.409627 
L 160.571263 -186.15592 
L 157.022545 -147.928104 
L 153.473827 -172.055739 
L 149.925109 -131.167926 
L 146.37639 -151.019493 
L 142.827672 -152.263862 
L 139.278954 -149.419202 
L 135.730236 -147.61467 
L 132.181518 -159.468392 
L 128.6328 -125.636371 
L 125.084081 -132.504458 
L 121.535363 -171.305861 
L 117.986645 -111.955006 
L 114.437927 -148.727359 
L 110.889209 -145.676654 
L 107.34049 -130.84175 
L 103.791772 -122.172501 
L 100.243054 -118.582604 
L 96.694336 -114.404704 
L 93.145618 -86.087425 
L 89.5969 -84.994907 
L 86.048181 -63.96704 
L 82.499463 -66.620629 
L 78.950745 -72.604407 
z
" style="stroke: #ffffff; stroke-opacity: 0.5"/>
    </defs>
    <g clip-path="url(#pcd6c3d652c)">
     <use xlink:href="#m5d076201e6" x="0" y="345.6" style="fill: #4c72b0; fill-opacity: 0.5; stroke: #ffffff; stroke-opacity: 0.5"/>
    </g>
   </g>
   <g id="PolyCollection_2">
    <defs>
     <path id="m7c2a15c99b" d="M 78.950745 -112.348881 
L 78.950745 -124.846821 
L 82.499463 -109.055179 
L 86.048181 -105.220766 
L 89.5969 -116.228555 
L 93.145618 -102.631807 
L 96.694336 -83.006882 
L 100.243054 -103.786568 
L 103.791772 -102.19573 
L 107.34049 -134.834252 
L 110.889209 -103.388766 
L 114.437927 -115.715298 
L 117.986645 -133.390577 
L 121.535363 -106.971654 
L 125.084081 -96.842299 
L 128.6328 -111.622557 
L 132.181518 -117.054319 
L 135.730236 -113.627791 
L 139.278954 -163.380329 
L 142.827672 -174.03777 
L 146.37639 -194.911017 
L 149.925109 -237.895984 
L 153.473827 -260.626203 
L 157.022545 -238.934601 
L 160.571263 -238.98709 
L 164.119981 -244.941883 
L 167.6687 -264.658405 
L 171.217418 -208.452199 
L 174.766136 -249.166304 
L 178.314854 -227.378523 
L 181.863572 -219.70943 
L 185.41229 -240.754905 
L 188.961009 -252.573015 
L 192.509727 -273.129107 
L 196.058445 -257.448369 
L 199.607163 -216.611083 
L 203.155881 -231.27212 
L 206.7046 -246.334931 
L 210.253318 -249.204379 
L 213.802036 -255.941112 
L 217.350754 -259.612128 
L 220.899472 -242.903954 
L 224.44819 -274.970607 
L 227.996909 -271.669095 
L 231.545627 -259.771336 
L 235.094345 -266.442681 
L 238.643063 -237.813044 
L 242.191781 -293.29277 
L 245.7405 -203.588049 
L 249.289218 -260.00706 
L 252.837936 -230.394551 
L 256.386654 -247.822012 
L 259.935372 -284.724942 
L 263.48409 -251.008211 
L 267.032809 -280.560962 
L 270.581527 -241.711461 
L 274.130245 -259.407182 
L 277.678963 -287.725006 
L 281.227681 -261.735371 
L 284.7764 -243.23978 
L 288.325118 -256.189873 
L 291.873836 -270.828609 
L 295.422554 -265.088999 
L 298.971272 -264.888466 
L 302.51999 -284.199708 
L 306.068709 -270.106357 
L 309.617427 -259.536798 
L 313.166145 -234.744918 
L 316.714863 -294.431393 
L 320.263581 -218.707923 
L 323.8123 -227.107789 
L 327.361018 -244.574097 
L 330.909736 -265.269636 
L 334.458454 -252.65879 
L 338.007172 -295.454292 
L 341.55589 -266.965821 
L 345.104609 -252.450365 
L 348.653327 -270.969975 
L 352.202045 -263.695427 
L 355.750763 -270.705137 
L 359.299481 -268.356163 
L 362.8482 -280.812146 
L 366.396918 -245.925406 
L 369.945636 -229.180762 
L 373.494354 -252.784402 
L 377.043072 -275.859357 
L 380.59179 -255.729068 
L 384.140509 -289.737736 
L 387.689227 -271.537126 
L 391.237945 -274.279393 
L 394.786663 -267.666333 
L 398.335381 -258.541258 
L 401.8841 -266.632741 
L 405.432818 -264.280982 
L 408.981536 -255.363806 
L 412.530254 -297.455836 
L 416.078972 -304.90712 
L 419.62769 -242.466401 
L 423.176409 -261.351278 
L 426.725127 -260.108594 
L 430.273845 -255.52996 
L 430.273845 -222.919468 
L 430.273845 -222.919468 
L 426.725127 -246.637231 
L 423.176409 -218.96264 
L 419.62769 -237.142206 
L 416.078972 -276.395556 
L 412.530254 -243.076908 
L 408.981536 -240.315067 
L 405.432818 -234.476972 
L 401.8841 -247.524586 
L 398.335381 -240.413994 
L 394.786663 -239.666428 
L 391.237945 -233.405294 
L 387.689227 -239.848224 
L 384.140509 -260.896007 
L 380.59179 -239.964311 
L 377.043072 -257.695735 
L 373.494354 -231.985932 
L 369.945636 -211.443407 
L 366.396918 -225.017638 
L 362.8482 -272.749436 
L 359.299481 -229.337861 
L 355.750763 -241.767502 
L 352.202045 -246.083901 
L 348.653327 -230.055495 
L 345.104609 -237.740005 
L 341.55589 -233.531588 
L 338.007172 -263.865195 
L 334.458454 -231.992763 
L 330.909736 -249.935738 
L 327.361018 -219.502874 
L 323.8123 -217.623903 
L 320.263581 -196.688578 
L 316.714863 -272.192459 
L 313.166145 -210.395669 
L 309.617427 -229.853583 
L 306.068709 -241.970499 
L 302.51999 -257.377434 
L 298.971272 -221.697896 
L 295.422554 -244.144903 
L 291.873836 -250.241914 
L 288.325118 -232.898921 
L 284.7764 -227.238468 
L 281.227681 -258.088938 
L 277.678963 -243.25074 
L 274.130245 -223.718159 
L 270.581527 -226.168311 
L 267.032809 -258.038915 
L 263.48409 -229.73184 
L 259.935372 -242.751854 
L 256.386654 -236.884354 
L 252.837936 -211.837309 
L 249.289218 -233.932703 
L 245.7405 -182.130321 
L 242.191781 -252.030771 
L 238.643063 -223.748267 
L 235.094345 -234.024418 
L 231.545627 -238.490518 
L 227.996909 -262.090105 
L 224.44819 -242.494435 
L 220.899472 -212.419945 
L 217.350754 -234.593458 
L 213.802036 -233.660997 
L 210.253318 -237.232131 
L 206.7046 -217.221853 
L 203.155881 -226.65587 
L 199.607163 -181.539369 
L 196.058445 -241.940104 
L 192.509727 -265.797463 
L 188.961009 -245.705169 
L 185.41229 -217.161325 
L 181.863572 -208.641897 
L 178.314854 -223.99207 
L 174.766136 -223.212867 
L 171.217418 -190.760192 
L 167.6687 -238.015466 
L 164.119981 -236.434627 
L 160.571263 -228.308243 
L 157.022545 -223.781308 
L 153.473827 -187.796446 
L 149.925109 -188.427412 
L 146.37639 -147.620257 
L 142.827672 -119.27839 
L 139.278954 -111.302569 
L 135.730236 -102.391292 
L 132.181518 -98.794912 
L 128.6328 -94.259727 
L 125.084081 -73.349945 
L 121.535363 -93.213674 
L 117.986645 -81.793888 
L 114.437927 -95.498306 
L 110.889209 -78.344678 
L 107.34049 -109.161222 
L 103.791772 -82.741247 
L 100.243054 -74.235077 
L 96.694336 -69.847551 
L 93.145618 -78.349338 
L 89.5969 -101.75773 
L 86.048181 -90.901344 
L 82.499463 -81.857026 
L 78.950745 -112.348881 
z
" style="stroke: #ffffff; stroke-opacity: 0.5"/>
    </defs>
    <g clip-path="url(#pcd6c3d652c)">
     <use xlink:href="#m7c2a15c99b" x="0" y="345.6" style="fill: #dd8452; fill-opacity: 0.5; stroke: #ffffff; stroke-opacity: 0.5"/>
    </g>
   </g>
   <g id="line2d_14">
    <path d="M 78.950745 265.042568 
L 82.499463 269.712504 
L 86.048181 260.873111 
L 89.5969 245.782714 
L 93.145618 252.778412 
L 96.694336 219.863711 
L 100.243054 213.59795 
L 103.791772 213.109718 
L 107.34049 202.407294 
L 110.889209 187.642893 
L 114.437927 190.221037 
L 117.986645 225.726578 
L 121.535363 172.928831 
L 125.084081 198.665627 
L 128.6328 198.528253 
L 132.181518 178.165923 
L 135.730236 193.6902 
L 139.278954 184.877489 
L 142.827672 188.266761 
L 146.37639 184.622888 
L 149.925109 198.597818 
L 153.473827 161.591183 
L 157.022545 178.467212 
L 160.571263 151.045599 
L 164.119981 155.714669 
L 167.6687 194.4112 
L 171.217418 185.815658 
L 174.766136 170.685617 
L 178.314854 157.977929 
L 181.863572 191.280164 
L 185.41229 178.05841 
L 188.961009 162.373169 
L 192.509727 162.622736 
L 196.058445 145.727974 
L 199.607163 173.495899 
L 203.155881 144.215994 
L 206.7046 171.710462 
L 210.253318 183.628558 
L 213.802036 159.558082 
L 217.350754 174.113889 
L 220.899472 179.186551 
L 224.44819 169.454409 
L 227.996909 146.810178 
L 231.545627 141.480193 
L 235.094345 160.059055 
L 238.643063 131.200985 
L 242.191781 132.223826 
L 245.7405 141.813347 
L 249.289218 136.799819 
L 252.837936 163.980818 
L 256.386654 150.327396 
L 259.935372 160.450126 
L 263.48409 170.123653 
L 267.032809 149.249577 
L 270.581527 139.633686 
L 274.130245 172.719448 
L 277.678963 157.444369 
L 281.227681 161.809693 
L 284.7764 151.877863 
L 288.325118 154.246318 
L 291.873836 142.446639 
L 295.422554 120.288304 
L 298.971272 172.334233 
L 302.51999 170.364723 
L 306.068709 139.968674 
L 309.617427 111.428519 
L 313.166145 162.341143 
L 316.714863 132.16069 
L 320.263581 150.068922 
L 323.8123 149.631692 
L 327.361018 163.972002 
L 330.909736 166.023881 
L 334.458454 152.115284 
L 338.007172 129.739776 
L 341.55589 134.598564 
L 345.104609 165.942226 
L 348.653327 163.683326 
L 352.202045 147.405682 
L 355.750763 142.406775 
L 359.299481 175.576123 
L 362.8482 141.214959 
L 366.396918 105.646508 
L 369.945636 180.383775 
L 373.494354 139.820863 
L 377.043072 166.569028 
L 380.59179 150.565532 
L 384.140509 138.375907 
L 387.689227 163.369772 
L 391.237945 160.115738 
L 394.786663 182.492473 
L 398.335381 149.354726 
L 401.8841 159.995316 
L 405.432818 141.036618 
L 408.981536 171.75406 
L 412.530254 144.5124 
L 416.078972 164.95671 
L 419.62769 179.208145 
L 423.176409 154.984937 
L 426.725127 151.540938 
L 430.273845 165.803929 
" clip-path="url(#pcd6c3d652c)" style="fill: none; stroke: #4c72b0; stroke-width: 3; stroke-linecap: round"/>
   </g>
   <g id="line2d_15">
    <path d="M 78.950745 227.002149 
L 82.499463 250.143897 
L 86.048181 247.538945 
L 89.5969 236.606858 
L 93.145618 255.109428 
L 96.694336 269.172783 
L 100.243054 256.589178 
L 103.791772 253.131511 
L 107.34049 223.602263 
L 110.889209 254.733278 
L 114.437927 239.993198 
L 117.986645 238.007767 
L 121.535363 245.507336 
L 125.084081 260.503878 
L 128.6328 242.658858 
L 132.181518 237.675384 
L 135.730236 237.590459 
L 139.278954 208.258551 
L 142.827672 198.94192 
L 146.37639 174.334363 
L 149.925109 132.438302 
L 153.473827 121.388676 
L 157.022545 114.242046 
L 160.571263 111.952333 
L 164.119981 104.911745 
L 167.6687 94.263065 
L 171.217418 145.993804 
L 174.766136 109.410415 
L 178.314854 119.914703 
L 181.863572 131.424336 
L 185.41229 116.641885 
L 188.961009 96.460908 
L 192.509727 76.136715 
L 196.058445 95.905764 
L 199.607163 146.524774 
L 203.155881 116.636005 
L 206.7046 113.821608 
L 210.253318 102.381745 
L 213.802036 100.798946 
L 217.350754 98.497207 
L 220.899472 117.938051 
L 224.44819 86.867479 
L 227.996909 78.7204 
L 231.545627 96.469073 
L 235.094345 95.366451 
L 238.643063 114.819345 
L 242.191781 72.93823 
L 245.7405 152.740815 
L 249.289218 98.630118 
L 252.837936 124.48407 
L 256.386654 103.246817 
L 259.935372 81.861602 
L 263.48409 105.229975 
L 267.032809 76.300062 
L 270.581527 111.660114 
L 274.130245 104.037329 
L 277.678963 80.112127 
L 281.227681 85.687845 
L 284.7764 110.360876 
L 288.325118 101.055603 
L 291.873836 85.064738 
L 295.422554 90.983049 
L 298.971272 102.306819 
L 302.51999 74.811429 
L 306.068709 89.561572 
L 309.617427 100.904809 
L 313.166145 123.029707 
L 316.714863 62.288074 
L 320.263581 137.901749 
L 323.8123 123.234154 
L 327.361018 113.561514 
L 330.909736 87.997313 
L 334.458454 103.274223 
L 338.007172 65.940257 
L 341.55589 95.351295 
L 345.104609 100.504815 
L 348.653327 95.087265 
L 352.202045 90.710336 
L 355.750763 89.36368 
L 359.299481 96.752988 
L 362.8482 68.819209 
L 366.396918 110.128478 
L 369.945636 125.287916 
L 373.494354 103.214833 
L 377.043072 78.822454 
L 380.59179 97.75331 
L 384.140509 70.283128 
L 387.689227 89.907325 
L 391.237945 91.757657 
L 394.786663 91.93362 
L 398.335381 96.122374 
L 401.8841 88.521337 
L 405.432818 96.221023 
L 408.981536 97.760563 
L 412.530254 75.333628 
L 416.078972 54.948662 
L 419.62769 105.795696 
L 423.176409 105.443041 
L 426.725127 92.227087 
L 430.273845 106.375286 
" clip-path="url(#pcd6c3d652c)" style="fill: none; stroke: #dd8452; stroke-width: 3; stroke-linecap: round"/>
   </g>
   <g id="patch_3">
    <path d="M 61.38459 293.679964 
L 61.38459 28.645876 
" style="fill: none; stroke: #cccccc; stroke-width: 1.25; stroke-linejoin: miter; stroke-linecap: square"/>
   </g>
   <g id="patch_4">
    <path d="M 447.84 293.679964 
L 447.84 28.645876 
" style="fill: none; stroke: #cccccc; stroke-width: 1.25; stroke-linejoin: miter; stroke-linecap: square"/>
   </g>
   <g id="patch_5">
    <path d="M 61.38459 293.679964 
L 447.84 293.679964 
" style="fill: none; stroke: #cccccc; stroke-width: 1.25; stroke-linejoin: miter; stroke-linecap: square"/>
   </g>
   <g id="patch_6">
    <path d="M 61.38459 28.645876 
L 447.84 28.645876 
" style="fill: none; stroke: #cccccc; stroke-width: 1.25; stroke-linejoin: miter; stroke-linecap: square"/>
   </g>
   <g id="text_16">
    <!-- SmallSizeLeague-v1 -->
    <g style="fill: #262626" transform="translate(198.781811 22.645876)scale(0.14 -0.14)">
     <defs>
      <path id="CMSS17-61" d="M 2406 1791 
C 2406 2392 1978 2808 1402 2808 
C 1120 2808 813 2757 461 2553 
L 499 2135 
C 659 2248 934 2432 1395 2432 
C 1722 2432 1920 2180 1920 1782 
L 1920 1536 
C 896 1536 256 1238 256 726 
C 256 461 416 -64 947 -64 
C 1043 -64 1562 -64 1933 217 
L 1933 -19 
L 2406 -19 
L 2406 1791 
z
M 1920 816 
C 1920 701 1920 548 1728 434 
C 1562 325 1350 325 1261 325 
C 941 325 723 511 723 744 
C 723 1211 1722 1211 1920 1211 
L 1920 816 
z
" transform="scale(0.015625)"/>
      <path id="CMSS17-6c" d="M 947 4416 
L 474 4416 
L 474 0 
L 947 0 
L 947 4416 
z
" transform="scale(0.015625)"/>
      <path id="CMSS17-7a" d="M 2400 2502 
L 2400 2750 
L 250 2750 
L 250 2368 
L 1069 2368 
C 1146 2368 1222 2368 1299 2368 
L 1747 2368 
L 166 261 
L 166 0 
L 2419 0 
L 2419 395 
L 1549 395 
C 1472 395 1395 395 1318 395 
L 826 395 
L 2400 2502 
z
" transform="scale(0.015625)"/>
      <path id="CMSS17-4c" d="M 1670 414 
C 1594 414 1517 414 1440 414 
L 1101 414 
L 1101 4416 
L 563 4416 
L 563 0 
L 3002 0 
L 3002 414 
L 1670 414 
z
" transform="scale(0.015625)"/>
      <path id="CMSS17-67" d="M 2848 2808 
C 2483 2808 2170 2738 1914 2617 
C 1702 2777 1485 2808 1338 2808 
C 781 2808 358 2349 358 1814 
C 358 1468 550 1207 563 1195 
C 448 1035 384 863 384 672 
C 384 448 474 289 544 200 
C 211 -3 166 -314 166 -435 
C 166 -898 749 -1280 1498 -1280 
C 2253 -1280 2835 -898 2835 -428 
C 2835 448 1856 448 1587 448 
L 1069 448 
C 973 448 717 448 717 791 
C 717 921 774 1004 781 1010 
C 877 940 1075 832 1338 832 
C 1869 832 2310 1278 2310 1827 
C 2310 2132 2170 2355 2112 2432 
L 2131 2432 
C 2150 2432 2419 2432 2515 2432 
C 2720 2432 2739 2429 2918 2419 
L 2848 2808 
z
M 1338 1182 
C 1120 1182 813 1315 813 1823 
C 813 2375 1165 2464 1331 2464 
C 1549 2464 1856 2331 1856 1823 
C 1856 1271 1504 1182 1338 1182 
z
M 1581 -10 
C 1734 -10 2381 -10 2381 -442 
C 2381 -714 1984 -929 1504 -929 
C 1018 -929 621 -720 621 -435 
C 621 -403 621 -10 1062 -10 
L 1581 -10 
z
" transform="scale(0.015625)"/>
      <path id="CMSS17-75" d="M 2618 2739 
L 2131 2739 
L 2131 972 
C 2131 498 1786 306 1421 306 
C 998 306 960 447 960 709 
L 960 2739 
L 474 2739 
L 474 678 
C 474 179 646 -64 1088 -64 
C 1306 -64 1798 -13 2144 306 
L 2144 0 
L 2618 0 
L 2618 2739 
z
" transform="scale(0.015625)"/>
      <path id="CMSS17-2d" d="M 1664 1216 
L 1664 1585 
L 64 1585 
L 64 1216 
L 1664 1216 
z
" transform="scale(0.015625)"/>
      <path id="CMSS17-76" d="M 2675 2752 
L 2176 2752 
L 1747 1556 
C 1613 1165 1421 627 1389 352 
L 1382 352 
C 1370 468 1318 634 1286 749 
C 1248 890 1197 1056 1158 1172 
L 595 2752 
L 83 2752 
L 1094 0 
L 1664 0 
L 2675 2752 
z
" transform="scale(0.015625)"/>
     </defs>
     <use xlink:href="#CMSS17-53" transform="scale(0.996264)"/>
     <use xlink:href="#CMSS17-6d" transform="translate(52.048516 0)scale(0.996264)"/>
     <use xlink:href="#CMSS17-61" transform="translate(126.277771 0)scale(0.996264)"/>
     <use xlink:href="#CMSS17-6c" transform="translate(171.199691 0)scale(0.996264)"/>
     <use xlink:href="#CMSS17-6c" transform="translate(193.380414 0)scale(0.996264)"/>
     <use xlink:href="#CMSS17-53" transform="translate(215.561137 0)scale(0.996264)"/>
     <use xlink:href="#CMSS17-69" transform="translate(267.609653 0)scale(0.996264)"/>
     <use xlink:href="#CMSS17-7a" transform="translate(289.790377 0)scale(0.996264)"/>
     <use xlink:href="#CMSS17-65" transform="translate(330.468248 0)scale(0.996264)"/>
     <use xlink:href="#CMSS17-4c" transform="translate(372.10707 0)scale(0.996264)"/>
     <use xlink:href="#CMSS17-65" transform="translate(422.794176 0)scale(0.996264)"/>
     <use xlink:href="#CMSS17-61" transform="translate(464.432998 0)scale(0.996264)"/>
     <use xlink:href="#CMSS17-67" transform="translate(509.354918 0)scale(0.996264)"/>
     <use xlink:href="#CMSS17-75" transform="translate(556.198542 0)scale(0.996264)"/>
     <use xlink:href="#CMSS17-65" transform="translate(604.403485 0)scale(0.996264)"/>
     <use xlink:href="#CMSS17-2d" transform="translate(646.042307 0)scale(0.996264)"/>
     <use xlink:href="#CMSS17-76" transform="translate(677.27142 0)scale(0.996264)"/>
     <use xlink:href="#CMSS17-31" transform="translate(720.271562 0)scale(0.996264)"/>
    </g>
   </g>
   <g id="legend_1">
    <g id="patch_7">
     <path d="M 71.18459 78.869933 
L 143.427638 78.869933 
Q 146.227638 78.869933 146.227638 76.069933 
L 146.227638 38.445876 
Q 146.227638 35.645876 143.427638 35.645876 
L 71.18459 35.645876 
Q 68.38459 35.645876 68.38459 38.445876 
L 68.38459 76.069933 
Q 68.38459 78.869933 71.18459 78.869933 
z
" style="fill: #ffffff; opacity: 0.8; stroke: #cccccc; stroke-linejoin: miter"/>
    </g>
    <g id="line2d_16">
     <path d="M 73.98459 46.145876 
L 87.98459 46.145876 
L 101.98459 46.145876 
" style="fill: none; stroke: #4c72b0; stroke-width: 3; stroke-linecap: round"/>
    </g>
    <g id="text_17">
     <!-- PPO -->
     <g style="fill: #262626" transform="translate(113.18459 51.045876)scale(0.14 -0.14)">
      <defs>
       <path id="CMSS17-50" d="M 2106 1856 
C 2874 1856 3501 2453 3501 3158 
C 3501 3850 2899 4453 2067 4453 
L 570 4453 
L 570 0 
L 1107 0 
L 1107 1856 
L 2106 1856 
z
M 1926 4096 
C 2669 4096 2995 3627 2995 3157 
C 2995 2720 2694 2226 1926 2226 
L 1094 2226 
L 1094 4096 
L 1926 4096 
z
" transform="scale(0.015625)"/>
       <path id="CMSS17-4f" d="M 4096 2178 
C 4096 3503 3219 4497 2214 4497 
C 1210 4497 333 3497 333 2178 
C 333 847 1222 -128 2214 -128 
C 3206 -128 4096 847 4096 2178 
z
M 2214 273 
C 1510 273 870 1057 870 2261 
C 870 3433 1549 4096 2214 4096 
C 2880 4096 3558 3433 3558 2261 
C 3558 1051 2912 273 2214 273 
z
" transform="scale(0.015625)"/>
      </defs>
      <use xlink:href="#CMSS17-50" transform="scale(0.996264)"/>
      <use xlink:href="#CMSS17-50" transform="translate(59.735586 0)scale(0.996264)"/>
      <use xlink:href="#CMSS17-4f" transform="translate(119.471173 0)scale(0.996264)"/>
     </g>
    </g>
    <g id="line2d_17">
     <path d="M 73.98459 65.657905 
L 87.98459 65.657905 
L 101.98459 65.657905 
" style="fill: none; stroke: #dd8452; stroke-width: 3; stroke-linecap: round"/>
    </g>
    <g id="text_18">
     <!-- SAC -->
     <g style="fill: #262626" transform="translate(113.18459 70.557905)scale(0.14 -0.14)">
      <defs>
       <path id="CMSS17-41" d="M 2272 4416 
L 1722 4416 
L 166 0 
L 653 0 
L 1101 1280 
L 2816 1280 
L 3270 0 
L 3827 0 
L 2272 4416 
z
M 2694 1637 
L 1222 1637 
C 1530 2528 1914 3638 1958 3925 
L 1965 3925 
C 2010 3663 2138 3281 2246 2956 
L 2694 1637 
z
" transform="scale(0.015625)"/>
       <path id="CMSS17-43" d="M 3501 714 
C 3072 427 2874 344 2355 344 
C 1459 344 934 1303 934 2179 
C 934 3112 1472 4032 2381 4032 
C 2790 4032 3059 3918 3386 3715 
L 3475 4217 
C 3168 4370 2778 4440 2387 4440 
C 1158 4440 397 3316 397 2179 
C 397 927 1299 -64 2323 -64 
C 2874 -64 3066 -19 3539 280 
L 3501 714 
z
" transform="scale(0.015625)"/>
      </defs>
      <use xlink:href="#CMSS17-53" transform="scale(0.996264)"/>
      <use xlink:href="#CMSS17-41" transform="translate(52.048516 0)scale(0.996264)"/>
      <use xlink:href="#CMSS17-43" transform="translate(111.663917 0)scale(0.996264)"/>
     </g>
    </g>
   </g>
  </g>
 </g>
 <defs>
  <clipPath id="pcd6c3d652c">
   <rect x="61.38459" y="28.645876" width="386.45541" height="265.034087"/>
  </clipPath>
 </defs>
</svg>
